<?xml version="1.0" encoding="UTF-8" standalone="no"?>
<!-- Created with Inkscape (http://www.inkscape.org/) -->

<svg
   width="400"
   height="200"
   viewBox="0 0 105.83333 52.916666"
   version="1.1"
   id="svg5"
   inkscape:version="1.2.2 (b0a8486541, 2022-12-01)"
   sodipodi:docname="biologia-sejteket-felepito-szerves-molekulak-004.svg"
   xmlns:inkscape="http://www.inkscape.org/namespaces/inkscape"
   xmlns:sodipodi="http://sodipodi.sourceforge.net/DTD/sodipodi-0.dtd"
   xmlns="http://www.w3.org/2000/svg"
   xmlns:svg="http://www.w3.org/2000/svg">
  <sodipodi:namedview
     id="namedview7"
     pagecolor="#ffffff"
     bordercolor="#000000"
     borderopacity="0.25"
     inkscape:showpageshadow="2"
     inkscape:pageopacity="0.0"
     inkscape:pagecheckerboard="0"
     inkscape:deskcolor="#d1d1d1"
     inkscape:document-units="mm"
     showgrid="false"
     inkscape:zoom="2.8284271"
     inkscape:cx="242.89118"
     inkscape:cy="97.403959"
     inkscape:window-width="1920"
     inkscape:window-height="1008"
     inkscape:window-x="0"
     inkscape:window-y="0"
     inkscape:window-maximized="1"
     inkscape:current-layer="layer1" />
  <defs
     id="defs2">
    <clipPath
       clipPathUnits="userSpaceOnUse"
       id="clipPath1446">
      <path
         id="path1448"
         style="fill:#ff0000;fill-opacity:1;fill-rule:nonzero;stroke:none;stroke-width:0.264583"
         d="m 66.37786,9.3157103 v 3.2954067 h 3.295406 V 9.3157103 Z m 1.798341,0.8170047 h 5.29e-4 c 0.009,-8.2e-4 0.02135,0.0055 0.04082,0.01602 0.0029,0.0036 0.0052,0.0064 0.0078,0.0093 0.0011,5.55e-4 0.0021,5.29e-4 0.0031,0.0016 0.0099,0.0054 0.01995,0.0103 0.02997,0.0155 0.03741,0.01856 0.03217,0.01607 0.07028,0.03411 0.0109,0.0051 0.02212,0.0105 0.03307,0.0155 0.02953,0.01356 0.05673,0.0196 0.06563,0.06201 0.0013,0.0064 -0.0021,0.0119 -0.0062,0.01757 0.0027,0.0038 0.0053,0.0074 0.0078,0.01085 0.01664,0.0059 0.03259,0.01617 0.04599,0.02791 0.01125,0.0098 0.01826,0.01879 0.02482,0.02842 0.0016,-0.0057 0.0033,-0.01133 0.0047,-0.01705 h -5.29e-4 c 0.02011,-0.08445 0.105852,-0.07024 0.08681,0.01447 -0.0043,0.0193 -0.01003,0.03904 -0.01601,0.05839 0.0094,0.0069 0.01654,0.01561 0.01706,0.02636 5.29e-4,0.01261 -0.0071,0.0223 -0.01706,0.03152 0.01204,0.08432 -0.01455,0.164677 -0.04134,0.243913 -0.01619,0.04791 -0.02453,0.07065 -0.03617,0.0987 0.01371,0.0011 0.02995,0.01431 0.05994,0.04702 0.0066,0.0072 -0.0051,0.01889 -0.0098,0.02739 -0.0024,0.0045 -0.009,0.01307 -0.01601,0.02222 0.01868,0.0078 0.02726,0.02816 0.0181,0.05013 0.01466,0.002 0.03153,0.0061 0.03566,0.01654 0.01744,0.04422 0.01146,0.05832 -0.01654,0.07648 -2.4e-4,1.4e-4 -7.93e-4,3.44e-4 -0.0011,5.29e-4 0.005,0.0067 0.0086,0.01595 0.01085,0.02842 5.29e-4,0.0022 7.94e-4,0.0045 5.29e-4,0.0067 0.0053,1.29e-4 0.01072,5.82e-4 0.01601,10e-4 0.0056,-0.0046 0.01048,-0.0084 0.01085,-0.0083 0.08603,0.03912 0.07677,0.04522 0.04496,0.08888 0.0064,-5.03e-4 0.01312,-1.53e-4 0.02016,0 0.02119,0.003 0.02693,0.0017 0.04599,0.01292 0.02405,0.0142 0.03468,0.03799 0.03255,0.06563 -5.29e-4,0.0075 -0.0052,0.01409 -0.0078,0.02119 -0.0048,0.0065 -0.0091,0.01312 -0.01447,0.01912 -0.0036,0.0039 -0.0081,0.0071 -0.01241,0.01033 0.02363,0.0127 0.02368,0.02321 0.02066,0.04134 0.0063,0.0028 0.01228,0.006 0.01757,0.01034 0.0037,0.0031 0.0058,0.0091 0.0072,0.01602 0.0021,-0.001 0.0042,-0.0019 0.0047,-0.0021 0.01265,-0.0045 0.02654,-0.01595 0.03876,-0.01033 0.02019,0.0093 0.0322,0.01665 0.03876,0.02377 5.3e-4,2.58e-4 5.3e-4,0.001 0.0011,0.001 l 5.29e-4,5.29e-4 c 0.01294,0.0076 0.02862,0.01254 0.03565,0.02532 0.0028,0.0051 0.0037,0.01065 0.0036,0.01654 0.02172,-0.01331 0.04523,-0.0235 0.07028,-0.02429 0.0061,-1.92e-4 0.01228,2.15e-4 0.0186,0.0016 0.01019,0.0017 0.01966,0.0065 0.02946,0.0098 0.0164,0.0124 0.02707,0.01699 0.03617,0.03669 0.01423,0.03077 0.0084,0.06131 -0.0067,0.08992 -0.01339,0.02253 -0.02907,0.04289 -0.04754,0.0615 0.0035,0.0054 0.0066,0.01099 0.0088,0.01705 0.0039,0.01101 -0.0047,0.03463 -0.01241,0.05426 0.0019,6.3e-5 0.0035,6.35e-4 0.0052,10e-4 0.01175,0.0037 0.0236,0.0078 0.03359,0.01499 0.0092,0.0067 0.01545,0.01553 0.01963,0.02532 0.03586,-2.13e-4 0.05932,0.04556 0.03204,0.113171 -0.0088,0.02194 -0.01593,0.04429 -0.02843,0.0646 -0.0037,0.0059 -0.008,0.01135 -0.01188,0.01705 -0.01061,0.01688 -0.0292,0.02606 -0.04238,0.04031 -0.0024,0.0027 -0.0044,0.0059 -0.0067,0.0088 -0.01521,0.01909 -0.03045,0.03581 -0.04961,0.05116 -0.01656,0.01343 -0.0329,0.02746 -0.04909,0.04134 -0.01992,0.0164 -0.04214,0.02917 -0.06511,0.04082 -0.01881,0.01117 -0.03609,0.02104 -0.05684,0.02894 -0.01061,0.0047 -0.02262,0.0044 -0.03307,0.0093 -0.10473,0.04929 -0.150148,-0.06954 -0.04134,-0.109037 0.0035,-0.0013 0.0073,-0.0024 0.01085,-0.0036 -0.03995,-0.0058 -0.07604,-0.01422 -0.03307,-0.04754 0.0065,-0.005 0.01275,-0.01035 0.02016,-0.01395 0.0019,-0.0012 0.0039,-0.0024 0.0057,-0.0036 -0.02016,0.0055 -0.04118,0.0075 -0.06201,0.0098 -0.02495,0.0011 -0.05041,0.006 -0.07545,0.0036 -0.0062,-6.09e-4 -0.01199,-0.0021 -0.0181,-0.0031 -0.02855,-0.009 -0.04993,-0.02517 -0.05943,-0.05478 -0.0066,-0.0208 -0.004,-0.04025 -5.29e-4,-0.06098 5.29e-4,-0.0015 0.0011,-0.0032 0.0016,-0.0047 -0.0222,0.002 -0.0444,0.0025 -0.06667,-10e-4 -0.112842,-0.01803 -0.09588,-0.126986 0.01498,-0.115755 -0.0024,-0.0042 -0.0046,-0.0087 -0.0062,-0.01395 -0.0044,-0.01437 0.0021,-0.02997 0.0031,-0.04496 0.0036,-0.0056 0.0063,-0.01175 0.01035,-0.01705 0.0092,-0.01231 0.02249,-0.02149 0.03514,-0.03049 -0.01923,-0.0049 -0.03042,-0.02168 -0.02894,-0.06615 -0.0098,0.0037 -0.01887,0.0058 -0.02532,-5.29e-4 -0.0094,-0.0092 -0.0127,-0.02181 -0.0155,-0.03514 -0.0081,0.002 -0.01617,0.0037 -0.02429,0.0057 -0.01426,-0.0025 -0.03319,0.003 -0.04289,-0.0077 -0.01963,-0.0218 -0.02495,-0.0397 -0.02066,-0.05529 -0.0043,0.0022 -0.0082,0.0039 -0.01138,0.0052 -0.01252,0.0048 -0.02774,0.01726 -0.03928,0.01033 -0.0217,-0.01291 -0.03033,-0.04026 -0.04547,-0.06046 0.0024,-0.0055 0.0033,-0.01134 0.0062,-0.01654 0.0095,-0.0172 0.02228,-0.03273 0.03617,-0.04754 -0.0019,3.17e-4 -0.0037,1.93e-4 -0.0057,-5.3e-4 -0.02275,-0.0067 -0.04,-0.02494 -0.05788,-0.04134 -0.0041,0.0035 -0.0084,0.0066 -0.01291,0.0093 -0.01577,0.0093 -0.03387,0.01618 -0.05168,0.01447 -0.0055,0.0037 -0.01175,0.0072 -0.01707,0.0047 -0.01005,-0.0047 -0.01984,-0.01027 -0.02894,-0.01705 -0.0068,0.0027 -0.01381,0.005 -0.02066,0.0078 -0.0079,0.0031 -0.01577,0.0069 -0.02376,0.0098 -0.0072,0.0027 -0.01492,0.0104 -0.0217,0.0067 -0.0078,-0.004 -0.01498,-0.0088 -0.0217,-0.01447 -0.01143,0.0028 -0.02231,0.0034 -0.03049,-0.0036 -0.01789,-0.01534 -0.02384,-0.02977 -0.02273,-0.04289 -0.02791,0.01468 -0.05677,0.02922 -0.0708,0.03566 -0.0043,0.002 -0.0085,0.0038 -0.01291,0.0057 -0.0069,0.009 -0.01442,0.01803 -0.02222,0.02636 -5.29e-4,0.01017 -0.01368,0.0169 -0.03256,0.03049 -0.01426,0.0042 -0.02849,0.0082 -0.04289,0.01188 -0.0011,0.0032 -0.0024,0.0061 -0.0031,0.0093 -0.0047,0.0033 -0.0095,0.0062 -0.01447,0.0088 -0.0016,0.0033 -0.0047,0.0042 -0.0093,0.0041 -0.02114,0.0089 -0.04368,0.01243 -0.06718,0.01292 -0.0055,1.14e-4 -0.01283,0.0036 -0.01654,-5.29e-4 -0.0076,-0.0085 -0.01339,-0.01794 -0.01913,-0.02791 -0.03918,0.01058 -0.06667,-0.0036 -0.09147,-0.03359 -0.0042,-0.0051 -0.0086,-0.01003 -0.01291,-0.01499 -0.0177,-0.0062 -0.03359,-0.01459 -0.03824,-0.02635 -0.0045,-0.01147 -0.0076,-0.02079 -0.0088,-0.02894 v -5.3e-4 c -0.01535,-0.02002 -0.02899,-0.04162 -0.04806,-0.05839 -0.0033,-0.0029 -0.0065,-0.0059 -0.0098,-0.0088 -0.02516,0.0082 -0.03288,0.0038 -0.04134,-0.0186 -0.0114,0.0032 -0.02267,0.0058 -0.03411,0.0088 -0.0074,0.002 -0.01492,0.0045 -0.02223,0.0067 -0.02827,0.0073 -0.06077,0.0085 -0.08372,-0.01344 -0.02167,-0.0207 -0.01984,-0.0277 -0.02532,-0.05271 -7.94e-4,-0.0098 5.29e-4,-0.0199 0.0026,-0.02946 -0.0024,-0.0029 -0.0044,-0.0059 -0.0062,-0.0093 -0.01249,-0.0044 -0.0232,-0.01293 -0.03101,-0.02739 -0.01074,4.77e-4 -0.02186,-8.73e-4 -0.02946,-0.0062 -0.01757,-0.01228 -0.03299,-0.03031 -0.03979,-0.05064 -0.0062,-0.01879 0.0024,-0.03631 0.01447,-0.05116 -0.0019,-4.5e-4 -0.0038,-7.41e-4 -0.0057,-10e-4 -0.04132,-0.0137 -0.05551,-0.02506 -0.05116,-0.06046 -0.0013,1.47e-4 -0.0024,3.7e-4 -0.0036,5.29e-4 -0.033,0.0033 -0.06499,-0.0078 -0.09147,-0.02687 -0.0062,-0.0048 -0.01251,-0.01 -0.0186,-0.01499 -0.0063,5.82e-4 -0.0079,-0.0017 -0.0088,-0.0077 v -5.29e-4 c -5.29e-4,-3.97e-4 -0.0021,-8.2e-4 -0.0026,-10e-4 -7.93e-4,-1.59e-4 -0.0016,-7.94e-4 -0.0021,-0.001 -0.0024,0.03693 -0.0087,0.06779 -0.05581,0.08268 -0.01035,0.0032 -0.02127,-0.0014 -0.03204,-0.0052 -0.01611,0.02214 -0.04004,0.02933 -0.06046,0.0217 h -5.3e-4 c -0.02953,0.01816 -0.07424,3.44e-4 -0.09043,-0.0646 -0.0036,-0.01414 -0.0069,-0.02858 -0.0098,-0.04289 -0.0038,-0.02755 -0.0063,-0.05538 -0.0062,-0.0832 0.0016,-0.01777 0.0041,-0.03539 0.0083,-0.05271 -3.4e-5,-0.0096 0.0011,-0.02006 0.0036,-0.03152 7.94e-4,-0.0034 0.0013,-0.007 0.0021,-0.01033 0.0027,-0.01189 0.0036,-0.02365 0.0057,-0.03566 0.0024,-0.01325 0.0064,-0.0263 0.0098,-0.03927 0.0042,-0.01434 0.01011,-0.02889 0.0098,-0.04393 -2.65e-4,-0.01577 0.0016,-0.02934 0.0052,-0.04082 5e-5,-1.69e-4 -5e-5,-3.44e-4 0,-5.29e-4 -7.94e-4,-0.0072 -0.0013,-0.01461 -0.0026,-0.0217 h -5.29e-4 c -0.0084,-0.04769 0.0065,-0.07954 0.02842,-0.09198 0.01093,-0.02464 0.03002,-0.03721 0.04909,-0.03721 0.02035,0 0.04068,0.01385 0.05116,0.04186 0.0051,-0.0025 0.01064,-0.0042 0.01654,-0.0062 0.01249,-0.003 0.02355,-0.0054 0.03359,-0.0057 7.93e-4,-0.05782 0.03006,-0.08964 0.05891,-0.09147 0.02755,-0.0017 0.05509,0.02407 0.05736,0.0801 7.94e-4,0.02069 7.94e-4,0.04134 5.29e-4,0.06201 0.0092,0.0011 0.01693,0.0032 0.02376,0.0067 5.29e-4,-0.0028 0.0016,-0.0055 0.0021,-0.0083 0.0019,-0.0125 0.0076,-0.07411 0.01913,-0.08372 0.01609,-0.01342 0.03586,-0.02711 0.05633,-0.03204 0.01331,-0.03285 0.04342,-0.05064 0.077,-0.06046 0.03631,-0.0097 0.07259,-0.01862 0.110588,-0.01602 0.03296,2e-4 0.06632,-3.44e-4 0.09922,0.0021 0.0013,0.01708 0.0039,0.03409 0.0057,0.05116 0.0016,4.23e-4 0.0033,6.35e-4 0.0052,0.0016 5.3e-4,1.93e-4 0.0019,8.47e-4 0.0026,10e-4 -0.0011,-0.01799 0.0076,-0.02534 0.02222,-0.04754 0.0049,-0.0035 0.0098,-0.0072 0.01498,-0.01033 0.02469,-0.01466 0.05368,-0.01681 0.08165,-0.01654 0.02699,0.0019 0.05393,0.0052 0.0801,0.0124 0.03016,0.0085 0.05989,0.0187 0.09043,0.02584 0.01005,0.0027 0.0199,0.0064 0.02997,0.0088 0.0163,-0.03203 0.03033,-0.06503 0.04031,-0.09974 h -0.0016 c 0.01199,-0.04171 0.03794,-0.06333 0.05891,-0.06356 0.02098,-2.3e-4 0.03711,0.02093 0.02894,0.06356 -0.0021,0.01136 -0.0029,0.02302 -0.0062,0.03411 -0.004,0.01354 -0.0084,0.02667 -0.01344,0.03979 0.0064,-0.0025 0.01275,-0.0049 0.01963,-0.0062 0.0071,-0.0014 0.014,-0.0017 0.02119,-0.0026 0.03976,-0.001 0.08379,0.01082 0.09767,0.05426 0.0019,0.0057 0.0031,0.01153 0.0031,0.01757 0.0013,-4.23e-4 0.0019,-0.0021 0.0031,-0.0026 0.0034,-0.01041 0.0079,-0.02019 0.01497,-0.02842 0.0049,-0.0057 0.01146,-0.0084 0.01913,-0.0098 -0.0097,-0.0053 -0.01683,-0.01032 -0.0181,-0.01654 -0.01421,-0.07075 0.03491,-0.0702 0.07493,-0.07906 0.01177,-0.0036 0.01966,-0.0069 0.02585,-0.0088 -0.0016,-0.0072 -0.0032,-0.01467 -0.0052,-0.0217 0.0055,-0.0018 0.01093,-0.0044 0.01654,-0.0057 0.01201,-0.0029 0.02442,-0.0038 0.03669,-0.0052 2.62e-4,-3.3e-5 0.0019,8.4e-5 0.0021,0 0.0042,-0.01602 0.0086,-0.02472 0.01603,-0.02687 z m -1.108977,0.283187 c -0.0044,6.09e-4 -0.0082,0.01524 0.0062,0.0279 -2.65e-4,-0.0061 -7.94e-4,-0.01205 -0.0016,-0.01809 -7.93e-4,-0.0071 -0.0026,-0.01025 -0.0047,-0.0098 z m 0.388606,0.04651 c -7.93e-4,0.0032 -0.0013,0.0066 -0.0021,0.0098 5.29e-4,-6.88e-4 0.0013,-0.0018 0.0021,-0.0026 -1.03e-4,-0.0024 1.3e-4,-0.0048 0,-0.0072 z m 0.703834,0.04082 c 0.003,7.67e-4 0.0058,0.0017 0.0088,0.0026 0.0013,3.44e-4 0.0024,8.99e-4 0.0036,10e-4 7.94e-4,1.92e-4 0.0019,1.56e-4 0.0026,5.29e-4 0.0021,-0.0012 0.0042,-0.002 0.0062,-0.0031 -0.0071,-3.44e-4 -0.01413,-9.52e-4 -0.02119,-10e-4 z m -1.289843,0.0026 c -2.65e-4,-7.94e-4 -7.94e-4,0.0021 -0.0016,0.0026 7.94e-4,0.0021 0.0019,0.0038 0.0031,0.0057 -1.88e-4,-0.003 -7.94e-4,-0.006 -0.0016,-0.0083 z m 0.80977,0.142627 c -0.0047,0.0057 -0.0093,0.01136 -0.01394,0.01705 0.0033,-0.0016 0.0065,-0.003 0.0098,-0.0047 -0.0019,0.002 -0.0028,0.0028 -0.0041,0.0041 0.0019,-8.2e-4 0.0038,-0.0018 0.0057,-0.0026 7.93e-4,-0.0047 0.0019,-0.0093 0.0026,-0.01395 z m 0.990119,0.588077 c -7.94e-4,3.97e-4 -0.0021,0.001 -0.0026,0.001 -0.0011,0.0013 -0.0027,0.0025 -0.0031,0.0041 -7.1e-5,3.18e-4 6.9e-5,9.79e-4 0,10e-4 0.0024,-0.002 0.0042,-0.0043 0.0057,-0.0062 z m -0.474906,0.0155 c -6.9e-5,4.76e-4 8.2e-5,0.0011 0,0.0016 7.93e-4,3.44e-4 0.0016,8.99e-4 0.0026,10e-4 -5.3e-4,-5.56e-4 -0.0016,-0.0019 -0.0026,-0.0026 z m 0.736907,0.234095 c -5.3e-4,0.0017 -0.0013,0.0035 -0.0016,0.0052 l 5.29e-4,5.29e-4 c 2.65e-4,-0.0015 7.94e-4,-0.0042 0.0011,-0.0057 z m -0.376206,0.371036 c 0.0016,0.0011 0.0043,0.0015 0.0072,0.0016 -0.0024,-7.67e-4 -0.0047,-0.0012 -0.0072,-0.0016 z" />
    </clipPath>
    <clipPath
       clipPathUnits="userSpaceOnUse"
       id="clipPath1456">
      <path
         id="path1458"
         style="fill:#ff0000;fill-opacity:1;fill-rule:nonzero;stroke:none;stroke-width:0.264583"
         d="M 49.729782,10.483598 V 32.435747 H 74.685364 V 10.483598 h -6.108671 c -7.94e-4,7.94e-4 -0.0019,0.0013 -0.0026,0.0021 0.01191,0.0842 -0.01408,0.164264 -0.04082,0.243396 -0.01619,0.04791 -0.02453,0.07065 -0.03617,0.0987 0.01371,0.0011 0.02993,0.01431 0.05994,0.04702 0.0066,0.0072 -0.0051,0.01889 -0.0098,0.02739 -0.0024,0.0043 -0.01037,0.01301 -0.01704,0.0217 0.01934,0.0075 0.02845,0.0283 0.01913,0.05064 0.01466,0.002 0.03153,0.0061 0.03566,0.01654 0.01744,0.04422 0.01146,0.05832 -0.01654,0.07648 -2.41e-4,1.4e-4 -7.94e-4,3.44e-4 -0.0011,5.29e-4 0.005,0.0067 0.0086,0.01595 0.01085,0.02842 5.29e-4,0.0022 7.93e-4,0.0045 5.29e-4,0.0067 0.0053,1.29e-4 0.01071,5.82e-4 0.01601,10e-4 0.0056,-0.0046 0.01048,-0.0084 0.01085,-0.0083 0.08603,0.03912 0.07677,0.04522 0.04496,0.08888 0.0064,-5.03e-4 0.01312,-1.53e-4 0.02016,0 0.02119,0.003 0.02693,0.0017 0.04599,0.01292 0.02405,0.0142 0.03468,0.03799 0.03255,0.06563 -5.29e-4,0.0075 -0.0052,0.01409 -0.0078,0.02119 -0.0048,0.0065 -0.0091,0.01312 -0.01447,0.01912 -0.0036,0.0039 -0.0081,0.0071 -0.01241,0.01033 0.02363,0.0127 0.02368,0.02321 0.02066,0.04134 0.0063,0.0028 0.01228,0.006 0.01757,0.01034 0.0037,0.0031 0.0058,0.0091 0.0072,0.01602 0.0021,-0.001 0.0042,-0.0019 0.0047,-0.0021 0.01265,-0.0045 0.02654,-0.01595 0.03876,-0.01034 0.02019,0.0093 0.0322,0.01664 0.03876,0.02377 5.29e-4,2.58e-4 5.29e-4,10e-4 0.0011,10e-4 l 5.29e-4,5.29e-4 c 0.01294,0.0076 0.02861,0.01254 0.03565,0.02532 0.0028,0.0051 0.0027,0.01105 0.0026,0.01705 0.02201,-0.01361 0.04587,-0.02402 0.07131,-0.0248 0.0061,-1.92e-4 0.01228,2.15e-4 0.0186,0.0016 0.01019,0.0017 0.01966,0.0065 0.02946,0.0098 0.0164,0.0124 0.02707,0.01699 0.03617,0.03669 0.01423,0.03077 0.0084,0.06131 -0.0067,0.08992 -0.01339,0.02253 -0.02907,0.04289 -0.04754,0.0615 0.0035,0.0054 0.0066,0.01099 0.0088,0.01705 0.0039,0.01101 -0.0047,0.03463 -0.01241,0.05426 0.0019,6.3e-5 0.0035,6.35e-4 0.0052,0.001 0.01175,0.0037 0.0236,0.0078 0.03359,0.01499 0.0092,0.0067 0.01492,0.01554 0.01913,0.02532 0.03614,-6.35e-4 0.05996,0.04524 0.03256,0.113171 -0.0088,0.02194 -0.01593,0.04429 -0.02842,0.0646 -0.0037,0.0059 -0.008,0.01135 -0.01188,0.01705 -0.01061,0.01688 -0.02918,0.02606 -0.04238,0.04031 -0.0024,0.0027 -0.0044,0.0059 -0.0067,0.0088 -0.01521,0.01909 -0.03045,0.03581 -0.04961,0.05116 -0.01656,0.01343 -0.0329,0.02746 -0.04909,0.04134 -0.01992,0.0164 -0.04214,0.02917 -0.06511,0.04082 -0.01881,0.01117 -0.03609,0.02104 -0.05684,0.02894 -0.01061,0.0047 -0.02262,0.0044 -0.03307,0.0093 -0.10473,0.04929 -0.150148,-0.06954 -0.04134,-0.109037 0.0038,-0.0014 0.0076,-0.0029 0.01138,-0.0041 -0.04006,-0.0058 -0.07666,-0.01363 -0.03359,-0.04702 0.0065,-0.005 0.01275,-0.01035 0.02016,-0.01395 0.0019,-0.0012 0.0039,-0.0024 0.0057,-0.0036 -0.02016,0.0055 -0.04118,0.0075 -0.06201,0.0098 -0.02495,0.0011 -0.05041,0.006 -0.07545,0.0036 -0.0062,-6.09e-4 -0.01199,-0.0021 -0.0181,-0.0031 -0.02855,-0.009 -0.04993,-0.02517 -0.05943,-0.05478 -0.0066,-0.0208 -0.004,-0.04025 -5.29e-4,-0.06098 5.29e-4,-0.0015 5.29e-4,-0.0032 0.0011,-0.0047 -0.0222,0.002 -0.04442,0.0025 -0.06666,-10e-4 -0.112842,-0.01803 -0.09588,-0.126982 0.01498,-0.115755 -0.0024,-0.0042 -0.0046,-0.0087 -0.0062,-0.01395 -0.0044,-0.01437 0.0021,-0.02997 0.0031,-0.04496 0.0036,-0.0056 0.0063,-0.01175 0.01035,-0.01705 0.0093,-0.0125 0.02283,-0.02187 0.03566,-0.03101 -0.01937,-0.0048 -0.03091,-0.021 -0.02946,-0.06563 -0.0098,0.0037 -0.01937,0.0058 -0.02585,-5.29e-4 -0.0094,-0.0092 -0.01318,-0.02181 -0.01601,-0.03514 -0.0081,0.002 -0.01617,0.0037 -0.02429,0.0057 -0.01426,-0.0025 -0.03319,0.003 -0.04289,-0.0077 -0.01963,-0.0218 -0.02445,-0.0397 -0.02016,-0.05529 -0.0043,0.0022 -0.0082,0.0039 -0.01138,0.0052 -0.01251,0.0048 -0.02775,0.01723 -0.03927,0.01033 -0.0217,-0.01291 -0.03035,-0.04026 -0.04548,-0.06046 0.0024,-0.0055 0.0043,-0.01134 0.0072,-0.01654 0.0095,-0.0172 0.02228,-0.03273 0.03617,-0.04754 -0.0019,3.17e-4 -0.0037,1.91e-4 -0.0057,-5.3e-4 -0.02281,-0.0067 -0.03996,-0.02492 -0.05788,-0.04134 -0.0041,0.0035 -0.0084,0.0066 -0.01291,0.0093 -0.01577,0.0093 -0.03386,0.01618 -0.05168,0.01447 -0.0055,0.0037 -0.01175,0.0072 -0.01707,0.0047 -0.01005,-0.0047 -0.01984,-0.01027 -0.02894,-0.01705 -0.0068,0.0027 -0.01381,0.0049 -0.02066,0.0078 -0.0079,0.0031 -0.01577,0.0069 -0.02376,0.0098 -0.0072,0.0027 -0.0149,0.0104 -0.0217,0.0067 -0.0078,-0.004 -0.01498,-0.0088 -0.0217,-0.01447 -0.01143,0.0028 -0.0223,0.0034 -0.03049,-0.0036 -0.01789,-0.01534 -0.02384,-0.02977 -0.02273,-0.04289 -0.02791,0.01468 -0.05677,0.02922 -0.0708,0.03566 -0.0043,0.002 -0.0085,0.0038 -0.01291,0.0057 -0.0069,0.009 -0.01442,0.01803 -0.02223,0.02635 -5.29e-4,0.01017 -0.01368,0.0169 -0.03256,0.03049 -0.01426,0.0042 -0.02849,0.0082 -0.04289,0.01188 -0.0011,0.0032 -0.0028,0.0061 -0.0036,0.0093 -0.0047,0.0033 -0.0095,0.0062 -0.01447,0.0088 -0.0016,0.0033 -0.0042,0.0042 -0.0088,0.0041 -0.02114,0.0089 -0.04368,0.01243 -0.06718,0.01292 -0.0055,1.14e-4 -0.01283,0.0036 -0.01654,-5.29e-4 -0.0076,-0.0085 -0.01392,-0.01794 -0.01963,-0.02791 -0.03893,0.01033 -0.06627,-0.0037 -0.09095,-0.03359 -0.0042,-0.0051 -0.0086,-0.01003 -0.01291,-0.01499 -0.01781,-0.0062 -0.03357,-0.01454 -0.03824,-0.02636 -0.0045,-0.01131 -0.0076,-0.02035 -0.0088,-0.02842 v -5.29e-4 -5.3e-4 c -0.01535,-0.02002 -0.02899,-0.0416 -0.04806,-0.05839 -0.0033,-0.0029 -0.0065,-0.0059 -0.0098,-0.0088 -0.02516,0.0082 -0.03288,0.0038 -0.04134,-0.0186 -0.0114,0.0032 -0.02267,0.0057 -0.03411,0.0088 -0.0074,0.002 -0.01492,0.0045 -0.02222,0.0067 -0.02827,0.0073 -0.06077,0.0085 -0.08372,-0.01344 -0.02167,-0.0207 -0.02043,-0.0277 -0.02582,-0.05271 -7.94e-4,-0.0098 -2.65e-4,-0.0199 0.0016,-0.02946 -0.0024,-0.0029 -0.0044,-0.0059 -0.0062,-0.0093 -0.01249,-0.0044 -0.02373,-0.01293 -0.03152,-0.02739 -0.01074,4.76e-4 -0.02133,-8.73e-4 -0.02894,-0.0062 -0.01757,-0.01228 -0.03299,-0.03031 -0.03979,-0.05064 -0.0062,-0.01879 0.0028,-0.03631 0.01498,-0.05116 -0.0019,-4.49e-4 -0.0033,-7.4e-4 -0.0052,-10e-4 -0.04131,-0.0137 -0.05551,-0.02506 -0.05116,-0.06046 -0.0013,1.49e-4 -0.0024,3.7e-4 -0.0036,5.29e-4 -0.033,0.0033 -0.06499,-0.0078 -0.09147,-0.02687 -0.0062,-0.0048 -0.01251,-0.01 -0.0186,-0.01499 -0.0063,5.82e-4 -0.0089,-0.0017 -0.0098,-0.0077 v -5.29e-4 c -5.3e-4,-3.97e-4 -0.0011,-8.2e-4 -0.0016,-10e-4 -7.94e-4,-1.83e-4 -0.0011,-0.0011 -0.0016,-0.0016 -0.0024,0.03715 -0.0085,0.06824 -0.05581,0.0832 -0.01035,0.0032 -0.02127,-0.0014 -0.03204,-0.0052 -0.0158,0.02168 -0.0384,0.0272 -0.0584,0.02015 -0.02945,0.02065 -0.07639,0.0036 -0.09302,-0.06305 -0.0036,-0.01414 -0.0069,-0.02858 -0.0098,-0.04289 -0.0038,-0.02755 -0.0064,-0.05538 -0.0062,-0.0832 0.0016,-0.01696 0.0045,-0.03357 0.0083,-0.05013 -3e-6,-1.62e-4 5e-6,-3.44e-4 0,-5.29e-4 -2.36e-4,-0.01019 7.93e-4,-0.02125 0.0036,-0.03359 7.94e-4,-0.0034 0.0013,-0.007 0.0021,-0.01034 0.0027,-0.01189 0.0036,-0.02365 0.0057,-0.03566 0.0024,-0.01325 0.0064,-0.02631 0.0098,-0.03927 0.0042,-0.01434 0.01011,-0.02889 0.0098,-0.04392 -2.65e-4,-0.01448 0.0013,-0.02738 0.0041,-0.03824 -7.94e-4,-0.0083 -5.29e-4,-0.01665 -0.0021,-0.0248 h -5.3e-4 c -0.0019,-0.01098 -0.0024,-0.02124 -0.0021,-0.03049 z m 18.429882,0.01964 c 0.003,7.68e-4 0.0058,0.0017 0.0088,0.0026 0.0013,3.44e-4 0.0024,9e-4 0.0036,10e-4 7.94e-4,1.92e-4 0.0019,1.57e-4 0.0026,5.29e-4 0.0021,-0.0012 0.0042,-0.002 0.0062,-0.0031 -0.0071,-3.44e-4 -0.01413,-9.53e-4 -0.02119,-0.001 z m -1.289843,0.0026 c -2.65e-4,-7.93e-4 -7.94e-4,0.0021 -0.0016,0.0026 7.94e-4,0.0021 0.0019,0.0038 0.0031,0.0057 -1.88e-4,-0.003 -7.94e-4,-0.006 -0.0016,-0.0083 z m 0.80977,0.142627 c -0.0047,0.0058 -0.0097,0.01131 -0.01447,0.01705 0.0034,-0.0016 0.0069,-0.0031 0.01035,-0.0047 -0.0019,0.002 -0.0028,0.0028 -0.0041,0.0041 0.0019,-7.41e-4 0.0035,-0.0013 0.0052,-0.0021 7.93e-4,-0.0048 0.0021,-0.0096 0.0031,-0.01447 z m 0.990119,0.588077 c -7.94e-4,3.97e-4 -0.0021,10e-4 -0.0026,10e-4 -0.0011,0.0013 -0.0027,0.0025 -0.0031,0.0041 -7.1e-5,3.17e-4 6.9e-5,9.79e-4 0,10e-4 0.0024,-0.002 0.0042,-0.0043 0.0057,-0.0062 z m -0.474906,0.0155 c -6.9e-5,4.77e-4 8.2e-5,0.0011 0,0.0016 7.93e-4,3.44e-4 0.0016,9e-4 0.0026,0.001 -5.3e-4,-5.55e-4 -0.0016,-0.0019 -0.0026,-0.0026 z m 0.736907,0.234096 c -5.3e-4,0.0017 -0.0013,0.0035 -0.0016,0.0052 l 5.29e-4,5.29e-4 c 2.65e-4,-0.0015 7.94e-4,-0.0042 0.0011,-0.0057 z m -0.224793,0.02222 c -0.0016,6.62e-4 -0.0027,0.0018 -0.0041,0.0026 0.0016,3.97e-4 0.0057,-0.0033 0.0041,-0.0026 z m -0.151413,0.348816 c 0.0016,0.0011 0.0043,0.0015 0.0072,0.0016 -0.0024,-7.67e-4 -0.0047,-0.0012 -0.0072,-0.0016 z" />
    </clipPath>
  </defs>
  <g
     inkscape:label="Layer 1"
     inkscape:groupmode="layer"
     id="layer1">
    <path
       id="path1036"
       style="fill:none;stroke:#000000;stroke-width:0.264583"
       d="m 68.025305,9.4480021 a 1.5154165,1.5154165 0 0 0 -1.515153,1.5151529 1.5154165,1.5154165 0 0 0 1.515153,1.51567 1.5154165,1.5154165 0 0 0 1.51567,-1.51567 1.5154165,1.5154165 0 0 0 -1.51567,-1.5151529 z m 0.249081,0.9022709 c 0.02727,-0.0022 0.05174,0.03138 0.03566,0.0832 -0.0026,0.0082 -0.0054,0.0166 -0.0078,0.0248 -0.0082,0.02768 -0.01316,0.04438 -0.01809,0.06098 8.34e-4,-0.0018 0.0018,-0.0034 0.0026,-0.0052 5.31e-4,-0.0015 6.03e-4,-0.0053 0.0015,-0.0041 0.0059,0.0072 0.01305,0.01383 0.02015,0.02067 0.0048,2.46e-4 0.0096,8.85e-4 0.01447,0.0016 0.0094,-0.01128 0.01733,-0.02018 0.0186,-0.02015 0.11786,0.0025 0.08722,0.03398 0.05943,0.08527 -0.01062,0.01605 -0.02105,0.03227 -0.03204,0.04806 -0.05063,0.0727 -0.10581,0.142446 -0.160196,0.21239 -0.0284,0.05035 -0.05799,0.100043 -0.08888,0.148828 -0.01723,0.02722 -0.03581,0.05333 -0.05374,0.0801 -0.04881,0.05555 -0.05072,0.09415 -0.120407,0.0062 -0.0062,-0.0078 0.0068,-0.0188 0.01085,-0.0279 0.0083,-0.01825 0.01734,-0.03636 0.02635,-0.05426 -4.04e-4,-3.33e-4 -6.26e-4,-6.95e-4 -0.001,-0.001 -0.0062,-0.0051 0.0064,-0.0147 0.01033,-0.0217 0.0049,-0.0089 0.0099,-0.01754 0.01499,-0.02635 6.67e-4,-0.0014 0.0014,-0.0028 0.0021,-0.0041 0.0017,-0.0036 0.0035,-0.0073 0.0052,-0.01085 0.01349,-0.02878 0.02613,-0.05788 0.03927,-0.08682 0.0424,-0.09607 0.08634,-0.191541 0.121957,-0.290421 0.02953,-0.08199 0.0213,-0.06596 0.04341,-0.137976 0.0036,-0.01155 0.0076,-0.02316 0.01137,-0.03462 0.01029,-0.03089 0.02756,-0.04518 0.04393,-0.04651 z m -0.674895,0.07286 c 0.01096,-9.56e-4 0.02658,0.0031 0.04703,0.0047 0.03013,0.0048 0.05565,0.0083 0.0832,0.01499 h 5.17e-4 c 0.01462,-7.45e-4 0.02709,-9.39e-4 0.03566,-0.001 0.01777,8.48e-4 0.102408,-0.003 0.08165,0.04754 0.0079,-0.002 0.01586,-0.0039 0.02377,-0.0057 0.02092,-0.0048 0.06874,-0.0111 0.09198,-0.0093 0.0088,7e-4 0.01672,0.0044 0.02532,0.0067 -3.09e-4,0.0019 -3.85e-4,0.0042 -5.17e-4,0.0062 0.01664,0.0014 0.03541,0.0044 0.04703,0.01085 0.0091,0.0051 0.01555,0.01419 0.02325,0.02119 -0.0046,0.01699 -0.0019,0.03833 -0.01395,0.05116 -0.01021,0.01092 -0.0266,0.01287 -0.04186,0.0155 -0.0064,0.0121 -0.01024,0.02655 -0.01654,0.03876 0.0011,0.0059 0.0023,0.01161 0.0041,0.01705 -0.0068,-0.0057 -0.0058,-0.005 -0.01395,-0.0031 -2.71e-4,2.57e-4 -8.23e-4,2.68e-4 -10e-4,5.17e-4 1.58e-4,5.09e-4 3.48e-4,0.001 5.17e-4,0.0015 -0.0051,0.0029 -0.01004,0.0066 -0.01499,0.0098 0.0052,8.95e-4 0.01056,0.0015 0.01602,0.0026 0.02985,0.006 0.08905,0.01838 0.103353,0.05581 0.007,0.01852 0.0062,0.04143 -0.0021,0.05943 -0.0092,0.02002 -0.03135,0.031 -0.04702,0.04651 -0.02151,0.01032 -0.04238,0.02231 -0.0646,0.03101 -0.03048,0.01194 -0.07199,0.02357 -0.109037,0.02946 0.0028,0.01265 0.0032,0.0262 0.0062,0.03876 -0.0052,5.63e-4 -0.01077,0.0011 -0.01602,0.0016 -0.0031,0.003 -0.0081,0.0023 -0.01344,10e-4 h -5.16e-4 c -0.0096,6.81e-4 -0.01928,0.0016 -0.02894,0.0021 -0.0091,4.2e-4 -0.02009,0.0065 -0.02739,10e-4 -0.0059,-0.0045 -0.011,-0.0084 -0.0155,-0.01189 -0.01165,-0.0017 -0.02203,-0.0038 -0.02945,-0.0062 -0.01261,-0.004 -0.02716,-0.0074 -0.03566,-0.01757 -0.0052,-0.0062 -0.0082,-0.01379 -0.01033,-0.0217 -0.01036,7.61e-4 -0.02231,0.0047 -0.02946,-0.0021 -0.01187,-0.01106 -0.01415,-0.02955 -0.01705,-0.04547 -7e-4,-0.004 0.0044,-0.0071 0.0067,-0.01034 0.0031,-0.0043 0.0065,-0.0083 0.0098,-0.0124 0.0021,-0.0025 0.0034,-0.0061 0.0062,-0.0078 0.0019,-0.0012 0.0045,1.29e-4 0.0067,0 -5e-4,-0.0028 7.47e-4,-0.0068 -0.0016,-0.0088 -0.0034,-0.0032 -0.0074,-0.006 -0.01189,-0.0083 h -5.17e-4 c -0.02582,9.05e-4 -0.05169,0.0014 -0.07752,0.0016 -8.06e-4,0.0017 -0.0018,0.0034 -0.0026,0.0052 0.01956,0.04699 0.03511,0.0955 0.04858,0.144694 0.0068,0.02075 0.01447,0.04173 0.02377,0.06149 0.0074,0.01576 0.01724,0.03089 0.02584,0.04599 0.02164,0.03852 0.03706,0.07958 0.04909,0.121957 0.0098,0.04553 0.01549,0.05084 -0.07596,0.05684 -5.2e-4,3e-5 -0.02335,-0.05115 -0.03411,-0.07286 -0.01531,-0.02941 -0.03064,-0.05924 -0.04547,-0.08888 -0.0072,0.007 -0.01689,0.01221 -0.03049,0.01395 -0.0175,0.0022 -0.03239,-0.01419 -0.04858,-0.02119 -0.0076,-0.01134 -0.01624,-0.02211 -0.02274,-0.03411 -0.0066,-0.01218 -0.01973,-0.04376 -0.02946,-0.06821 0.0011,0.01346 0.0017,0.02731 0.0021,0.04082 -0.0054,0.0572 0.0082,0.06366 -0.08216,0.05426 -0.0079,-8.2e-4 -0.0088,-0.01285 -0.01189,-0.02015 -0.0069,-0.01622 -0.01374,-0.05271 -0.01654,-0.06718 -0.0035,-0.01785 -0.0066,-0.03584 -0.0098,-0.05374 -0.0043,-0.02667 -0.0084,-0.05335 -0.0124,-0.0801 -0.01214,-7.4e-5 -0.02732,-4.12e-4 -0.04806,0 h -5.17e-4 c -0.0098,0.0018 -0.02023,0.0013 -0.03152,-0.0031 -0.04223,-0.01663 -0.04036,-0.04458 -0.04806,-0.07958 6e-4,-0.02245 -8.3e-4,-0.04505 0.0072,-0.06666 0.0041,-0.01093 0.0086,-0.02301 0.01705,-0.03101 0.01283,-0.01209 0.02608,-0.01954 0.03979,-0.0217 -0.0011,-0.01499 -0.0021,-0.03056 -0.0021,-0.03772 1e-4,-0.0063 0.0015,-0.01282 0.0021,-0.01912 0.0152,-6.82e-4 0.03067,-0.0039 0.04599,-0.0057 0.0017,-0.0099 0.0042,-0.01971 0.0067,-0.02946 -0.03057,-0.03551 -0.01725,-0.07171 0.01292,-0.07648 0.01525,-0.0024 0.03466,0.0036 0.05529,0.02119 0.0054,0.0046 0.01081,0.0092 0.01602,0.01395 0.0022,0.0013 0.0046,0.0024 0.0067,0.0036 0.0088,0.0049 0.01542,0.01275 0.02222,0.02015 0.0096,0.01032 0.01843,0.0214 0.02635,0.03307 0.0099,0.01135 0.01967,0.02269 0.02894,0.03462 0.02052,0.02519 0.03651,0.05252 0.05116,0.08062 0.01254,-0.0039 0.02407,-0.0071 0.02997,-0.0088 h 5.17e-4 c 2.47e-4,-0.01116 9.02e-4,-0.02325 0.0031,-0.03462 -0.0019,-0.0024 -0.004,-0.0052 -0.0057,-0.0083 v -5.17e-4 l -5.17e-4,-5.16e-4 c -0.0039,-0.0044 -0.0083,-0.0085 -0.01292,-0.01189 -0.0018,0.0014 -0.0034,0.0027 -0.0052,0.0041 -0.0018,0.0015 0.0034,-0.0054 0.0052,-0.0041 0.0033,-0.0026 0.0065,-0.0051 0.0098,-0.0078 7.87e-4,-0.0054 0.0024,-0.01075 0.0026,-0.01602 0.0047,-0.01107 0.01192,-0.03362 0.02325,-0.04082 0.01723,-0.01097 0.02951,-0.01349 0.03824,-0.0072 -0.0013,-0.0071 -7.75e-4,-0.01349 0.001,-0.01912 -0.0067,-0.0014 -0.0183,4.34e-4 -0.01912,-0.0062 -0.0057,-0.04606 -10e-7,-0.05803 0.01602,-0.05943 z m 0.411345,0.126608 c 4.75e-4,0.002 7.28e-4,0.0038 0.0016,0.0057 0.0072,-0.0029 0.0101,-0.0032 -0.0016,-0.0057 z m -0.44235,0.0708 c -0.0041,0.004 -0.0081,0.0081 -0.01189,0.01137 0.0026,-7.12e-4 0.005,-0.0013 0.0078,-0.0021 0.0017,-0.0029 0.0035,-0.0059 0.0052,-0.0088 -3.02e-4,-1.88e-4 -8.02e-4,-3.22e-4 -0.001,-5.17e-4 z m 0.409794,0.09302 c -7.9e-5,0.005 -9.34e-4,0.0097 -0.0021,0.01447 0.0083,0.0014 0.01624,0.0032 0.02377,0.0067 0.0101,0.0047 0.01901,0.01048 0.02532,0.01757 h 5.17e-4 c 0.0048,-5.72e-4 0.01038,-2.27e-4 0.01085,-0.0041 9e-4,-0.0077 -0.0056,-0.01594 -0.0124,-0.01964 -0.01419,-0.0078 -0.03007,-0.01157 -0.04599,-0.01499 z m -0.740524,0.0072 c -0.0045,0.002 -0.0085,0.0049 -0.0124,0.0078 -0.0021,0.0016 0.0059,-1.34e-4 0.0078,-0.0021 0.0014,-0.0014 0.0029,-0.0034 0.0047,-0.0057 z m 0.656808,0.05684 c -0.01664,0.0056 -0.03312,0.0114 -0.04961,0.01757 0.0021,-3.62e-4 0.0041,-5.62e-4 0.0062,-10e-4 0.01842,-0.0015 0.03692,-0.0027 0.05529,-0.0047 0.01499,-0.0017 0.03002,-0.0046 0.04496,-0.0067 -0.02879,-0.0029 -0.04089,-0.0045 -0.05684,-0.0052 z m -0.468705,0.201021 c 4.4e-4,0.0012 0.0011,0.0024 0.0015,0.0036 4.22e-4,0.0011 0.0011,-0.0036 0,-0.0036 -5.73e-4,-3.2e-5 -10e-4,3.1e-5 -0.0015,0 z m 0.0708,0.01964 c -6.41e-4,8.64e-4 -0.0014,0.0017 -0.0021,0.0026 -5e-4,7e-4 0.0015,0.0025 0.0016,0.0015 1.68e-4,-0.0014 4.4e-4,-0.0027 5.16e-4,-0.0041 z"
       clip-path="url(#clipPath1446)"
       transform="translate(9.7660308,4.8830154)" />
    <path
       style="fill:none;stroke:#000000;stroke-width:0.339564"
       d="m 25.530644,14.857493 h 12.287104 l 6.21676,10.444836 -6.637337,11.151448 H 25.091818 L 19.469941,25.518583 Z"
       id="path1038"
       sodipodi:nodetypes="ccccccc" />
    <path
       id="path1038-0"
       style="fill:none;stroke:#000000;stroke-width:0.339564"
       d="m 55.983146,10.669116 -6.060612,10.661365 5.621879,10.93525 H 67.849605 L 74.486926,21.113957 68.213407,10.851534 c -0.0016,0.002 -0.0031,0.0042 -0.0046,0.0062 -0.0284,0.05035 -0.05799,0.100043 -0.08888,0.148828 -0.01723,0.02722 -0.03581,0.05333 -0.05374,0.0801 -0.04881,0.05555 -0.05072,0.09415 -0.120407,0.0062 -0.0062,-0.0078 0.0068,-0.0188 0.01085,-0.0279 0.0083,-0.01825 0.01734,-0.03636 0.02635,-0.05426 -4.04e-4,-3.33e-4 -6.26e-4,-6.95e-4 -0.001,-10e-4 -0.0062,-0.0051 0.0064,-0.0147 0.01033,-0.0217 0.0049,-0.0089 0.0099,-0.01754 0.01499,-0.02635 6.67e-4,-0.0014 0.0014,-0.0028 0.0021,-0.0041 0.0017,-0.0036 0.0035,-0.0073 0.0052,-0.01085 0.01349,-0.02878 0.02613,-0.05788 0.03927,-0.08682 0.02301,-0.05213 0.04639,-0.104157 0.06873,-0.156579 l -0.02067,-0.03411 h -0.0677 c 0.02032,0.0085 0.03884,0.02108 0.04599,0.03979 0.007,0.01852 0.0062,0.04143 -0.0021,0.05943 -0.0092,0.02002 -0.03135,0.031 -0.04702,0.04651 -0.02151,0.01032 -0.04238,0.02231 -0.0646,0.03101 -0.03048,0.01194 -0.07199,0.02357 -0.109037,0.02946 0.0028,0.01265 0.0032,0.0262 0.0062,0.03876 -0.0052,5.63e-4 -0.01077,0.0011 -0.01602,0.0016 -0.0031,0.003 -0.0081,0.0023 -0.01344,10e-4 h -5.16e-4 c -0.0096,6.81e-4 -0.01928,0.0016 -0.02894,0.0021 -0.0091,4.2e-4 -0.02009,0.0065 -0.02739,10e-4 -0.0059,-0.0045 -0.011,-0.0084 -0.0155,-0.01189 -0.01165,-0.0017 -0.02203,-0.0038 -0.02945,-0.0062 -0.01261,-0.004 -0.02716,-0.0074 -0.03566,-0.01757 -0.0052,-0.0062 -0.0082,-0.01379 -0.01033,-0.0217 -0.01036,7.61e-4 -0.02231,0.0047 -0.02946,-0.0021 -0.01187,-0.01106 -0.01415,-0.02955 -0.01705,-0.04547 -7e-4,-0.004 0.0044,-0.0071 0.0067,-0.01034 0.0031,-0.0043 0.0065,-0.0083 0.0098,-0.0124 0.0021,-0.0025 0.0034,-0.0061 0.0062,-0.0078 0.0019,-0.0012 0.0045,1.29e-4 0.0067,0 -5e-4,-0.0028 7.47e-4,-0.0068 -0.0016,-0.0088 -0.0034,-0.0032 -0.0074,-0.006 -0.01189,-0.0083 H 67.6553 c -0.02582,9.05e-4 -0.05169,0.0014 -0.07752,0.0016 -8.06e-4,0.0017 -0.0018,0.0034 -0.0026,0.0052 0.01956,0.04699 0.03511,0.0955 0.04858,0.144694 0.0068,0.02075 0.01447,0.04173 0.02377,0.06149 0.0074,0.01576 0.01724,0.03089 0.02584,0.04599 0.02164,0.03852 0.03706,0.07958 0.04909,0.121957 0.0098,0.04553 0.01549,0.05084 -0.07596,0.05684 -5.2e-4,3e-5 -0.02335,-0.05115 -0.03411,-0.07286 -0.01531,-0.02941 -0.03064,-0.05924 -0.04547,-0.08888 -0.0072,0.007 -0.01689,0.01221 -0.03049,0.01395 -0.0175,0.0022 -0.03239,-0.01419 -0.04858,-0.02119 -0.0076,-0.01134 -0.01624,-0.02211 -0.02274,-0.03411 -0.0066,-0.01218 -0.01973,-0.04376 -0.02946,-0.06821 0.0011,0.01346 0.0017,0.02731 0.0021,0.04082 -0.0054,0.0572 0.0082,0.06366 -0.08216,0.05426 -0.0079,-8.2e-4 -0.0088,-0.01285 -0.01189,-0.02015 -0.0069,-0.01622 -0.01374,-0.05271 -0.01654,-0.06718 -0.0035,-0.01785 -0.0066,-0.03584 -0.0098,-0.05374 -0.0043,-0.02667 -0.0084,-0.05335 -0.0124,-0.0801 -0.01214,-7.4e-5 -0.02732,-4.12e-4 -0.04806,0 h -5.17e-4 c -0.0098,0.0018 -0.02023,0.0013 -0.03152,-0.0031 -0.04223,-0.01663 -0.04036,-0.04458 -0.04806,-0.07958 5.02e-4,-0.01878 -2.49e-4,-0.03749 0.0041,-0.05581 z m 11.995134,0.04444 c -7.9e-5,0.005 -9.34e-4,0.0097 -0.0021,0.01447 0.0083,0.0014 0.01624,0.0032 0.02377,0.0067 0.0101,0.0047 0.01901,0.01048 0.02532,0.01757 h 5.17e-4 c 0.0048,-5.72e-4 0.01038,-2.27e-4 0.01085,-0.0041 9e-4,-0.0077 -0.0056,-0.01594 -0.0124,-0.01964 -0.01419,-0.0078 -0.03007,-0.01157 -0.04599,-0.01499 z m -0.740524,0.0072 c -0.0045,0.002 -0.0085,0.0049 -0.0124,0.0078 -0.0021,0.0016 0.0059,-1.34e-4 0.0078,-0.0021 0.0014,-0.0014 0.0029,-0.0034 0.0047,-0.0057 z m 0.656808,0.05684 c -0.01664,0.0056 -0.03312,0.0114 -0.04961,0.01757 0.0021,-3.62e-4 0.0041,-5.62e-4 0.0062,-10e-4 0.01842,-0.0015 0.03692,-0.0027 0.05529,-0.0047 0.01499,-0.0017 0.03002,-0.0046 0.04496,-0.0067 -0.02879,-0.0029 -0.04089,-0.0045 -0.05684,-0.0052 z m -0.468705,0.201021 c 4.4e-4,0.0012 0.0011,0.0024 0.0015,0.0036 4.22e-4,0.0011 0.0011,-0.0036 0,-0.0036 -5.73e-4,-3.2e-5 -10e-4,3.1e-5 -0.0015,0 z m 0.0708,0.01964 c -6.41e-4,8.64e-4 -0.0014,0.0017 -0.0021,0.0026 -5e-4,7e-4 0.0015,0.0025 0.0016,0.0015 1.68e-4,-0.0014 4.4e-4,-0.0027 5.16e-4,-0.0041 z"
       clip-path="url(#clipPath1456)"
       transform="translate(9.7660308,4.8830154)" />
    <path
       style="fill:none;stroke:#000000;stroke-width:0.339564"
       d="m 44.180716,25.286298 15.358879,0.851333"
       id="path1072" />
    <path
       style="fill:none;stroke:#000000;stroke-width:0.339564"
       d="M 25.311233,14.644658 22.020044,11.664997"
       id="path1074" />
    <path
       style="fill:none;stroke:#000000;stroke-width:0.339564"
       d="M 65.683151,15.49599 61.733724,12.303498"
       id="path1076" />
  </g>
</svg>
