<?xml version="1.0" encoding="UTF-8" standalone="no"?>
<!-- Created with Inkscape (http://www.inkscape.org/) -->

<svg
   width="300"
   height="200"
   viewBox="0 0 79.375 52.916665"
   version="1.1"
   id="svg423"
   inkscape:version="1.2.2 (b0a8486541, 2022-12-01)"
   sodipodi:docname="biologia_szukcesszio-erdosules.svg"
   xmlns:inkscape="http://www.inkscape.org/namespaces/inkscape"
   xmlns:sodipodi="http://sodipodi.sourceforge.net/DTD/sodipodi-0.dtd"
   xmlns="http://www.w3.org/2000/svg"
   xmlns:svg="http://www.w3.org/2000/svg">
  <sodipodi:namedview
     id="namedview425"
     pagecolor="#ffffff"
     bordercolor="#000000"
     borderopacity="0.25"
     inkscape:showpageshadow="2"
     inkscape:pageopacity="0.0"
     inkscape:pagecheckerboard="0"
     inkscape:deskcolor="#d1d1d1"
     inkscape:document-units="mm"
     showgrid="false"
     inkscape:zoom="4"
     inkscape:cx="133.125"
     inkscape:cy="95.125"
     inkscape:window-width="1920"
     inkscape:window-height="1008"
     inkscape:window-x="0"
     inkscape:window-y="0"
     inkscape:window-maximized="1"
     inkscape:current-layer="layer1" />
  <defs
     id="defs420" />
  <g
     inkscape:label="Layer 1"
     inkscape:groupmode="layer"
     id="layer1">
    <path
       style="fill:none;stroke:#1a1a1a;stroke-width:0.264583;stroke-dasharray:0.264583, 0.264583"
       d="m 3.963715,13.983594 h 6.90357"
       id="path342" />
    <path
       style="fill:none;stroke:#1a1a1a;stroke-width:0.264583;stroke-dasharray:none"
       d="M 3.9730698,13.096207 H 10.87664"
       id="path342-6" />
    <path
       style="fill:none;stroke:#1a1a1a;stroke-width:0.264583;stroke-dasharray:0.264583, 0.264583"
       d="M 3.8795255,15.376123 H 10.783095"
       id="path342-3" />
    <path
       style="fill:none;stroke:#1a1a1a;stroke-width:0.264583;stroke-dasharray:0.264583, 0.264583"
       d="m 27.85585,14.078422 h 6.90357"
       id="path342-7" />
    <path
       style="fill:none;stroke:#1a1a1a;stroke-width:0.264583;stroke-dasharray:none"
       d="m 27.865205,13.191035 h 6.90357"
       id="path342-6-5" />
    <path
       style="fill:none;stroke:#1a1a1a;stroke-width:0.264583;stroke-dasharray:0.264583, 0.264583"
       d="m 27.77166,15.470951 h 6.90357"
       id="path342-3-3" />
    <text
       xml:space="preserve"
       style="font-size:2.82223px;fill:none;stroke:#1a1a1a;stroke-width:0.264583;stroke-dasharray:none"
       x="2.8811646"
       y="10.832429"
       id="text1193"><tspan
         sodipodi:role="line"
         id="tspan1191"
         style="stroke-width:0.264583"
         x="2.8811646"
         y="10.832429">homok</tspan></text>
    <text
       xml:space="preserve"
       style="font-size:2.82223px;fill:none;stroke:#1a1a1a;stroke-width:0.264583;stroke-dasharray:none"
       x="22.629473"
       y="5.2758999"
       id="text2019"><tspan
         sodipodi:role="line"
         id="tspan2017"
         style="stroke-width:0.264583"
         x="22.629473"
         y="5.2758999">pionirok</tspan><tspan
         sodipodi:role="line"
         style="stroke-width:0.264583"
         x="22.629473"
         y="8.8036871"
         id="tspan2021">(moha, zumók)</tspan></text>
    <path
       style="fill:none;stroke:#1a1a1a;stroke-width:0.0781751;stroke-dasharray:none"
       d="m 29.283082,13.23037 c -0.220426,-0.03986 -0.441666,-0.08271 -0.696506,-0.248752 -0.115244,-0.248892 -0.145397,-0.511967 -0.04975,-0.796007 0.227509,0.06839 0.463989,0.100897 0.646756,0.348253 0.09104,0.179117 0.148286,0.389215 0.0995,0.696506 z"
       id="path2077"
       sodipodi:nodetypes="ccccc" />
    <path
       style="fill:none;stroke:#1a1a1a;stroke-width:0.0781751;stroke-dasharray:none"
       d="m 29.518476,13.15761 c 0.220426,-0.03986 0.441666,-0.08271 0.696506,-0.248752 0.115244,-0.248892 0.145397,-0.511967 0.04975,-0.796007 -0.227509,0.06839 -0.463989,0.100897 -0.646756,0.348253 -0.09104,0.179117 -0.148286,0.389215 -0.0995,0.696506 z"
       id="path2077-5"
       sodipodi:nodetypes="ccccc" />
    <path
       style="fill:none;stroke:#1a1a1a;stroke-width:0.264583;stroke-dasharray:0.264583, 0.264583"
       d="m 12.235739,46.797973 h 6.903572"
       id="path342-7-0" />
    <path
       style="fill:none;stroke:#1a1a1a;stroke-width:0.264583;stroke-dasharray:none"
       d="m 12.245094,45.910586 h 6.903572"
       id="path342-6-5-6" />
    <path
       style="fill:none;stroke:#1a1a1a;stroke-width:0.264583;stroke-dasharray:none"
       d="m 12.232402,46.556868 h 6.903572"
       id="path342-6-5-6-8" />
    <path
       style="fill:none;stroke:#1a1a1a;stroke-width:0.264583;stroke-dasharray:0.264583, 0.264583"
       d="m 12.151549,48.190502 h 6.903572"
       id="path342-3-3-2" />
    <path
       style="fill:none;stroke:#1a1a1a;stroke-width:0.264583;stroke-dasharray:0.264583, 0.264583"
       d="m 12.232402,46.262203 h 6.903572"
       id="path342-3-3-2-7" />
    <path
       style="fill:none;stroke:#1a1a1a;stroke-width:0.0781751;stroke-dasharray:none"
       d="m 12.652692,45.823637 c -0.220426,-0.03986 -0.441666,-0.08271 -0.696507,-0.248752 -0.115244,-0.248892 -0.145397,-0.511967 -0.04975,-0.796007 0.22751,0.06839 0.46399,0.100897 0.646757,0.348253 0.09104,0.179117 0.148286,0.389215 0.0995,0.696506 z"
       id="path2077-6"
       sodipodi:nodetypes="ccccc" />
    <path
       style="fill:none;stroke:#1a1a1a;stroke-width:0.0781751;stroke-dasharray:none"
       d="m 18.128909,45.814018 c 0.220426,-0.03986 0.441666,-0.08271 0.696506,-0.248752 0.115244,-0.248892 0.145397,-0.511967 0.04975,-0.796007 -0.227509,0.06839 -0.463989,0.100897 -0.646756,0.348253 -0.09104,0.179117 -0.148286,0.389215 -0.0995,0.696506 z"
       id="path2077-5-1"
       sodipodi:nodetypes="ccccc" />
    <path
       style="fill:none;stroke:#1a1a1a;stroke-width:0.0781751;stroke-dasharray:none"
       d="m 12.716705,45.756972 c 0.220426,-0.03986 0.441666,-0.08271 0.696506,-0.248752 0.115244,-0.248892 0.145397,-0.511967 0.04975,-0.796007 -0.227509,0.06839 -0.463989,0.100897 -0.646756,0.348253 -0.09104,0.179117 -0.148286,0.389215 -0.0995,0.696506 z"
       id="path2077-5-1-5"
       sodipodi:nodetypes="ccccc" />
    <path
       style="fill:none;stroke:#1a1a1a;stroke-width:0.0781751;stroke-dasharray:none"
       d="m 14.488392,45.828431 c -0.220426,-0.03986 -0.441666,-0.08271 -0.696506,-0.248752 -0.115244,-0.248892 -0.145397,-0.511967 -0.04975,-0.796007 0.227509,0.06839 0.463989,0.100897 0.646756,0.348253 0.09104,0.179117 0.148286,0.389215 0.0995,0.696506 z"
       id="path2077-6-9"
       sodipodi:nodetypes="ccccc" />
    <path
       style="fill:none;stroke:#1a1a1a;stroke-width:0.0781751;stroke-dasharray:none"
       d="m 14.576454,45.797765 c 0.220427,-0.03986 0.441667,-0.08271 0.696507,-0.248752 0.115244,-0.248892 0.145397,-0.511967 0.04975,-0.796007 -0.227509,0.06839 -0.463989,0.100897 -0.646757,0.348253 -0.09104,0.179117 -0.148286,0.389215 -0.0995,0.696506 z"
       id="path2077-5-1-2"
       sodipodi:nodetypes="ccccc" />
    <path
       style="fill:none;stroke:#1a1a1a;stroke-width:0.0781751;stroke-dasharray:none"
       d="M 16.298476,45.83077 C 16.07805,45.79091 15.85681,45.74806 15.60197,45.582018 c -0.115244,-0.248892 -0.145397,-0.511967 -0.04975,-0.796007 0.227509,0.06839 0.463989,0.100897 0.646756,0.348253 0.09104,0.179117 0.148286,0.389215 0.0995,0.696506 z"
       id="path2077-6-0"
       sodipodi:nodetypes="ccccc" />
    <path
       style="fill:none;stroke:#1a1a1a;stroke-width:0.0781751;stroke-dasharray:none"
       d="m 18.076372,45.836485 c -0.220426,-0.03986 -0.441666,-0.08271 -0.696506,-0.248752 -0.115244,-0.248892 -0.145397,-0.511967 -0.04975,-0.796007 0.227509,0.06839 0.463989,0.100897 0.646756,0.348253 0.09104,0.179117 0.148286,0.389215 0.0995,0.696506 z"
       id="path2077-6-0-7"
       sodipodi:nodetypes="ccccc" />
    <path
       style="fill:none;stroke:#1a1a1a;stroke-width:0.0781751;stroke-dasharray:none"
       d="m 16.407585,45.842199 c 0.220426,-0.03986 0.441666,-0.08271 0.696506,-0.248752 0.115244,-0.248892 0.145397,-0.511967 0.04975,-0.796007 -0.227509,0.06839 -0.463989,0.100897 -0.646756,0.348253 -0.09104,0.179117 -0.148286,0.389215 -0.0995,0.696506 z"
       id="path2077-5-1-23"
       sodipodi:nodetypes="ccccc" />
    <path
       style="fill:none;stroke:#1a1a1a;stroke-width:0.264583;stroke-dasharray:0.264583, 0.264583"
       d="m 36.748412,47.438517 h 6.90357"
       id="path342-7-0-9" />
    <path
       style="fill:none;stroke:#1a1a1a;stroke-width:0.264583;stroke-dasharray:none"
       d="m 36.757767,46.55113 h 6.90357"
       id="path342-6-5-6-2" />
    <path
       style="fill:none;stroke:#1a1a1a;stroke-width:0.264583;stroke-dasharray:none"
       d="m 36.745075,47.197412 h 6.90357"
       id="path342-6-5-6-8-2" />
    <path
       style="fill:none;stroke:#1a1a1a;stroke-width:0.264583;stroke-dasharray:0.264583, 0.264583"
       d="m 36.832601,47.820765 h 6.90357"
       id="path342-3-3-2-8" />
    <path
       style="fill:none;stroke:#1a1a1a;stroke-width:0.264583;stroke-dasharray:0.264583, 0.264583"
       d="m 36.745075,46.902747 h 6.90357"
       id="path342-3-3-2-7-9" />
    <path
       style="fill:none;stroke:#1a1a1a;stroke-width:0.0781751;stroke-dasharray:none"
       d="m 37.165365,46.464181 c -0.220426,-0.03986 -0.441666,-0.08271 -0.696506,-0.248752 -0.115244,-0.248892 -0.145397,-0.511967 -0.04975,-0.796007 0.227509,0.06839 0.463989,0.100897 0.646756,0.348253 0.09104,0.179117 0.148286,0.389215 0.0995,0.696506 z"
       id="path2077-6-7"
       sodipodi:nodetypes="ccccc" />
    <path
       style="fill:none;stroke:#1a1a1a;stroke-width:0.0781751;stroke-dasharray:none"
       d="m 37.229378,46.397516 c 0.220426,-0.03986 0.441666,-0.08271 0.696506,-0.248752 0.115244,-0.248892 0.145397,-0.511967 0.04975,-0.796007 -0.227509,0.06839 -0.463989,0.100897 -0.646756,0.348253 -0.09104,0.179117 -0.148286,0.389215 -0.0995,0.696506 z"
       id="path2077-5-1-5-6"
       sodipodi:nodetypes="ccccc" />
    <path
       style="fill:none;stroke:#1a1a1a;stroke-width:0.0781751;stroke-dasharray:none"
       d="m 39.001064,46.468975 c -0.220426,-0.03986 -0.441666,-0.08271 -0.696506,-0.248752 -0.115244,-0.248892 -0.145397,-0.511967 -0.04975,-0.796007 0.227509,0.06839 0.463989,0.100897 0.646756,0.348253 0.09104,0.179117 0.148286,0.389215 0.0995,0.696506 z"
       id="path2077-6-9-1"
       sodipodi:nodetypes="ccccc" />
    <path
       style="fill:none;stroke:#1a1a1a;stroke-width:0.0781751;stroke-dasharray:none"
       d="m 39.089126,46.438309 c 0.220426,-0.03986 0.441666,-0.08271 0.696506,-0.248752 0.115244,-0.248892 0.145397,-0.511967 0.04975,-0.796007 -0.227509,0.06839 -0.463989,0.100897 -0.646756,0.348253 -0.09104,0.179117 -0.148286,0.389215 -0.0995,0.696506 z"
       id="path2077-5-1-2-2"
       sodipodi:nodetypes="ccccc" />
    <path
       style="fill:none;stroke:#1a1a1a;stroke-width:0.0781751;stroke-dasharray:none"
       d="m 40.811147,46.471314 c -0.220426,-0.03986 -0.441666,-0.08271 -0.696506,-0.248752 -0.115244,-0.248892 -0.145397,-0.511967 -0.04975,-0.796007 0.227509,0.06839 0.463989,0.100897 0.646756,0.348253 0.09104,0.179117 0.148286,0.389215 0.0995,0.696506 z"
       id="path2077-6-0-9"
       sodipodi:nodetypes="ccccc" />
    <path
       style="fill:none;stroke:#1a1a1a;stroke-width:0.0781751;stroke-dasharray:none"
       d="m 40.920256,46.482743 c 0.220426,-0.03986 0.441666,-0.08271 0.696506,-0.248752 0.115244,-0.248892 0.145397,-0.511967 0.04975,-0.796007 -0.227509,0.06839 -0.463989,0.100897 -0.646756,0.348253 -0.09104,0.179117 -0.148286,0.389215 -0.0995,0.696506 z"
       id="path2077-5-1-23-1"
       sodipodi:nodetypes="ccccc" />
    <path
       style="fill:none;stroke:#1a1a1a;stroke-width:0.264583;stroke-dasharray:0.264583, 0.264583"
       d="m 53.934074,14.79662 h 6.90357"
       id="path342-7-6" />
    <path
       style="fill:none;stroke:#1a1a1a;stroke-width:0.264583;stroke-dasharray:none"
       d="m 53.943429,13.909233 h 6.90357"
       id="path342-6-5-2" />
    <path
       style="fill:none;stroke:#1a1a1a;stroke-width:0.264583;stroke-dasharray:none"
       d="m 53.896656,14.155208 h 6.90357"
       id="path342-6-5-2-7" />
    <path
       style="fill:none;stroke:#1a1a1a;stroke-width:0.264583;stroke-dasharray:0.264583, 0.264583"
       d="m 53.849884,16.189149 h 6.90357"
       id="path342-3-3-9" />
    <path
       style="fill:none;stroke:#1a1a1a;stroke-width:0.0781751;stroke-dasharray:none"
       d="m 55.361306,13.948568 c -0.220426,-0.03986 -0.441666,-0.08271 -0.696506,-0.248752 -0.115244,-0.248892 -0.145397,-0.511967 -0.04975,-0.796007 0.227509,0.06839 0.463989,0.100897 0.646756,0.348253 0.09104,0.179117 0.148286,0.389215 0.0995,0.696506 z"
       id="path2077-1"
       sodipodi:nodetypes="ccccc" />
    <path
       style="fill:none;stroke:#1a1a1a;stroke-width:0.0781751;stroke-dasharray:none"
       d="m 55.5967,13.875808 c 0.220426,-0.03986 0.441666,-0.08271 0.696506,-0.248752 0.115244,-0.248892 0.145397,-0.511967 0.04975,-0.796007 -0.227509,0.06839 -0.463989,0.100897 -0.646756,0.348253 -0.09104,0.179117 -0.148286,0.389215 -0.0995,0.696506 z"
       id="path2077-5-2"
       sodipodi:nodetypes="ccccc" />
    <path
       style="fill:none;stroke:#1a1a1a;stroke-width:0.0781751;stroke-dasharray:none"
       d="m 57.749517,14.017506 c 0.220426,-0.03986 0.441666,-0.08271 0.696506,-0.248752 0.115244,-0.248892 0.145397,-0.511967 0.04975,-0.796007 -0.227509,0.06839 -0.463989,0.100897 -0.646756,0.348253 -0.09104,0.179117 -0.148286,0.389215 -0.0995,0.696506 z"
       id="path2077-5-2-0"
       sodipodi:nodetypes="ccccc" />
    <path
       style="fill:none;stroke:#1a1a1a;stroke-width:0.0781751;stroke-dasharray:none"
       d="m 59.93233,14.09688 c 0.220426,-0.03986 0.441666,-0.08271 0.696506,-0.248752 0.115244,-0.248892 0.145397,-0.511967 0.04975,-0.796007 -0.227509,0.06839 -0.463989,0.100897 -0.646756,0.348253 -0.09104,0.179117 -0.148286,0.389215 -0.0995,0.696506 z"
       id="path2077-5-2-9"
       sodipodi:nodetypes="ccccc" />
    <text
       xml:space="preserve"
       style="font-size:2.82223px;fill:none;stroke:#1a1a1a;stroke-width:0.264583;stroke-dasharray:none"
       x="51.765732"
       y="3.9952078"
       id="text2449"><tspan
         sodipodi:role="line"
         id="tspan2447"
         style="stroke-width:0.264583"
         x="51.765732"
         y="3.9952078">gyep</tspan><tspan
         sodipodi:role="line"
         style="stroke-width:0.264583"
         x="51.765732"
         y="7.5229955"
         id="tspan2451">(nyílt homoki</tspan><tspan
         sodipodi:role="line"
         style="stroke-width:0.264583"
         x="51.765732"
         y="11.050783"
         id="tspan2453">gyep)</tspan></text>
    <path
       style="fill:none;stroke:#1a1a1a;stroke-width:0.264583;stroke-dasharray:none"
       d="m 60.470517,14.234582 6.548438,4.048126"
       id="path2455" />
    <text
       xml:space="preserve"
       style="font-size:2.82223px;fill:none;stroke:#1a1a1a;stroke-width:0.264583;stroke-dasharray:none"
       x="63.208958"
       y="19.711458"
       id="text2459"><tspan
         sodipodi:role="line"
         id="tspan2457"
         style="stroke-width:0.264583"
         x="63.208958"
         y="19.711458">humusz</tspan></text>
    <text
       xml:space="preserve"
       style="font-size:2.82223px;fill:none;stroke:#1a1a1a;stroke-width:0.264583;stroke-dasharray:none"
       x="11.448962"
       y="35.860073"
       id="text2707"><tspan
         sodipodi:role="line"
         id="tspan2705"
         style="stroke-width:0.264583"
         x="11.448962"
         y="35.860073">zárt gyep</tspan></text>
    <path
       style="fill:none;stroke:#1a1a1a;stroke-width:0.153272;stroke-dasharray:none"
       d="m 41.520358,46.516732 c 0.891077,-0.975418 0.757472,-1.950835 0.634022,-2.926253 -0.864482,0.152991 -1.372022,-0.526881 -1.853294,-1.268041 -0.02846,-1.4252 1.025868,-1.887927 2.145919,-2.292233 0.990863,0.423402 2.220744,0.634345 2.097148,2.048378 -0.168615,1.176181 -1.005747,1.182453 -1.658211,1.511896 -0.160828,1.01381 -0.406768,2.038259 0.438939,2.926253 z"
       id="path2709"
       sodipodi:nodetypes="cccccccc" />
    <path
       style="fill:none;stroke:#1a1a1a;stroke-width:0.264583;stroke-dasharray:0.264583, 0.264583"
       d="m 61.170622,47.843672 h 6.90357"
       id="path342-7-0-9-9" />
    <path
       style="fill:none;stroke:#1a1a1a;stroke-width:0.264583;stroke-dasharray:none"
       d="m 61.179977,46.956285 h 6.90357"
       id="path342-6-5-6-2-4" />
    <path
       style="fill:none;stroke:#1a1a1a;stroke-width:0.264583;stroke-dasharray:none"
       d="m 61.167285,47.602567 h 6.90357"
       id="path342-6-5-6-8-2-7" />
    <path
       style="fill:none;stroke:#1a1a1a;stroke-width:0.264583;stroke-dasharray:none"
       d="m 61.254811,48.22592 h 6.90357"
       id="path342-3-3-2-8-8" />
    <path
       style="fill:none;stroke:#1a1a1a;stroke-width:0.264583;stroke-dasharray:none"
       d="m 61.167285,47.307902 h 6.90357"
       id="path342-3-3-2-7-9-4" />
    <path
       style="fill:none;stroke:#1a1a1a;stroke-width:0.153272;stroke-dasharray:none"
       d="m 65.942568,46.921887 c 0.891077,-0.975418 0.757472,-1.950835 0.634022,-2.926253 -0.864482,0.152991 -1.372022,-0.526881 -1.853294,-1.268041 -0.02846,-1.4252 1.025868,-1.887927 2.145919,-2.292233 0.990863,0.423402 2.220744,0.634345 2.097148,2.048378 -0.168615,1.176181 -1.005747,1.182453 -1.658211,1.511896 -0.160828,1.01381 -0.406768,2.038259 0.438939,2.926253 z"
       id="path2709-6"
       sodipodi:nodetypes="cccccccc" />
    <path
       style="fill:none;stroke:#1a1a1a;stroke-width:0.153272;stroke-dasharray:none"
       d="m 63.253267,47.021753 c 0.891077,-0.975418 0.757472,-1.950835 0.634022,-2.926253 -0.864482,0.152991 -1.372022,-0.526881 -1.853294,-1.268041 -0.02846,-1.4252 1.025868,-1.887927 2.145919,-2.292233 0.990863,0.423402 2.220744,0.634345 2.097148,2.048378 -0.168615,1.176181 -1.005747,1.182453 -1.658211,1.511896 -0.160828,1.01381 -0.406768,2.038259 0.438939,2.926253 z"
       id="path2709-6-3"
       sodipodi:nodetypes="cccccccc" />
    <path
       style="fill:none;stroke:#1a1a1a;stroke-width:0.153272;stroke-dasharray:none"
       d="m 60.811757,46.909501 c 0.891077,-0.975418 0.757472,-1.950835 0.634022,-2.926253 -0.864482,0.152991 -1.372022,-0.526881 -1.853294,-1.268041 -0.02846,-1.4252 1.025868,-1.887927 2.145919,-2.292233 0.990863,0.423402 2.220744,0.634345 2.097148,2.048378 -0.168615,1.176181 -1.005747,1.182453 -1.658211,1.511896 -0.160828,1.01381 -0.406768,2.038259 0.438939,2.926253 z"
       id="path2709-6-2"
       sodipodi:nodetypes="cccccccc" />
    <text
       xml:space="preserve"
       style="font-size:2.82223px;fill:none;stroke:#1a1a1a;stroke-width:0.264583;stroke-dasharray:none"
       x="35.642509"
       y="34.112514"
       id="text2829"><tspan
         sodipodi:role="line"
         id="tspan2827"
         style="stroke-width:0.264583"
         x="35.642509"
         y="34.112514">fás</tspan><tspan
         sodipodi:role="line"
         style="stroke-width:0.264583"
         x="35.642509"
         y="37.640301"
         id="tspan2831">társulás</tspan></text>
    <text
       xml:space="preserve"
       style="font-size:2.82223px;fill:none;stroke:#1a1a1a;stroke-width:0.264583;stroke-dasharray:none"
       x="56.771"
       y="31.995802"
       id="text2989"><tspan
         sodipodi:role="line"
         id="tspan2987"
         style="stroke-width:0.264583"
         x="56.771"
         y="31.995802">erdő</tspan><tspan
         sodipodi:role="line"
         style="stroke-width:0.264583"
         x="56.771"
         y="35.52359"
         id="tspan2991">záró társulás</tspan><tspan
         sodipodi:role="line"
         style="stroke-width:0.264583"
         x="56.771"
         y="39.05138"
         id="tspan2993">(klimax)</tspan></text>
    <path
       style="fill:none;stroke:#1a1a1a;stroke-width:0.264583;stroke-dasharray:none"
       d="m 15.438437,12.977811 h 6.072189 l -1.547814,-0.595312"
       id="path2995" />
    <path
       style="fill:none;stroke:#1a1a1a;stroke-width:0.264583;stroke-dasharray:none"
       d="m 21.391564,13.096875 -1.309691,0.476249"
       id="path2997" />
    <path
       style="fill:none;stroke:#1a1a1a;stroke-width:0.264583;stroke-dasharray:none"
       d="m 41.257869,13.030302 h 6.072189 L 45.782244,12.43499"
       id="path2995-0" />
    <path
       style="fill:none;stroke:#1a1a1a;stroke-width:0.264583;stroke-dasharray:none"
       d="m 47.210996,13.149366 -1.309691,0.476249"
       id="path2997-6" />
    <path
       style="fill:none;stroke:#1a1a1a;stroke-width:0.264583;stroke-dasharray:none"
       d="m 26.176622,44.714156 h 6.072189 l -1.547813,-0.595312"
       id="path2995-1" />
    <path
       style="fill:none;stroke:#1a1a1a;stroke-width:0.264583;stroke-dasharray:none"
       d="m 32.129749,44.83322 -1.309691,0.476249"
       id="path2997-5" />
    <path
       style="fill:none;stroke:#1a1a1a;stroke-width:0.264583;stroke-dasharray:none"
       d="m 48.335473,45.111031 h 6.072189 l -1.547814,-0.595312"
       id="path2995-5" />
    <path
       style="fill:none;stroke:#1a1a1a;stroke-width:0.264583;stroke-dasharray:none"
       d="m 54.2886,45.230095 -1.309691,0.476249"
       id="path2997-4" />
    <path
       style="fill:none;stroke:#1a1a1a;stroke-width:0.264583;stroke-dasharray:none"
       d="M 72.015681,12.831865 H 78.08787 L 76.540056,12.236553"
       id="path2995-7" />
    <path
       style="fill:none;stroke:#1a1a1a;stroke-width:0.264583;stroke-dasharray:none"
       d="m 77.968808,12.950929 -1.309691,0.476249"
       id="path2997-65" />
    <path
       style="fill:none;stroke:#1a1a1a;stroke-width:0.264583;stroke-dasharray:none"
       d="M 1.305786,44.515719 H 7.377975 L 5.830161,43.920407"
       id="path2995-6" />
    <path
       style="fill:none;stroke:#1a1a1a;stroke-width:0.264583;stroke-dasharray:none"
       d="M 7.258913,44.634783 5.949222,45.111032"
       id="path2997-9" />
  </g>
</svg>
