<?xml version="1.0" encoding="UTF-8" standalone="no"?>
<!-- Created with Inkscape (http://www.inkscape.org/) -->

<svg
   width="300"
   height="200"
   viewBox="0 0 79.375 52.916665"
   version="1.1"
   id="svg423"
   inkscape:version="1.2.2 (b0a8486541, 2022-12-01)"
   sodipodi:docname="biologia_szukcesszio-to-feltoltodes.svg"
   xmlns:inkscape="http://www.inkscape.org/namespaces/inkscape"
   xmlns:sodipodi="http://sodipodi.sourceforge.net/DTD/sodipodi-0.dtd"
   xmlns="http://www.w3.org/2000/svg"
   xmlns:svg="http://www.w3.org/2000/svg">
  <sodipodi:namedview
     id="namedview425"
     pagecolor="#ffffff"
     bordercolor="#000000"
     borderopacity="0.25"
     inkscape:showpageshadow="2"
     inkscape:pageopacity="0.0"
     inkscape:pagecheckerboard="0"
     inkscape:deskcolor="#d1d1d1"
     inkscape:document-units="mm"
     showgrid="false"
     inkscape:zoom="4"
     inkscape:cx="133.125"
     inkscape:cy="95.125"
     inkscape:window-width="1920"
     inkscape:window-height="1008"
     inkscape:window-x="0"
     inkscape:window-y="0"
     inkscape:window-maximized="1"
     inkscape:current-layer="layer1" />
  <defs
     id="defs420" />
  <g
     inkscape:label="Layer 1"
     inkscape:groupmode="layer"
     id="layer1">
    <path
       style="fill:none;stroke:#1a1a1a;stroke-width:0.264583;stroke-dasharray:none"
       d="m 68.32474,3.5449894 h 6.072189 l -1.547814,-0.595312"
       id="path2995-7" />
    <path
       style="fill:none;stroke:#1a1a1a;stroke-width:0.264583;stroke-dasharray:none"
       d="m 74.277867,3.6640534 -1.309691,0.476249"
       id="path2997-65" />
    <path
       style="fill:none;stroke:#1a1a1a;stroke-width:0.372763;stroke-dasharray:none"
       d="m 3.7140699,15.751867 c 5.9600773,9.901845 11.9201551,9.225025 17.8802331,0 v 0"
       id="path4644"
       sodipodi:nodetypes="ccc" />
    <text
       xml:space="preserve"
       style="font-size:2.82223px;fill:none;stroke:#1a1a1a;stroke-width:0.264583;stroke-dasharray:none"
       x="6.9850001"
       y="8.0962496"
       id="text5397"><tspan
         sodipodi:role="line"
         id="tspan5395"
         style="stroke-width:0.264583"
         x="6.9850001"
         y="8.0962496">tรณ</tspan></text>
    <path
       style="fill:none;stroke:#1a1a1a;stroke-width:0.264583;stroke-dasharray:none"
       d="m 5.7943752,17.740311 c 1.3493758,-0.47625 2.8575012,-0.476249 4.5243748,0 1.5875,0.549535 3.175,0.397762 4.7625,0 1.119616,-0.375954 2.088666,-1.128321 3.809998,0"
       id="path5399"
       sodipodi:nodetypes="cccc" />
    <path
       style="fill:none;stroke:#1a1a1a;stroke-width:0.372763;stroke-dasharray:none"
       d="m 32.204159,15.949133 c 5.960077,9.901845 11.920155,9.225025 17.880233,0 v 0"
       id="path4644-3"
       sodipodi:nodetypes="ccc" />
    <path
       style="fill:none;stroke:#1a1a1a;stroke-width:0.264583;stroke-dasharray:none"
       d="m 34.284464,17.937577 c 1.349376,-0.47625 2.857501,-0.476249 4.524375,0 1.5875,0.549535 3.175,0.397762 4.7625,0 1.119616,-0.375954 2.088666,-1.128321 3.809998,0"
       id="path5399-7"
       sodipodi:nodetypes="cccc" />
    <path
       style="fill:none;stroke:#1a1a1a;stroke-width:0.264583;stroke-dasharray:none"
       d="m 8.4137507,19.764374 c 0.1190622,0.07937 0.2381247,0.15875 0.357187,0.238125"
       id="path5440" />
    <path
       style="fill:none;stroke:#1a1a1a;stroke-width:0.264583;stroke-dasharray:none"
       d="m 15.795626,19.645312 c 0.119062,0 0.238125,0 0.357187,0"
       id="path5442" />
    <path
       style="fill:none;stroke:#1a1a1a;stroke-width:0.264583;stroke-dasharray:none"
       d="m 12.7,21.907498 c 0.3175,0 0.635,0 0.952499,0"
       id="path5444" />
    <path
       style="fill:none;stroke:#1a1a1a;stroke-width:0.264583;stroke-dasharray:none"
       d="m 10.914062,21.43125 c 0.385251,0.38525 0.188808,0.357187 0.476251,0.357187"
       id="path5446" />
    <path
       style="fill:none;stroke:#1a1a1a;stroke-width:0.264583;stroke-dasharray:none"
       d="m 10.437812,19.05 c 0.189109,0.285184 0.47625,0.118532 0.47625,0.357187"
       id="path5448" />
    <path
       style="fill:none;stroke:#1a1a1a;stroke-width:0.264583;stroke-dasharray:none"
       d="m 13.414374,18.930936 c 0.396877,0 0.357189,-0.119063 0.357189,0.119064"
       id="path5450" />
  </g>
</svg>
