<?xml version="1.0" encoding="UTF-8" standalone="no"?>
<!-- Created with Inkscape (http://www.inkscape.org/) -->

<svg
   width="400"
   height="200"
   viewBox="0 0 105.83333 52.916666"
   version="1.1"
   id="svg1"
   inkscape:version="1.4.1-rc (06eac75fbf, 2025-03-29)"
   sodipodi:docname="foldrajz-oceanok-es-tengerek.svg"
   xmlns:inkscape="http://www.inkscape.org/namespaces/inkscape"
   xmlns:sodipodi="http://sodipodi.sourceforge.net/DTD/sodipodi-0.dtd"
   xmlns="http://www.w3.org/2000/svg"
   xmlns:svg="http://www.w3.org/2000/svg">
  <sodipodi:namedview
     id="namedview1"
     pagecolor="#ffffff"
     bordercolor="#000000"
     borderopacity="0.25"
     inkscape:showpageshadow="2"
     inkscape:pageopacity="0.0"
     inkscape:pagecheckerboard="0"
     inkscape:deskcolor="#d1d1d1"
     inkscape:document-units="mm"
     inkscape:zoom="2.8614198"
     inkscape:cx="207.23978"
     inkscape:cy="98.02826"
     inkscape:window-width="1870"
     inkscape:window-height="1011"
     inkscape:window-x="0"
     inkscape:window-y="0"
     inkscape:window-maximized="1"
     inkscape:current-layer="layer1" />
  <defs
     id="defs1" />
  <g
     inkscape:label="Layer 1"
     inkscape:groupmode="layer"
     id="layer1">
    <path
       style="fill:none;stroke:#554400;stroke-width:0.264999"
       d="m 11.09589,44.106163 c 0.123288,0 0.369863,0.123288 0.369863,0 0,-0.123288 -0.493151,0 -0.369863,0 0.918865,0 3.735338,0.169201 4.345891,-0.09246 0.418213,-0.179234 0.379539,-0.461172 0.832191,-0.739727 0.307246,-0.189074 0.701762,-0.194662 1.017124,-0.369864 0.448424,-0.249124 0.832058,-0.610209 1.29452,-0.832191 1.757186,-0.84345 1.371952,-0.326861 3.328767,-1.109589 0.486497,-0.194598 0.942659,-0.462021 1.386987,-0.739725 0.161471,-0.10092 0.823623,-0.737584 1.202054,-0.832194 0.403457,-0.100861 0.803856,0.05399 1.202055,-0.18493 0.457366,-0.274421 0.821831,-0.780778 1.29452,-1.017125 0.174355,-0.08718 0.372853,-0.114953 0.554796,-0.18493 1.058043,-0.40694 2.192229,-0.669981 3.236302,-1.109588 0.142031,-0.0598 0.232021,-0.208479 0.369861,-0.277398 0.216331,-0.108167 0.954217,-0.06927 1.202055,-0.184933 0.302112,-0.140986 0.534,-0.405696 0.832191,-0.554794 0.322675,-0.161338 0.689568,-0.218683 1.017124,-0.369861 0.07915,-0.03653 0.106958,-0.145947 0.184931,-0.184933 0.05514,-0.02757 0.128273,0.02429 0.184933,0 0.16519,-0.07079 0.30158,-0.197022 0.462328,-0.277397 0.320355,-0.160176 0.538056,-0.173773 0.832191,-0.369864 0.07254,-0.04836 0.103989,-0.152553 0.184933,-0.18493 0.08585,-0.03434 0.187132,0.02005 0.277397,0 0.380585,-0.08457 0.72729,-0.293405 1.109589,-0.369864 0.241787,-0.04836 0.493151,0 0.739724,0 0.215755,0 0.437375,0.04997 0.647261,0 1.275014,-0.303575 0.911754,-0.462328 1.756849,-0.462328 0.112991,0 0.488339,-0.06646 0.554795,0 0.191315,0.191315 -0.292354,-0.0075 0.09247,0.184931 0.02757,0.01379 0.06165,0 0.09247,0 0.06164,0.03082 0.127587,0.05424 0.18493,0.09247 0.128228,0.08548 0.232024,0.208476 0.369864,0.277397 0.02757,0.01378 -0.03082,-0.09247 0,-0.09247 0.104725,0 0.776354,0.573109 0.924658,0.647261 0.05514,0.02757 0.123764,-0.0076 0.18493,0 0.650984,0.08137 1.294363,0.02053 1.941783,0.09247 0.312399,0.03471 0.611894,0.153654 0.924655,0.184931 0.306692,0.03067 0.619538,-0.04359 0.924658,0 0.347893,0.0497 0.670481,0.219622 1.017124,0.277397 0.575175,0.09586 1.263933,0 1.849316,0 0.893834,0 1.787671,0 2.681505,0 0.493151,0 1.001027,-0.119605 1.479452,0 0.483076,0.120769 0.910045,0.411713 1.386988,0.554794 0.694864,0.20846 1.431845,0.25387 2.126713,0.46233 0.594129,0.17824 1.243708,0.579369 1.756849,0.739725 0.044,0.01376 1.428977,0.261625 1.479452,0.277397 0.87752,0.274225 0.801552,0.411919 1.849313,0.554794 0.246888,0.03367 1.233633,-0.135313 1.571919,0 0.08094,0.03238 0.102227,0.157364 0.18493,0.184934 0.04135,0.01378 0.05111,-0.07868 0.09247,-0.09247 0.149095,-0.0497 0.305631,-0.08041 0.462327,-0.09247 0.607947,-0.04677 1.238825,0 1.849316,0 0.385794,0 0.821434,-0.05856 1.202055,0 0.280861,0.04321 0.550521,0.147376 0.832191,0.184934 0.873999,0.116533 2.424798,0 3.328768,0 0.493152,0 0.993011,0.08107 1.479452,0 0.346642,-0.05777 0.671719,-0.212635 1.017125,-0.277398 0.384596,-0.07211 0.812342,0.0433 1.202052,0 0.65717,-0.07302 1.282216,-0.183173 1.941783,-0.277397 0.122047,-0.01744 0.250256,0.0299 0.369863,0 0.407422,-0.101856 0.748043,-0.558953 1.109589,-0.739727 0.715481,-0.357741 1.000019,-0.352758 1.571918,-0.924658 0.240345,-0.240345 0.537724,-0.679267 0.832192,-0.924658 0.171889,-0.14324 0.747929,-0.544168 0.924658,-0.647258 0.167978,-0.09799 0.980858,-0.457666 1.202052,-0.647261 0.08438,-0.07232 0.09603,-0.210719 0.184933,-0.277397 0.17005,-0.12754 0.264861,0.105 0.462328,-0.09247 0.200935,-0.200936 0.340939,-0.460137 0.554794,-0.647261 0.05246,-0.04591 0.288883,0.02024 0.369864,0 0.09456,-0.02363 0.184933,-0.06164 0.277397,-0.09246 0.123288,0 0.248565,0.02204 0.369863,0 0.316601,-0.05757 0.606103,-0.231892 0.924658,-0.277397 0.122047,-0.01744 0.250256,0.0299 0.369864,0 0.133723,-0.03343 0.237326,-0.147066 0.369861,-0.184933 0.55367,-0.158192 -0.01736,0.239839 0.647261,-0.09247 0.07798,-0.03899 0.103989,-0.152553 0.18493,-0.18493 0.08585,-0.03434 0.18619,0.01521 0.2774,0 0.34023,-0.05671 0.667417,-0.134975 1.017122,-0.184931 0.557183,-0.0796 1.193805,0 1.756849,0 1.664383,0 3.328768,0 4.99315,0 0.552572,0 1.230302,0.131635 1.75685,0 0.228163,-0.05704 0.342505,-0.234939 0.554794,-0.277397 0.263398,-0.05268 0.290621,0.07924 0.46233,-0.09247"
       id="path1" />
    <path
       style="fill:none;stroke:#00ffff;stroke-width:0.264999"
       d="m 43.921232,34.304795 c 0.123288,0 0.369864,0.123288 0.369864,0 0,-0.123288 -0.480137,0.05513 -0.369864,0 0.61503,-0.307517 0.69319,-0.100121 1.202055,-0.184933 0.799555,-0.133257 -0.363291,-0.05283 0.647261,-0.277397 0.618358,-0.137412 0.804616,0.24121 1.386986,0.554794 0.08582,0.04621 0.18284,0.06883 0.277397,0.09247 0.317219,0.0793 0.558778,-0.0013 0.832191,-0.09247 0.260792,-0.08693 1.016683,0.123584 1.202055,0 0.260361,-0.0057 0.02355,-0.208476 0.09247,-0.277397 0.06538,-0.06538 0.187692,0.02244 0.277397,0 0.283673,-0.07092 0.570658,-0.14663 0.832191,-0.277397 0.06224,-0.03112 0.346996,-0.254331 0.46233,-0.277397 0.107876,-0.02156 0.575342,0.02877 0.647258,0 0.06399,-0.02559 0.03082,-0.15411 0.09247,-0.184931 0.192976,-0.09649 0.432827,0.02381 0.647261,0 0.343521,0.111853 0.544504,-0.225091 0.832191,-0.277397 0.618318,-0.112421 1.482609,0 2.126713,0 0.258966,0 1.249182,-0.09211 1.479452,0 0.103182,0.04127 0.177998,0.135231 0.277397,0.184931 0.607994,0.303995 -0.05048,-0.08047 0.554794,0.09247 0.132535,0.03787 0.239096,0.141343 0.369864,0.184931 0.206759,0.06892 0.436996,0.03512 0.647261,0.09247 0.844095,0.230209 1.647994,0.620046 2.496574,0.832192 0.211436,0.05286 0.429958,0.07575 0.64726,0.09247 0.184386,0.01418 0.379352,-0.05848 0.554795,0 0.210854,0.07028 0.352456,0.277889 0.554794,0.369861 0.06919,0.03145 0.995598,0.183277 1.017124,0.184933 0.849519,0.06535 1.737638,0 2.589041,0 0.523973,0 1.053211,0.0741 1.571918,0 0.192974,-0.02757 0.363003,-0.150061 0.554795,-0.184933 0.515302,-0.09369 1.37051,0.159602 1.849313,0 0.105428,-0.03514 0.171971,-0.149788 0.277397,-0.18493 0.07706,-0.02569 0.35959,0.01712 0.46233,0 1.013733,-0.168955 -0.378772,0.0021 0.832191,-0.277397 1.49733,-0.187167 0.112978,0.04933 1.202055,-0.277398 0.425599,-0.127679 0.611468,0.01818 1.017125,-0.09247 0.199472,-0.0544 0.364752,-0.195951 0.554794,-0.277397 0.09946,-0.04263 0.544693,0.0021 0.554794,0 0.04274,-0.0085 0.05111,-0.07868 0.09246,-0.09246 0.192829,-0.06428 2.593414,-0.04551 2.86644,0 0.09614,0.01603 0.181256,0.07644 0.277398,0.09246 0.406386,0.06773 0.893241,-0.10032 1.294518,0 0.08632,0.02159 0.6598,0.237434 0.739728,0.277397 0.05583,0.02792 0.234654,-0.04274 0.277397,0 0.250931,0.250931 0.04497,0.184933 0.462328,0.184933"
       id="path2" />
    <path
       style="fill:none;stroke:#00ffff;stroke-width:0.264999"
       d="m 33.750001,35.50685 c -1.325343,0 -2.650686,0 -3.976029,0 -0.392702,0 -1.60089,-0.113631 -1.941779,0 -0.181685,0.06056 -0.394306,0.197152 -0.554797,0.277397 -0.543447,0.271722 -2.399685,0.386011 -3.051369,0.277397 -0.376577,-0.06276 -0.65797,-0.267247 -1.017123,-0.369863 -0.403094,-0.115171 -0.797603,-0.259559 -1.202055,-0.369864 -0.04981,-0.01357 -0.500658,0.05414 -0.554795,0 -0.04873,-0.04873 -0.04373,-0.136197 -0.09247,-0.184931 -0.04731,-0.04731 -1.610292,-0.237426 -1.75685,-0.277397 -0.254063,-0.06929 -0.49908,-0.170444 -0.739726,-0.277397 -0.03983,-0.0177 -0.04972,-0.08392 -0.09246,-0.09247 -0.328484,-0.0657 -2.712943,-0.07182 -3.143836,0 -0.478324,0.07972 -0.917579,0.334309 -1.386986,0.462327 -0.04296,0.01172 -1.355353,0.25631 -1.386986,0.2774 -0.05735,0.03823 -0.04373,0.136197 -0.09247,0.18493 -0.105709,0.105709 -0.597219,0.188331 -0.739726,0.277398 -0.167358,0.104597 -0.279088,0.296566 -0.462329,0.369863 -0.305265,0.122105 -0.780734,-0.05481 -1.109589,0 -0.319373,0.05323 -1.340932,0.439121 -1.6643835,0.277397 -0.1981341,-0.09907 -0.274559,-0.04481 -0.3698629,-0.09247 -0.077974,-0.03899 -0.1069576,-0.145944 -0.1849316,-0.184931 -0.00539,-0.0027 -0.8763061,-0.09247 -1.0171234,-0.09247"
       id="path3" />
    <text
       xml:space="preserve"
       style="font-size:3.175px;font-family:Monospace;-inkscape-font-specification:Monospace;text-align:start;writing-mode:lr-tb;direction:ltr;text-anchor:start;fill:none;stroke:#000000;stroke-width:0.264999"
       x="3.9760273"
       y="33.28767"
       id="text3"><tspan
         sodipodi:role="line"
         id="tspan3"
         style="stroke:#000000;stroke-width:0.265"
         x="3.9760273"
         y="33.28767">Atlanti-óceán</tspan></text>
    <text
       xml:space="preserve"
       style="font-size:3.175px;font-family:Monospace;-inkscape-font-specification:Monospace;text-align:start;writing-mode:lr-tb;direction:ltr;text-anchor:start;fill:none;stroke:#000000;stroke-width:0.264999"
       x="51.965755"
       y="31.993151"
       id="text4"><tspan
         sodipodi:role="line"
         id="tspan4"
         style="stroke:#000000;stroke-width:0.265"
         x="51.965755"
         y="31.993151">Északi-tenger</tspan></text>
    <text
       xml:space="preserve"
       style="font-size:3.175px;font-family:Monospace;-inkscape-font-specification:Monospace;text-align:start;writing-mode:lr-tb;direction:ltr;text-anchor:start;fill:none;stroke:#000000;stroke-width:0.264999"
       x="26.445206"
       y="16.366438"
       id="text5"><tspan
         sodipodi:role="line"
         id="tspan5"
         style="stroke-width:0.265;stroke:#000000"
         x="26.445206"
         y="16.366438">Brit-szigetek</tspan></text>
    <text
       xml:space="preserve"
       style="font-size:3.175px;font-family:Monospace;-inkscape-font-specification:Monospace;text-align:start;writing-mode:lr-tb;direction:ltr;text-anchor:start;fill:none;stroke:#1a1a1a;stroke-width:0.264999"
       x="85.345886"
       y="17.84589"
       id="text6"><tspan
         sodipodi:role="line"
         id="tspan6"
         style="stroke-width:0.265;stroke:#1a1a1a"
         x="85.345886"
         y="17.84589">Európa</tspan></text>
    <path
       style="fill:none;stroke:#000000;stroke-width:0.264999"
       d="m 37.541096,19.232877 0.832192,9.246574"
       id="path6" />
    <path
       style="fill:none;stroke:#000000;stroke-width:0.264999"
       d="m 35.321917,27.739726 3.143837,2.40411 2.589041,-3.236302"
       id="path7" />
    <path
       style="fill:none;stroke:#000000;stroke-width:0.264999"
       d="m 92.188354,19.972603 0.554794,8.321917"
       id="path8" />
    <path
       style="fill:none;stroke:#000000;stroke-width:0.264999"
       d="M 90.339041,27.184932 92.650685,29.958903 94.869863,27"
       id="path9" />
  </g>
</svg>
