<?xml version="1.0" encoding="UTF-8" standalone="no"?>
<!-- Created with Inkscape (http://www.inkscape.org/) -->

<svg
   width="400"
   height="200"
   viewBox="0 0 105.83333 52.916666"
   version="1.1"
   id="svg1"
   inkscape:version="1.4.1-rc (06eac75fbf, 2025-03-29)"
   sodipodi:docname="foldrajz-felho-es-csapadek-kepzodes-002.svg"
   xmlns:inkscape="http://www.inkscape.org/namespaces/inkscape"
   xmlns:sodipodi="http://sodipodi.sourceforge.net/DTD/sodipodi-0.dtd"
   xmlns="http://www.w3.org/2000/svg"
   xmlns:svg="http://www.w3.org/2000/svg">
  <sodipodi:namedview
     id="namedview1"
     pagecolor="#ffffff"
     bordercolor="#000000"
     borderopacity="0.25"
     inkscape:showpageshadow="2"
     inkscape:pageopacity="0.0"
     inkscape:pagecheckerboard="0"
     inkscape:deskcolor="#d1d1d1"
     inkscape:document-units="mm"
     inkscape:zoom="2.8614198"
     inkscape:cx="214.22931"
     inkscape:cy="136.47071"
     inkscape:window-width="1870"
     inkscape:window-height="1011"
     inkscape:window-x="0"
     inkscape:window-y="0"
     inkscape:window-maximized="1"
     inkscape:current-layer="layer1" />
  <defs
     id="defs1" />
  <g
     inkscape:label="Layer 1"
     inkscape:groupmode="layer"
     id="layer1">
    <path
       style="fill:none;stroke:#0000ff;stroke-width:0.264999;stroke-dasharray:none;stroke-opacity:1;fill-opacity:1"
       d="m 37.726026,8.0968067 c 1.294521,-1.918314 1.571918,-1.374107 2.866439,-1.756851 2.059485,0.812047 4.155837,0.436665 4.993151,-0.462329 1.51817,-0.7365419 2.765971,-0.526788 3.791096,0.462328 0.06074,1.973809 -0.499587,2.186666 2.126712,2.21918 -0.257673,1.171233 0.798843,2.3424673 -0.462327,3.5137013 -2.840444,-0.270342 -2.476844,0.85562 -3.143837,2.034247 -5.599839,0.858955 -4.652033,0.519819 -6.10274,-0.554794 -3.647838,-0.601332 -2.957314,-1.935724 -3.051371,-2.773974 -1.571037,-0.333838 -2.15381,-1.1168873 -1.017123,-2.6815083 z"
       id="path9"
       sodipodi:nodetypes="cccccccccc" />
    <path
       style="fill:none;stroke:#0000ff;stroke-width:0.264999;stroke-dasharray:none;stroke-opacity:1"
       d="m 53.688439,13.275549 c 1.294521,-1.918315 1.571918,-1.374107 2.866439,-1.756852 2.059485,0.812047 4.155837,0.436666 4.993151,-0.462329 1.51817,-0.736542 2.765971,-0.526787 3.791096,0.462329 0.06074,1.973809 -0.499587,2.186666 2.126712,2.21918 -0.257673,1.171234 0.798843,2.342467 -0.462327,3.5137 -2.840444,-0.270342 -2.476844,0.85562 -3.143837,2.034247 -5.599839,0.858955 -4.652033,0.519819 -6.10274,-0.554795 -3.647838,-0.601331 -2.957314,-1.935723 -3.051371,-2.773973 -1.571037,-0.333838 -2.15381,-1.116885 -1.017123,-2.681507 z"
       id="path9-6"
       sodipodi:nodetypes="cccccccccc" />
    <path
       style="fill:#554400;fill-opacity:1;stroke:#554400;stroke-width:0.264999;stroke-opacity:1"
       d="M 7.2123286,49.19178 H 97.551366"
       id="path1" />
    <path
       style="fill:none;fill-opacity:1;stroke:#00ffff;stroke-width:0.264999;stroke-opacity:1"
       d="m 48.729451,28.202055 c -0.507784,4.906896 -2.177879,16.060522 -7.674658,18.030822"
       id="path2"
       sodipodi:nodetypes="cc" />
    <path
       style="fill:none;fill-opacity:1;stroke:#00ffff;stroke-width:0.264999;stroke-opacity:1"
       d="m 52.701458,28.346915 c 0.507784,4.906896 2.177879,16.060522 7.674658,18.030822"
       id="path2-6"
       sodipodi:nodetypes="cc" />
    <path
       style="fill:none;fill-opacity:1;stroke:#00ffff;stroke-width:0.264999;stroke-opacity:1"
       d="m 44.845889,28.109589 6.380136,-7.397261 5.363014,7.304795"
       id="path4" />
    <circle
       style="fill:#ffdd55;fill-opacity:1;stroke:#ffdd55;stroke-width:0.264999;stroke-opacity:1"
       id="path5"
       cx="61.166096"
       cy="3.4674654"
       r="6.1489725" />
    <path
       style="fill:#ffdd55;fill-opacity:1;stroke:#ffdd55;stroke-width:0.264999;stroke-opacity:1"
       d="M 54.18493,6.3801368 52.243148,8.2294517"
       id="path6" />
    <path
       style="fill:#ffdd55;fill-opacity:1;stroke:#ffdd55;stroke-width:0.264999;stroke-opacity:1"
       d="m 56.404107,9.0616436 -2.12671,1.8493154"
       id="path7" />
    <path
       style="fill:#ffdd55;fill-opacity:1;stroke:#ffdd55;stroke-width:0.264999;stroke-opacity:1"
       d="M 53.907533,3.1438355 H 49.654107"
       id="path8" />
    <path
       style="fill:#ffdd55;fill-opacity:1;stroke:#ffdd55;stroke-width:0.264999;stroke-opacity:1"
       d="m 66.482875,9.616438 1.386985,1.849315"
       id="path10" />
    <path
       style="fill:#ffdd55;fill-opacity:1;stroke:#ffdd55;stroke-width:0.264999;stroke-opacity:1"
       d="m 68.979451,6.6575341 2.12671,1.849315"
       id="path11" />
    <path
       style="fill:#ffdd55;fill-opacity:1;stroke:#ffdd55;stroke-width:0.264999;stroke-opacity:1"
       d="M 68.979451,4.1609589 73.695205,3.9760273"
       id="path12" />
    <path
       style="fill:#ffdd55;fill-opacity:1;stroke:#ffdd55;stroke-width:0.264999;stroke-opacity:1"
       d="M 69.164382,2.1267123 73.047944,1.109589"
       id="path13" />
  </g>
</svg>
