<?xml version="1.0" encoding="UTF-8" standalone="no"?>
<!-- Created with Inkscape (http://www.inkscape.org/) -->

<svg
   width="400"
   height="200"
   viewBox="0 0 105.83333 52.916666"
   version="1.1"
   id="svg1"
   inkscape:version="1.4.1-rc (06eac75fbf, 2025-03-29)"
   sodipodi:docname="foldrajz-felho-es-csapadek-kepzodes-003.svg"
   xmlns:inkscape="http://www.inkscape.org/namespaces/inkscape"
   xmlns:sodipodi="http://sodipodi.sourceforge.net/DTD/sodipodi-0.dtd"
   xmlns="http://www.w3.org/2000/svg"
   xmlns:svg="http://www.w3.org/2000/svg">
  <sodipodi:namedview
     id="namedview1"
     pagecolor="#ffffff"
     bordercolor="#000000"
     borderopacity="0.25"
     inkscape:showpageshadow="2"
     inkscape:pageopacity="0.0"
     inkscape:pagecheckerboard="0"
     inkscape:deskcolor="#d1d1d1"
     inkscape:document-units="mm"
     inkscape:zoom="2.8614198"
     inkscape:cx="194.30913"
     inkscape:cy="107.81361"
     inkscape:window-width="1870"
     inkscape:window-height="1011"
     inkscape:window-x="0"
     inkscape:window-y="0"
     inkscape:window-maximized="1"
     inkscape:current-layer="layer1" />
  <defs
     id="defs1" />
  <g
     inkscape:label="Layer 1"
     inkscape:groupmode="layer"
     id="layer1">
    <path
       style="fill:#554400;fill-opacity:1;stroke:#554400;stroke-width:0.264999;stroke-opacity:1"
       d="m 33.934931,48.359589 59.732875,0.369863"
       id="path13" />
    <path
       style="fill:#554400;fill-opacity:1;stroke:#554400;stroke-width:0.264999;stroke-opacity:1"
       d="M 33.942315,23.680416 93.67519,24.050279"
       id="path13-9" />
    <path
       style="fill:none;fill-opacity:1;stroke:#00ffff;stroke-width:0.264999;stroke-opacity:1"
       d="m 48.452052,21.996804 c 4.5145,-5.334909 9.557996,-9.672937 21.544522,-10.44863 14.031485,0.973395 17.779239,6.118611 22.19178,10.726028"
       id="path14"
       sodipodi:nodetypes="ccc" />
    <path
       style="fill:none;fill-opacity:1;stroke:#ff0000;stroke-width:0.264999;stroke-opacity:1"
       d="m 45.609477,46.564759 c 4.5145,-5.334909 9.557996,-9.672937 21.544522,-10.448629 14.031485,0.973394 17.779239,6.11861 22.19178,10.726027"
       id="path14-7"
       sodipodi:nodetypes="ccc" />
    <path
       style="fill:none;fill-opacity:1;stroke:#ff0000;stroke-width:0.264999;stroke-opacity:1"
       d="m 19.140411,18.298174 16.828767,0.09247"
       id="path15" />
    <path
       style="fill:none;fill-opacity:1;stroke:#ff0000;stroke-width:0.264999;stroke-opacity:1"
       d="m 35.506847,14.322147 3.328768,3.883562 -3.976027,3.883561"
       id="path16" />
    <path
       style="fill:none;fill-opacity:1;stroke:#ff0000;stroke-width:0.264999;stroke-opacity:1"
       d="m 44.753424,17.188585 7.582191,-4.160958"
       id="path17" />
    <path
       style="fill:none;fill-opacity:1;stroke:#ff0000;stroke-width:0.264999;stroke-opacity:1"
       d="m 50.578765,10.993379 3.883562,0.184932 -0.647259,3.236302"
       id="path18" />
    <path
       style="fill:none;fill-opacity:1;stroke:#ff0000;stroke-width:0.264999;stroke-opacity:1"
       d="M 58.068492,10.808448 64.448628,9.2365296"
       id="path19" />
    <path
       style="fill:none;fill-opacity:1;stroke:#ff0000;stroke-width:0.264999;stroke-opacity:1"
       d="m 63.246573,6.7399544 3.791096,1.2945205 -2.034245,3.0513701"
       id="path20" />
    <path
       style="fill:none;fill-opacity:1;stroke:#00ffff;stroke-width:0.264999;stroke-opacity:1"
       d="M 16.828767,44.198629 H 31.438355"
       id="path21" />
    <path
       style="fill:none;fill-opacity:1;stroke:#00ffff;stroke-width:0.264999;stroke-opacity:1"
       d="m 30.328766,40.684931 4.253424,3.698629 -3.513697,2.589042"
       id="path22" />
    <path
       style="fill:none;fill-opacity:1;stroke:#00ffff;stroke-width:0.264999;stroke-opacity:1"
       d="M 39.390409,44.013696 53.53767,44.198629"
       id="path23" />
    <path
       style="fill:none;fill-opacity:1;stroke:#00ffff;stroke-width:0.264999;stroke-opacity:1"
       d="m 52.890409,42.046289 3.051371,2.126713 -3.143836,2.404109"
       id="path24" />
    <path
       style="fill:none;fill-opacity:1;stroke:#0000ff;stroke-width:0.192156;stroke-dasharray:none;stroke-opacity:1"
       d="m 44.942046,5.2825223 c 0.938783,-1.390855 1.139951,-0.996283 2.078734,-1.273788 1.493533,0.588767 3.013802,0.3166 3.62102,-0.335207 1.100973,-0.534023 2.005875,-0.381943 2.749293,0.335206 0.04405,1.431091 -0.362299,1.585421 1.542287,1.608995 -0.186864,0.849191 0.579318,1.698383 -0.335279,2.547575 -2.059883,-0.196009 -1.796201,0.620359 -2.279902,1.474911 -4.060989,0.6227767 -3.373643,0.3768897 -4.425692,-0.402248 -2.645403,-0.43599 -2.144636,-1.403478 -2.212846,-2.011243 -1.139312,-0.242046 -1.561938,-0.809788 -0.737615,-1.944201 z"
       id="path9"
       sodipodi:nodetypes="cccccccccc" />
    <path
       style="fill:none;fill-opacity:1;stroke:#0000ff;stroke-width:0.192156;stroke-dasharray:none;stroke-opacity:1"
       d="m 56.26368,30.320652 c 0.938783,-1.390856 1.139951,-0.996284 2.078734,-1.273789 1.493533,0.588767 3.013802,0.3166 3.62102,-0.335207 1.100973,-0.534023 2.005875,-0.381943 2.749293,0.335206 0.04405,1.431091 -0.362299,1.585421 1.542287,1.608995 -0.186864,0.849191 0.579318,1.698383 -0.335279,2.547576 -2.059883,-0.19601 -1.796201,0.620358 -2.279902,1.474911 -4.060989,0.622776 -3.373643,0.376889 -4.425692,-0.402248 -2.645403,-0.435991 -2.144636,-1.403478 -2.212846,-2.011244 -1.139312,-0.242046 -1.561938,-0.809788 -0.737615,-1.9442 z"
       id="path9-93"
       sodipodi:nodetypes="cccccccccc" />
    <path
       style="fill:none;fill-opacity:1;stroke:#0000ff;stroke-width:0.192156;stroke-dasharray:none;stroke-opacity:1"
       d="m 69.053377,28.478613 c 0.938783,-1.390855 1.139951,-0.996283 2.078734,-1.273788 1.493533,0.588767 3.013802,0.3166 3.62102,-0.335207 1.100973,-0.534023 2.005875,-0.381943 2.749293,0.335206 0.04405,1.431091 -0.362299,1.585421 1.542287,1.608995 -0.186864,0.849191 0.579318,1.698383 -0.335279,2.547575 -2.059883,-0.196009 -1.796201,0.620359 -2.279902,1.474912 -4.060989,0.622776 -3.373643,0.376889 -4.425692,-0.402248 -2.645403,-0.435991 -2.144636,-1.403478 -2.212846,-2.011244 -1.139312,-0.242046 -1.561938,-0.809788 -0.737615,-1.944201 z"
       id="path9-5"
       sodipodi:nodetypes="cccccccccc" />
    <path
       style="fill:none;fill-opacity:1;stroke:#0000ff;stroke-width:0.192156;stroke-dasharray:none;stroke-opacity:1"
       d="m 58.205461,1.4911138 c 0.938783,-1.39085494 1.139951,-0.99628297 2.078734,-1.27378794 1.493533,0.58876697 3.013802,0.31659997 3.62102,-0.33520707 1.100973,-0.53402297 2.005875,-0.381943 2.749293,0.33520607 0.04405,1.43109094 -0.362299,1.58542094 1.542287,1.60899494 -0.186864,0.849191 0.579318,1.698383 -0.335279,2.547575 -2.059883,-0.196009 -1.796201,0.620359 -2.279902,1.474911 -4.060989,0.622777 -3.373643,0.37689 -4.425692,-0.402248 -2.645403,-0.43599 -2.144636,-1.403478 -2.212846,-2.011243 -1.139312,-0.242046 -1.561938,-0.809788 -0.737615,-1.944201 z"
       id="path9-9"
       sodipodi:nodetypes="cccccccccc" />
    <text
       xml:space="preserve"
       style="font-style:normal;font-variant:normal;font-weight:normal;font-stretch:normal;font-size:3.175px;font-family:Monospace;-inkscape-font-specification:Monospace;text-align:start;writing-mode:lr-tb;direction:ltr;text-anchor:start;fill:#ff0000;fill-opacity:1;stroke:#ff0000;stroke-width:0.264999;stroke-opacity:1"
       x="11.558218"
       y="16.551369"
       id="text24"><tspan
         sodipodi:role="line"
         id="tspan24"
         style="fill:#ff0000;stroke:#ff0000;stroke-width:0.265"
         x="11.558218"
         y="16.551369">Meleg levegő</tspan></text>
    <text
       xml:space="preserve"
       style="font-style:normal;font-variant:normal;font-weight:normal;font-stretch:normal;font-size:3.175px;font-family:Monospace;-inkscape-font-specification:Monospace;text-align:start;writing-mode:lr-tb;direction:ltr;text-anchor:start;fill:#ff0000;fill-opacity:1;stroke:#ff0000;stroke-width:0.264999;stroke-opacity:1"
       x="55.756847"
       y="20.804794"
       id="text25"><tspan
         sodipodi:role="line"
         id="tspan25"
         style="stroke:#00ffff;stroke-width:0.265"
         x="55.756847"
         y="20.804794">Hideg levegő</tspan></text>
    <text
       xml:space="preserve"
       style="font-style:normal;font-variant:normal;font-weight:normal;font-stretch:normal;font-size:3.175px;font-family:Monospace;-inkscape-font-specification:Monospace;text-align:start;writing-mode:lr-tb;direction:ltr;text-anchor:start;fill:#ff0000;fill-opacity:1;stroke:#00ffff;stroke-width:0.264999;stroke-opacity:1"
       x="6.4726028"
       y="42.90411"
       id="text26"><tspan
         sodipodi:role="line"
         id="tspan26"
         style="stroke-width:0.265"
         x="6.4726028"
         y="42.90411">Hideg levegő</tspan></text>
    <text
       xml:space="preserve"
       style="font-style:normal;font-variant:normal;font-weight:normal;font-stretch:normal;font-size:3.175px;font-family:Monospace;-inkscape-font-specification:Monospace;text-align:start;writing-mode:lr-tb;direction:ltr;text-anchor:start;fill:#ff0000;fill-opacity:1;stroke:#ff0000;stroke-width:0.264999;stroke-opacity:1"
       x="58.715752"
       y="45.955479"
       id="text27"><tspan
         sodipodi:role="line"
         id="tspan27"
         style="stroke:#ff0000;stroke-width:0.265"
         x="58.715752"
         y="45.955479">Meleg levegő</tspan></text>
    <path
       style="fill:#ff0000;fill-opacity:1;stroke:#ff0000;stroke-width:0.264999;stroke-opacity:1"
       d="m 61.859588,39.482876 -0.09247,3.143835"
       id="path27" />
    <path
       style="fill:none;fill-opacity:1;stroke:#ff0000;stroke-width:0.264999;stroke-opacity:1"
       d="m 59.455478,39.390409 2.311643,-1.479452 2.589042,1.664385"
       id="path28" />
    <path
       style="fill:#ff0000;fill-opacity:1;stroke:#ff0000;stroke-width:0.264999;stroke-opacity:1"
       d="M 68.96837,38.598881 68.8759,41.742716"
       id="path27-8" />
    <path
       style="fill:none;fill-opacity:1;stroke:#ff0000;stroke-width:0.264999;stroke-opacity:1"
       d="m 66.56426,38.506414 2.311643,-1.479452 2.589042,1.664385"
       id="path28-5" />
    <circle
       style="fill:#ffdd55;fill-opacity:1;stroke:#ffdd55;stroke-width:0.264999;stroke-opacity:1"
       id="path29"
       cx="49.792809"
       cy="27.785955"
       r="3.0976026" />
    <path
       style="fill:#ffdd55;fill-opacity:1;stroke:#ffdd55;stroke-width:0.264999;stroke-opacity:1"
       d="m 45.863012,31.068491 -4.160959,4.715754"
       id="path30" />
    <path
       style="fill:#ffdd55;fill-opacity:1;stroke:#ffdd55;stroke-width:0.264999;stroke-opacity:1"
       d="m 47.989725,32.085616 -1.571919,2.866437"
       id="path31" />
    <path
       style="fill:#ffdd55;fill-opacity:1;stroke:#ffdd55;stroke-width:0.264999;stroke-opacity:1"
       d="m 50.116438,32.732876 -0.369864,4.993151"
       id="path32" />
    <path
       style="fill:#ffdd55;fill-opacity:1;stroke:#ffdd55;stroke-width:0.264999;stroke-opacity:1"
       d="m 52.428081,31.160958 1.479452,1.294521"
       id="path33" />
    <path
       style="fill:#ffdd55;fill-opacity:1;stroke:#ffdd55;stroke-width:0.264999;stroke-opacity:1"
       d="m 54.739725,28.756848 1.571918,0.46233"
       id="path34" />
    <path
       style="fill:#ffdd55;fill-opacity:1;stroke:#ffdd55;stroke-width:0.264999;stroke-opacity:1"
       d="m 54.554794,26.537671 7.952055,-0.369863"
       id="path35" />
    <path
       style="fill:#ffdd55;fill-opacity:1;stroke:#ffdd55;stroke-width:0.264999;stroke-opacity:1"
       d="m 44.84589,28.109587 -2.496576,0.832194"
       id="path36" />
    <path
       style="fill:#ffdd55;fill-opacity:1;stroke:#ffdd55;stroke-width:0.264999;stroke-opacity:1"
       d="m 44.84589,26.352739 -8.229452,-0.09247"
       id="path37" />
    <path
       style="fill:#ffdd55;fill-opacity:1;stroke:#0000ff;stroke-width:0.264999;stroke-opacity:1"
       d="M 45.215751,9.7089038 V 11.003424"
       id="path38" />
    <path
       style="fill:#ffdd55;fill-opacity:1;stroke:#0000ff;stroke-width:0.264999;stroke-opacity:1"
       d="m 47.619861,10.541096 -0.09247,1.202054"
       id="path39" />
    <path
       style="fill:#ffdd55;fill-opacity:1;stroke:#0000ff;stroke-width:0.264999;stroke-opacity:1"
       d="m 49.746574,10.818493 v 0.64726"
       id="path40" />
    <path
       style="fill:#ffdd55;fill-opacity:1;stroke:#0000ff;stroke-width:0.264999;stroke-opacity:1"
       d="M 55.294519,9.1541093 55.109588,10.356164"
       id="path41" />
    <path
       style="fill:#ffdd55;fill-opacity:1;stroke:#0000ff;stroke-width:0.264999;stroke-opacity:1"
       d="m 58.160956,6.1027397 -0.09246,1.1095889"
       id="path42" />
    <path
       style="fill:#ffdd55;fill-opacity:1;stroke:#0000ff;stroke-width:0.264999;stroke-opacity:1"
       d="M 59.825342,6.7499999 V 8.0445204"
       id="path43" />
    <path
       style="fill:#ffdd55;fill-opacity:1;stroke:#0000ff;stroke-width:0.264999;stroke-opacity:1"
       d="m 68.609587,6.1027397 0.09247,1.2020547"
       id="path44" />
    <path
       style="fill:#ffdd55;fill-opacity:1;stroke:#0000ff;stroke-width:0.264999;stroke-opacity:1"
       d="m 66.297944,5.9178081 0.09246,0.9246573"
       id="path45" />
    <path
       style="fill:#ffdd55;fill-opacity:1;stroke:#0000ff;stroke-width:0.264999;stroke-opacity:1"
       d="m 78.688355,34.027395 0.184931,1.479452"
       id="path46" />
    <path
       style="fill:#ffdd55;fill-opacity:1;stroke:#0000ff;stroke-width:0.264999;stroke-opacity:1"
       d="m 75.174657,35.136986 v 1.017122"
       id="path47" />
    <path
       style="fill:#ffdd55;fill-opacity:1;stroke:#0000ff;stroke-width:0.264999;stroke-opacity:1"
       d="m 71.753422,34.58219 0.184933,0.832193"
       id="path48" />
    <path
       style="fill:#ffdd55;fill-opacity:1;stroke:#0000ff;stroke-width:0.264999;stroke-opacity:1"
       d="m 69.534245,32.82534 v 1.479452"
       id="path49" />
    <path
       style="fill:#ffdd55;fill-opacity:1;stroke:#0000ff;stroke-width:0.264999;stroke-opacity:1"
       d="m 65.465753,34.397259 v 1.017124"
       id="path50" />
    <path
       style="fill:#ffdd55;fill-opacity:1;stroke:#0000ff;stroke-width:0.264999;stroke-opacity:1"
       d="M 62.87671,35.876711 V 37.44863"
       id="path51" />
    <path
       style="fill:#ffdd55;fill-opacity:1;stroke:#0000ff;stroke-width:0.264999;stroke-opacity:1"
       d="m 56.404107,34.859589 -0.18493,1.664383"
       id="path52" />
    <path
       style="fill:#ffdd55;fill-opacity:1;stroke:#0000ff;stroke-width:0.264999;stroke-opacity:1"
       d="m 58.068492,36.061642 0.09246,1.202055"
       id="path53" />
    <path
       style="fill:#ffdd55;fill-opacity:1;stroke:#0000ff;stroke-width:0.264999;stroke-opacity:1"
       d="m 60.4726,35.784245 v 1.571918"
       id="path54" />
  </g>
</svg>
