<?xml version="1.0" encoding="UTF-8" standalone="no"?>
<!-- Created with Inkscape (http://www.inkscape.org/) -->

<svg
   width="400"
   height="200"
   viewBox="0 0 105.83333 52.916666"
   version="1.1"
   id="svg1"
   inkscape:version="1.4.1-rc (06eac75fbf, 2025-03-29)"
   sodipodi:docname="foldrajz-felho-es-csapadek-kepzodes-001.svg"
   xmlns:inkscape="http://www.inkscape.org/namespaces/inkscape"
   xmlns:sodipodi="http://sodipodi.sourceforge.net/DTD/sodipodi-0.dtd"
   xmlns="http://www.w3.org/2000/svg"
   xmlns:svg="http://www.w3.org/2000/svg">
  <sodipodi:namedview
     id="namedview1"
     pagecolor="#ffffff"
     bordercolor="#000000"
     borderopacity="0.25"
     inkscape:showpageshadow="2"
     inkscape:pageopacity="0.0"
     inkscape:pagecheckerboard="0"
     inkscape:deskcolor="#d1d1d1"
     inkscape:document-units="mm"
     inkscape:zoom="2.8614198"
     inkscape:cx="214.22931"
     inkscape:cy="136.47071"
     inkscape:window-width="1870"
     inkscape:window-height="1011"
     inkscape:window-x="0"
     inkscape:window-y="0"
     inkscape:window-maximized="1"
     inkscape:current-layer="layer1" />
  <defs
     id="defs1" />
  <g
     inkscape:label="Layer 1"
     inkscape:groupmode="layer"
     id="layer1">
    <path
       style="fill:#554400;stroke:#554400;stroke-width:0.265;stroke-dasharray:none;stroke-opacity:1"
       d="M 9.6164383,48.504342 26.722601,48.226945 c 3.866157,-4.300191 7.82771,-7.83722 11.465753,-13.962328 1.803759,-2.301992 0.06201,-5.529234 0.739729,-8.506849 l 15.256849,-2.126713 6.472601,8.136987 4.438356,12.760274 2.773974,5.085615 19.14041,0.554796 h 0.924658"
       id="path2"
       sodipodi:nodetypes="cccccccccc" />
    <path
       style="fill:none;stroke:#00ffff;stroke-width:0.264999;stroke-dasharray:none;stroke-opacity:1"
       d="M 5.0856165,39.997493 15.534246,39.905027"
       id="path3" />
    <path
       style="fill:none;stroke:#00ffff;stroke-width:0.264999;stroke-dasharray:none;stroke-opacity:1"
       d="m 13.962328,37.038589 3.421233,2.958904 -3.69863,2.958905"
       id="path4" />
    <path
       style="fill:none;stroke:#00ffff;stroke-width:0.264999;stroke-dasharray:none;stroke-opacity:1"
       d="m 22.746575,39.62763 7.212328,-5.547945 0.46233,-0.369863"
       id="path5" />
    <path
       style="fill:none;stroke:#00ffff;stroke-width:0.264999;stroke-dasharray:none;stroke-opacity:1"
       d="m 26.537671,31.490644 6.195205,-0.277397 -1.294521,6.010273"
       id="path6" />
    <path
       style="fill:none;stroke:#00ffff;stroke-width:0.264999;stroke-dasharray:none;stroke-opacity:1"
       d="M 35.136986,25.295439 40.684931,22.429 41.147259,22.151603"
       id="path7" />
    <path
       style="fill:none;stroke:#00ffff;stroke-width:0.264999;stroke-dasharray:none;stroke-opacity:1"
       d="m 37.356163,19.377631 6.657536,1.756849 -3.143837,3.421233"
       id="path8" />
    <path
       style="fill:none;stroke:#0000ff;stroke-width:0.264999;stroke-dasharray:none;stroke-opacity:1;fill-opacity:1"
       d="m 37.726026,8.0968067 c 1.294521,-1.918314 1.571918,-1.374107 2.866439,-1.756851 2.059485,0.812047 4.155837,0.436665 4.993151,-0.462329 1.51817,-0.7365419 2.765971,-0.526788 3.791096,0.462328 0.06074,1.973809 -0.499587,2.186666 2.126712,2.21918 -0.257673,1.171233 0.798843,2.3424673 -0.462327,3.5137013 -2.840444,-0.270342 -2.476844,0.85562 -3.143837,2.034247 -5.599839,0.858955 -4.652033,0.519819 -6.10274,-0.554794 -3.647838,-0.601332 -2.957314,-1.935724 -3.051371,-2.773974 -1.571037,-0.333838 -2.15381,-1.1168873 -1.017123,-2.6815083 z"
       id="path9"
       sodipodi:nodetypes="cccccccccc" />
    <text
       xml:space="preserve"
       style="font-size:3.175px;text-align:start;writing-mode:lr-tb;direction:ltr;text-anchor:start;fill:none;stroke:#000000;stroke-width:0.264999"
       x="5.4554791"
       y="38.333111"
       id="text1"><tspan
         sodipodi:role="line"
         id="tspan1"
         style="font-style:normal;font-variant:normal;font-weight:normal;font-stretch:normal;font-family:Monospace;-inkscape-font-specification:Monospace;stroke-width:0.265"
         x="5.4554791"
         y="38.333111">Szél</tspan></text>
    <path
       style="fill:none;stroke:#0000ff;stroke-width:0.264999;stroke-dasharray:none;stroke-opacity:1"
       d="m 53.688439,13.275549 c 1.294521,-1.918315 1.571918,-1.374107 2.866439,-1.756852 2.059485,0.812047 4.155837,0.436666 4.993151,-0.462329 1.51817,-0.736542 2.765971,-0.526787 3.791096,0.462329 0.06074,1.973809 -0.499587,2.186666 2.126712,2.21918 -0.257673,1.171234 0.798843,2.342467 -0.462327,3.5137 -2.840444,-0.270342 -2.476844,0.85562 -3.143837,2.034247 -5.599839,0.858955 -4.652033,0.519819 -6.10274,-0.554795 -3.647838,-0.601331 -2.957314,-1.935723 -3.051371,-2.773973 -1.571037,-0.333838 -2.15381,-1.116885 -1.017123,-2.681507 z"
       id="path9-6"
       sodipodi:nodetypes="cccccccccc" />
    <path
       style="fill:#554400;fill-opacity:1;stroke:#0000ff;stroke-width:0.264999;stroke-opacity:1"
       d="m 49.006847,15.256849 -0.09246,1.571918"
       id="path1" />
    <path
       style="fill:#554400;fill-opacity:1;stroke:#0000ff;stroke-width:0.264999;stroke-opacity:1"
       d="m 41.499731,16.411947 -0.09246,1.571918"
       id="path1-9" />
    <path
       style="fill:#554400;fill-opacity:1;stroke:#0000ff;stroke-width:0.264999;stroke-opacity:1"
       d="m 44.674731,15.88278 -0.09246,1.571918"
       id="path1-5" />
    <path
       style="fill:#554400;fill-opacity:1;stroke:#0000ff;stroke-width:0.264999;stroke-opacity:1"
       d="m 38.589314,13.236947 -0.09246,1.571918"
       id="path1-0" />
    <path
       style="fill:#554400;fill-opacity:1;stroke:#0000ff;stroke-width:0.264999;stroke-opacity:1"
       d="m 47.320564,18.528613 -0.09246,1.571918"
       id="path1-6" />
    <path
       style="fill:#554400;fill-opacity:1;stroke:#0000ff;stroke-width:0.264999;stroke-opacity:1"
       d="m 50.495564,16.941113 -0.09246,1.571918"
       id="path1-7" />
    <path
       style="fill:#554400;fill-opacity:1;stroke:#0000ff;stroke-width:0.264999;stroke-opacity:1"
       d="m 53.935148,19.586947 -0.09246,1.571918"
       id="path1-3" />
    <path
       style="fill:#554400;fill-opacity:1;stroke:#0000ff;stroke-width:0.264999;stroke-opacity:1"
       d="m 59.226814,20.64528 -0.09246,1.571918"
       id="path1-54" />
    <path
       style="fill:#554400;fill-opacity:1;stroke:#0000ff;stroke-width:0.264999;stroke-opacity:1"
       d="m 64.783064,19.586947 -0.09246,1.571918"
       id="path1-07" />
    <path
       style="fill:#554400;fill-opacity:1;stroke:#0000ff;stroke-width:0.264999;stroke-opacity:1"
       d="m 62.666398,20.380697 -0.09246,1.571918"
       id="path1-4" />
    <path
       style="fill:#554400;fill-opacity:1;stroke:#0000ff;stroke-width:0.264999;stroke-opacity:1"
       d="m 56.580981,21.43903 -0.09246,1.571918"
       id="path1-2" />
    <path
       style="fill:#554400;fill-opacity:1;stroke:#0000ff;stroke-width:0.264999;stroke-opacity:1"
       d="m 64.518481,22.497363 -0.09246,1.571918"
       id="path1-26" />
    <path
       style="fill:#554400;fill-opacity:1;stroke:#0000ff;stroke-width:0.264999;stroke-opacity:1"
       d="m 68.222648,20.116113 -0.09246,1.571918"
       id="path1-04" />
    <path
       style="fill:#554400;fill-opacity:1;stroke:#0000ff;stroke-width:0.264999;stroke-opacity:1"
       d="m 60.549731,23.291113 -0.09246,1.571918"
       id="path1-27" />
  </g>
</svg>
