<?xml version="1.0" encoding="UTF-8" standalone="no"?>
<!-- Created with Inkscape (http://www.inkscape.org/) -->

<svg
   width="400"
   height="200"
   viewBox="0 0 105.83333 52.916666"
   version="1.1"
   id="svg1"
   inkscape:version="1.4.2 (ebf0e940d0, 2025-05-08)"
   sodipodi:docname="foldrajz-vizhozam-001.svg"
   xmlns:inkscape="http://www.inkscape.org/namespaces/inkscape"
   xmlns:sodipodi="http://sodipodi.sourceforge.net/DTD/sodipodi-0.dtd"
   xmlns="http://www.w3.org/2000/svg"
   xmlns:svg="http://www.w3.org/2000/svg">
  <sodipodi:namedview
     id="namedview1"
     pagecolor="#ffffff"
     bordercolor="#000000"
     borderopacity="0.25"
     inkscape:showpageshadow="2"
     inkscape:pageopacity="0.0"
     inkscape:pagecheckerboard="0"
     inkscape:deskcolor="#d1d1d1"
     inkscape:document-units="mm"
     inkscape:zoom="2.8614198"
     inkscape:cx="204.09448"
     inkscape:cy="85.796569"
     inkscape:window-width="1920"
     inkscape:window-height="1008"
     inkscape:window-x="0"
     inkscape:window-y="0"
     inkscape:window-maximized="1"
     inkscape:current-layer="layer1"
     showgrid="false"
     showguides="true" />
  <defs
     id="defs1" />
  <g
     inkscape:label="Layer 1"
     inkscape:groupmode="layer"
     id="layer1">
    <text
       xml:space="preserve"
       style="font-style:normal;font-variant:normal;font-weight:normal;font-stretch:normal;font-size:3.52777px;font-family:'Times New Roman';-inkscape-font-specification:'Times New Roman, ';text-align:start;writing-mode:lr-tb;direction:ltr;text-anchor:start;fill:#000000;stroke:#000000;stroke-width:0.286999;stroke-dasharray:none"
       x="44.753426"
       y="5.3630133"
       id="text46"><tspan
         sodipodi:role="line"
         id="tspan46"
         style="stroke-width:0.287"
         x="44.753426"
         y="5.3630133">V - alakú</tspan></text>
    <path
       style="fill:none;stroke:#806600;stroke-width:0.286999;stroke-dasharray:none"
       d="m 24.057712,11.778822 c 3.135317,-0.774307 4.559789,0.502569 4.993151,1.202055 2.751571,2.712329 4.137992,5.424657 5.178082,8.136986 1.557568,4.406648 1.734174,7.739213 5.270549,13.684932 1.643374,2.931226 3.622127,5.443229 4.345889,9.52397 1.430274,1.203234 2.825384,3.622587 5.455478,4.345893 1.933971,0.480554 3.994169,0.974796 7.304796,-1.756849 1.541096,-2.354883 2.804794,-1.091509 4.530821,-5.640412 1.840694,-3.460028 3.637671,-7.116781 4.993151,-12.760274 0.806918,-2.6751 0.947736,-2.419356 2.866437,-9.986301 0.470669,-1.345701 0.816603,-2.584485 2.958904,-5.363014 1.556347,-0.66283 1.902503,-2.905715 5.085616,-1.94178 v 0.09247"
       id="path46"
       sodipodi:nodetypes="ccccccccccccc" />
    <path
       style="fill:none;stroke:#0000ff;stroke-width:0.286999;stroke-dasharray:none"
       d="m 31.900685,16.273972 c 2.337581,-0.833874 4.671193,-1.681641 7.489724,-0.832192 2.154536,1.529184 4.508565,2.132132 8.96918,1.664384 4.223478,-0.814592 3.901866,-2.404578 9.801367,-2.126712 4.706847,0.792114 3.798453,1.558792 5.547945,1.664383 3.207585,-1.176928 4.751751,-0.898364 6.010275,-0.369863"
       id="path47"
       sodipodi:nodetypes="cccccc" />
    <path
       style="fill:none;stroke:#ff0000;stroke-width:0.286999;stroke-dasharray:none"
       d="m 66.390408,20.989726 -3.328765,11.28082"
       id="path48" />
    <path
       style="fill:none;stroke:#ff0000;stroke-width:0.286999;stroke-dasharray:none"
       d="m 62.229452,29.958903 0.462327,3.976028 2.034247,-2.773973"
       id="path49" />
    <path
       style="fill:none;stroke:#ff0000;stroke-width:0.286999;stroke-dasharray:none"
       d="m 35.876711,20.157534 4.530823,10.818493"
       id="path50" />
    <path
       style="fill:none;stroke:#ff0000;stroke-width:0.286999;stroke-dasharray:none"
       d="m 40.869862,27.647259 0.18493,4.438357 -3.143834,-2.773973"
       id="path51" />
    <text
       xml:space="preserve"
       style="font-style:normal;font-variant:normal;font-weight:normal;font-stretch:normal;font-size:3.52777px;font-family:'Times New Roman';-inkscape-font-specification:'Times New Roman, ';text-align:start;writing-mode:lr-tb;direction:ltr;text-anchor:start;fill:none;stroke:#ff0000;stroke-width:0.286999;stroke-dasharray:none"
       x="76.654106"
       y="23.763699"
       id="text51"><tspan
         sodipodi:role="line"
         id="tspan51"
         style="stroke-width:0.287"
         x="76.654106"
         y="23.763699">Omlás / Kopás</tspan></text>
    <path
       style="fill:#554400;stroke:#554400;stroke-width:0.055709;stroke-dasharray:none"
       d="m 46.468686,45.883184 0.471353,-0.719669 0.628471,0.295248 0.384066,0.627405 -0.418981,0.442873 -0.820504,0.42442 -0.157118,-0.627404 -0.331693,-0.202983 z"
       id="path52" />
    <path
       style="fill:#554400;stroke:#554400;stroke-width:0.055709;stroke-dasharray:none"
       d="m 48.44356,46.792665 0.471353,-0.719669 0.628471,0.295248 0.384066,0.627405 -0.418981,0.442873 -0.820504,0.42442 -0.157118,-0.627404 -0.331693,-0.202983 z"
       id="path52-2" />
    <path
       style="fill:#554400;stroke:#554400;stroke-width:0.055709;stroke-dasharray:none"
       d="m 48.708143,45.205165 0.471353,-0.719669 0.628471,0.295248 0.384066,0.627405 -0.418981,0.442873 -0.820504,0.42442 -0.157118,-0.627404 -0.331693,-0.202983 z"
       id="path52-1" />
    <path
       style="fill:#554400;stroke:#554400;stroke-width:0.055709;stroke-dasharray:none"
       d="m 50.560226,47.586415 0.471353,-0.719669 0.628471,0.295248 0.384066,0.627405 -0.418981,0.442873 -0.820504,0.42442 -0.157118,-0.627404 -0.331693,-0.202983 z"
       id="path52-4" />
    <path
       style="fill:#554400;stroke:#554400;stroke-width:0.055709;stroke-dasharray:none"
       d="m 50.295643,45.469748 0.471353,-0.719669 0.628471,0.295248 0.384066,0.627405 -0.418981,0.442873 -0.820504,0.42442 -0.157118,-0.627404 -0.331693,-0.202983 z"
       id="path52-26" />
    <path
       style="fill:#554400;stroke:#554400;stroke-width:0.055709;stroke-dasharray:none"
       d="m 52.41231,46.792665 0.471353,-0.719669 0.628471,0.295248 0.384066,0.627405 -0.418981,0.442873 -0.820504,0.42442 -0.157118,-0.627404 -0.331693,-0.202983 z"
       id="path52-8" />
    <path
       style="fill:#554400;stroke:#554400;stroke-width:0.055709;stroke-dasharray:none"
       d="m 55.058143,47.057248 0.471353,-0.719669 0.628471,0.295248 0.384066,0.627405 -0.418981,0.442873 -0.820504,0.42442 -0.157118,-0.627404 -0.331693,-0.202983 z"
       id="path52-86" />
    <path
       style="fill:#554400;stroke:#554400;stroke-width:0.055709;stroke-dasharray:none"
       d="m 53.99981,45.469748 0.471353,-0.719669 0.628471,0.295248 0.384066,0.627405 -0.418981,0.442873 -0.820504,0.42442 -0.157118,-0.627404 -0.331693,-0.202983 z"
       id="path52-3" />
    <path
       style="fill:#554400;stroke:#554400;stroke-width:0.055709;stroke-dasharray:none"
       d="m 55.58731,45.205165 0.471353,-0.719669 0.628471,0.295248 0.384066,0.627405 -0.418981,0.442873 -0.820504,0.42442 -0.157118,-0.627404 -0.331693,-0.202983 z"
       id="path52-7" />
    <path
       style="fill:#554400;stroke:#554400;stroke-width:0.055709;stroke-dasharray:none"
       d="m 51.883143,45.205165 0.471353,-0.719669 0.628471,0.295248 0.384066,0.627405 -0.418981,0.442873 -0.820504,0.42442 -0.157118,-0.627404 -0.331693,-0.202983 z"
       id="path52-6" />
    <path
       style="fill:#554400;stroke:#554400;stroke-width:0.055709;stroke-dasharray:none"
       d="m 45.533143,44.411415 0.471353,-0.719669 0.628471,0.295248 0.384066,0.627405 -0.418981,0.442873 -0.820504,0.42442 -0.157118,-0.627404 -0.331693,-0.202983 z"
       id="path52-33" />
    <path
       style="fill:#554400;stroke:#554400;stroke-width:0.055709;stroke-dasharray:none"
       d="m 47.385226,44.675998 0.471353,-0.719669 0.628471,0.295248 0.384066,0.627405 -0.418981,0.442873 -0.820504,0.42442 -0.157118,-0.627404 -0.331693,-0.202983 z"
       id="path52-65" />
    <path
       style="fill:#554400;stroke:#554400;stroke-width:0.286999;stroke-dasharray:none"
       d="M 54.18493,46.417806 H 67.222602"
       id="path53" />
    <text
       xml:space="preserve"
       style="font-style:normal;font-variant:normal;font-weight:normal;font-stretch:normal;font-size:3.52777px;font-family:'Times New Roman';-inkscape-font-specification:'Times New Roman, ';text-align:start;writing-mode:lr-tb;direction:ltr;text-anchor:start;fill:#554400;stroke:#554400;stroke-width:0.286999;stroke-dasharray:none"
       x="68.424652"
       y="47.065067"
       id="text53"><tspan
         sodipodi:role="line"
         id="tspan53"
         style="stroke-width:0.287"
         x="68.424652"
         y="47.065067">kavics / hordalék</tspan></text>
    <path
       style="fill:#ff0000;stroke:#ff0000;stroke-width:0.286999;stroke-dasharray:none"
       d="M 65.650683,26.167808 75.359587,22.83904"
       id="path54" />
  </g>
</svg>
