<?xml version="1.0" encoding="UTF-8" standalone="no"?>
<!-- Created with Inkscape (http://www.inkscape.org/) -->

<svg
   width="400"
   height="200"
   viewBox="0 0 105.83333 52.916666"
   version="1.1"
   id="svg1"
   inkscape:version="1.4.2 (ebf0e940d0, 2025-05-08)"
   sodipodi:docname="foldrajz-folyovolgyek-003.svg"
   xmlns:inkscape="http://www.inkscape.org/namespaces/inkscape"
   xmlns:sodipodi="http://sodipodi.sourceforge.net/DTD/sodipodi-0.dtd"
   xmlns="http://www.w3.org/2000/svg"
   xmlns:svg="http://www.w3.org/2000/svg">
  <sodipodi:namedview
     id="namedview1"
     pagecolor="#ffffff"
     bordercolor="#000000"
     borderopacity="0.25"
     inkscape:showpageshadow="2"
     inkscape:pageopacity="0.0"
     inkscape:pagecheckerboard="0"
     inkscape:deskcolor="#d1d1d1"
     inkscape:document-units="mm"
     inkscape:zoom="2.8614198"
     inkscape:cx="204.09448"
     inkscape:cy="85.796569"
     inkscape:window-width="1920"
     inkscape:window-height="1008"
     inkscape:window-x="0"
     inkscape:window-y="0"
     inkscape:window-maximized="1"
     inkscape:current-layer="layer1"
     showgrid="false"
     showguides="true" />
  <defs
     id="defs1" />
  <g
     inkscape:label="Layer 1"
     inkscape:groupmode="layer"
     id="layer1">
    <path
       style="fill:none;stroke:#806600;stroke-width:0.286999;stroke-dasharray:none"
       d="m 21.729452,12.914039 c 2.812363,-0.737994 4.602233,-0.0445 6.195204,0.924657 2.174322,2.682424 2.810862,4.339661 2.773974,5.547945 -0.606624,5.538131 0.06732,9.148437 0.554795,13.592465 0.737516,5.688422 1.083902,9.22295 2.126712,12.020547 1.414371,0.712341 2.973948,1.279477 5.363012,1.017125 3.335419,0.971297 3.797532,-0.266897 6.842466,0.277397 2.404564,1.684654 1.073822,3.617748 6.102739,2.681507 2.867436,-0.254521 4.61733,0.397059 6.472602,-0.46233 2.307838,-0.771816 2.998212,-2.082786 3.883562,-3.328765 1.245553,-0.991772 3.099455,-0.766847 4.80822,-0.832194 3.013844,-3.390411 2.11305,-6.780821 2.681507,-10.171232 0.185418,-3.821918 -0.130818,-7.643835 -1.664385,-11.465753 -0.196838,-7.041821 1.763386,-5.886804 2.681507,-8.69178 2.985038,-1.896895 5.223989,-1.555528 7.489727,-1.294521 v 0"
       id="path79"
       sodipodi:nodetypes="cccccccccccccccc" />
    <text
       xml:space="preserve"
       style="font-style:normal;font-variant:normal;font-weight:normal;font-stretch:normal;font-size:3.52777px;font-family:'Times New Roman';-inkscape-font-specification:'Times New Roman, ';text-align:start;writing-mode:lr-tb;direction:ltr;text-anchor:start;fill:#1a1a1a;stroke:#1a1a1a;stroke-width:0.286999;stroke-dasharray:none"
       x="39.720097"
       y="6.1027398"
       id="text79"><tspan
         sodipodi:role="line"
         id="tspan79"
         style="stroke-width:0.287;fill:#1a1a1a;stroke:#1a1a1a"
         x="39.720097"
         y="6.1027398">Szurdok völgy</tspan></text>
    <path
       style="fill:none;stroke:#0000ff;stroke-width:0.286999;stroke-dasharray:none"
       d="m 46.417806,46.880136 c 0.54075,-0.822605 1.894314,-1.180745 4.160959,-1.017124 2.30353,1.581646 3.110597,1.168009 3.976029,0.832191 0.845609,-1.205244 2.086163,-1.778575 4.160957,-1.017122 0.101243,0.817116 0.501743,1.420477 2.311646,1.017122"
       id="path80"
       sodipodi:nodetypes="ccccc" />
    <text
       xml:space="preserve"
       style="font-style:normal;font-variant:normal;font-weight:normal;font-stretch:normal;font-size:3.52777px;font-family:'Times New Roman';-inkscape-font-specification:'Times New Roman, ';text-align:start;writing-mode:lr-tb;direction:ltr;text-anchor:start;fill:#1a1a1a;stroke:#1a1a1a;stroke-width:0.286999;stroke-dasharray:none"
       x="11.928082"
       y="29.681505"
       id="text80"><tspan
         sodipodi:role="line"
         id="tspan80"
         style="stroke-width:0.287;stroke:#1a1a1a;fill:#1a1a1a"
         x="11.928082"
         y="29.681505">mészkő</tspan></text>
    <text
       xml:space="preserve"
       style="font-style:normal;font-variant:normal;font-weight:normal;font-stretch:normal;font-size:3.52777px;font-family:'Times New Roman';-inkscape-font-specification:'Times New Roman, ';text-align:start;writing-mode:lr-tb;direction:ltr;text-anchor:start;fill:none;stroke:#806600;stroke-width:0.286999;stroke-dasharray:none"
       x="30.698631"
       y="50.023972"
       id="text81"><tspan
         sodipodi:role="line"
         id="tspan81"
         style="fill:#0000ff;stroke:#0000ff;stroke-width:0.287"
         x="30.698631"
         y="50.023972">patak</tspan></text>
    <path
       style="fill:#0000ff;stroke:#0000ff;stroke-width:0.286999;stroke-dasharray:none"
       d="m 40.03767,49.006847 9.15411,-1.664383"
       id="path81" />
  </g>
</svg>
