<?xml version="1.0" encoding="UTF-8" standalone="no"?>
<!-- Created with Inkscape (http://www.inkscape.org/) -->

<svg
   width="400"
   height="200"
   viewBox="0 0 105.83333 52.916666"
   version="1.1"
   id="svg1"
   inkscape:version="1.4.2 (ebf0e940d0, 2025-05-08)"
   sodipodi:docname="foldrajz-felszin-alatti-vizek-001.svg"
   xmlns:inkscape="http://www.inkscape.org/namespaces/inkscape"
   xmlns:sodipodi="http://sodipodi.sourceforge.net/DTD/sodipodi-0.dtd"
   xmlns="http://www.w3.org/2000/svg"
   xmlns:svg="http://www.w3.org/2000/svg">
  <sodipodi:namedview
     id="namedview1"
     pagecolor="#ffffff"
     bordercolor="#000000"
     borderopacity="0.25"
     inkscape:showpageshadow="2"
     inkscape:pageopacity="0.0"
     inkscape:pagecheckerboard="0"
     inkscape:deskcolor="#d1d1d1"
     inkscape:document-units="mm"
     inkscape:zoom="2.8614198"
     inkscape:cx="204.09448"
     inkscape:cy="85.796569"
     inkscape:window-width="1920"
     inkscape:window-height="1008"
     inkscape:window-x="0"
     inkscape:window-y="0"
     inkscape:window-maximized="1"
     inkscape:current-layer="layer1"
     showgrid="false"
     showguides="true" />
  <defs
     id="defs1" />
  <g
     inkscape:label="Layer 1"
     inkscape:groupmode="layer"
     id="layer1">
    <path
       style="fill:#000000;stroke:#000000;stroke-width:0.251078;stroke-dasharray:none"
       d="M 11.35142,19.453866 H 54.305243"
       id="path1" />
    <path
       style="fill:#000000;stroke:#000000;stroke-width:0.251078;stroke-dasharray:none"
       d="M 11.313845,26.167112 H 54.267668"
       id="path1-3" />
    <path
       style="fill:#000000;stroke:#000000;stroke-width:0.251078;stroke-dasharray:none"
       d="M 11.313845,32.416719 H 54.267668"
       id="path1-1" />
    <path
       style="fill:#000000;stroke:#000000;stroke-width:0.251078;stroke-dasharray:none"
       d="M 11.082378,39.129259 H 54.036201"
       id="path1-36" />
    <path
       style="fill:#000000;stroke:#000000;stroke-width:0.251078;stroke-dasharray:none"
       d="M 11.313845,45.841798 H 54.267669"
       id="path1-18" />
    <text
       xml:space="preserve"
       style="font-size:3.08623px;text-align:start;writing-mode:lr-tb;direction:ltr;text-anchor:start;fill:#000000;stroke:#000000;stroke-width:0.251077;stroke-dasharray:none"
       x="19.512754"
       y="50.695873"
       id="text1"><tspan
         sodipodi:role="line"
         id="tspan1"
         style="font-style:normal;font-variant:normal;font-weight:normal;font-stretch:normal;font-size:3.08623px;font-family:'Times New Roman';-inkscape-font-specification:'Times New Roman, ';stroke-width:0.251078"
         x="19.512754"
         y="50.695873">ARTÉZI MEDENCE</tspan></text>
    <text
       xml:space="preserve"
       style="font-style:normal;font-variant:normal;font-weight:normal;font-stretch:normal;font-size:3.08623px;font-family:'Liberation Serif';-inkscape-font-specification:'Liberation Serif';text-align:start;writing-mode:lr-tb;direction:ltr;text-anchor:start;fill:#000000;stroke:#000000;stroke-width:0.251077;stroke-dasharray:none"
       x="55.518623"
       y="43.981815"
       id="text2"><tspan
         sodipodi:role="line"
         id="tspan2"
         style="font-style:normal;font-variant:normal;font-weight:normal;font-stretch:normal;font-size:3.08623px;font-family:'Times New Roman';-inkscape-font-specification:'Times New Roman, ';stroke-width:0.251078"
         x="55.518623"
         y="43.981815">VÍZZÁRÓ RÉTEG (pl.: gránit)</tspan></text>
    <text
       xml:space="preserve"
       style="font-style:normal;font-variant:normal;font-weight:normal;font-stretch:normal;font-size:3.08623px;font-family:'Liberation Serif';-inkscape-font-specification:'Liberation Serif';text-align:start;writing-mode:lr-tb;direction:ltr;text-anchor:start;fill:#000000;stroke:#000000;stroke-width:0.251077;stroke-dasharray:none"
       x="55.442577"
       y="36.539722"
       id="text3"><tspan
         sodipodi:role="line"
         id="tspan3"
         style="font-style:normal;font-variant:normal;font-weight:normal;font-stretch:normal;font-size:3.08623px;font-family:'Times New Roman';-inkscape-font-specification:'Times New Roman, ';stroke-width:0.251078"
         x="55.442577"
         y="36.539722">VÍZTARTÓ RÉTEG (pl.: mészkő)</tspan></text>
    <text
       xml:space="preserve"
       style="font-style:normal;font-variant:normal;font-weight:normal;font-stretch:normal;font-size:3.08623px;font-family:'Liberation Serif';-inkscape-font-specification:'Liberation Serif';text-align:start;writing-mode:lr-tb;direction:ltr;text-anchor:start;fill:#000000;stroke:#000000;stroke-width:0.251077;stroke-dasharray:none"
       x="55.716461"
       y="30.472795"
       id="text4"><tspan
         sodipodi:role="line"
         id="tspan4"
         style="font-style:normal;font-variant:normal;font-weight:normal;font-stretch:normal;font-size:3.08623px;font-family:'Times New Roman';-inkscape-font-specification:'Times New Roman, ';stroke-width:0.251078"
         x="55.716461"
         y="30.472795">VÍZZÁRÓ RÉTEG (pl.: agyag)</tspan></text>
    <text
       xml:space="preserve"
       style="font-style:normal;font-variant:normal;font-weight:normal;font-stretch:normal;font-size:3.08623px;font-family:'Liberation Serif';-inkscape-font-specification:'Liberation Serif';text-align:start;writing-mode:lr-tb;direction:ltr;text-anchor:start;fill:#000000;stroke:#000000;stroke-width:0.251077;stroke-dasharray:none"
       x="55.653141"
       y="22.023941"
       id="text5"><tspan
         sodipodi:role="line"
         id="tspan5"
         style="font-style:normal;font-variant:normal;font-weight:normal;font-stretch:normal;font-size:3.08623px;font-family:'Times New Roman';-inkscape-font-specification:'Times New Roman, ';stroke-width:0.251078"
         x="55.653141"
         y="22.023941">TALAJNEDVESSÉG SZINTJE</tspan></text>
    <text
       xml:space="preserve"
       style="font-style:normal;font-variant:normal;font-weight:normal;font-stretch:normal;font-size:3.08623px;font-family:'Liberation Serif';-inkscape-font-specification:'Liberation Serif';text-align:start;writing-mode:lr-tb;direction:ltr;text-anchor:start;fill:#000000;stroke:#000000;stroke-width:0.251077;stroke-dasharray:none"
       x="55.689198"
       y="25.50231"
       id="text6"><tspan
         sodipodi:role="line"
         id="tspan6"
         style="font-style:normal;font-variant:normal;font-weight:normal;font-stretch:normal;font-size:3.08623px;font-family:'Times New Roman';-inkscape-font-specification:'Times New Roman, ';stroke-width:0.251078"
         x="55.689198"
         y="25.50231">TALAJVÍZ (nincs levegő)</tspan></text>
    <path
       style="fill:none;stroke:#0000ff;stroke-width:0.251077;stroke-dasharray:none"
       d="m 11.526837,34.6677 c 0.321348,0.962223 1.03427,1.043404 1.779631,1.0516 0.925292,0.106076 1.62998,-0.61512 2.345877,-1.294277 0.767028,-0.814545 1.714406,-0.258428 2.750339,0.970708"
       id="path6"
       sodipodi:nodetypes="cccc" />
    <path
       style="fill:none;stroke:#0000ff;stroke-width:0.251077;stroke-dasharray:none"
       d="m 15.367856,37.204965 c 0.321348,0.962224 1.034271,1.043404 1.779631,1.0516 0.925293,0.106076 1.62998,-0.615119 2.345877,-1.294277 0.767028,-0.814544 1.714407,-0.258428 2.75034,0.970708"
       id="path6-4"
       sodipodi:nodetypes="cccc" />
    <path
       style="fill:none;stroke:#0000ff;stroke-width:0.251077;stroke-dasharray:none"
       d="m 21.154528,34.427362 c 0.321348,0.962224 1.034271,1.043404 1.779631,1.051601 0.925293,0.106075 1.62998,-0.61512 2.345877,-1.294278 0.767028,-0.814544 1.714407,-0.258428 2.75034,0.970708"
       id="path6-7"
       sodipodi:nodetypes="cccc" />
    <path
       style="fill:none;stroke:#0000ff;stroke-width:0.251077;stroke-dasharray:none"
       d="m 25.089466,37.204965 c 0.321348,0.962224 1.03427,1.043404 1.77963,1.0516 0.925294,0.106076 1.629981,-0.615119 2.345878,-1.294277 0.767028,-0.814544 1.714406,-0.258428 2.750339,0.970708"
       id="path6-3"
       sodipodi:nodetypes="cccc" />
    <path
       style="fill:none;stroke:#0000ff;stroke-width:0.251077;stroke-dasharray:none"
       d="m 31.107605,34.890296 c 0.321348,0.962224 1.034271,1.043404 1.779631,1.051601 0.925293,0.106075 1.62998,-0.61512 2.345877,-1.294277 0.767028,-0.814545 1.714407,-0.258429 2.75034,0.970707"
       id="path6-43"
       sodipodi:nodetypes="cccc" />
    <path
       style="fill:none;stroke:#0000ff;stroke-width:0.251077;stroke-dasharray:none"
       d="m 35.274009,37.436431 c 0.321348,0.962224 1.034271,1.043405 1.779631,1.051601 0.925293,0.106075 1.62998,-0.61512 2.345877,-1.294277 0.767028,-0.814545 1.714407,-0.258428 2.75034,0.970708"
       id="path6-0"
       sodipodi:nodetypes="cccc" />
    <path
       style="fill:none;stroke:#0000ff;stroke-width:0.251077;stroke-dasharray:none"
       d="m 41.755082,34.427362 c 0.321348,0.962224 1.034271,1.043404 1.779631,1.051601 0.925293,0.106075 1.62998,-0.61512 2.345877,-1.294278 0.767028,-0.814544 1.714406,-0.258428 2.750339,0.970708"
       id="path6-9"
       sodipodi:nodetypes="cccc" />
    <path
       style="fill:none;stroke:#0000ff;stroke-width:0.251077;stroke-dasharray:none"
       d="m 44.532685,37.204965 c 0.321348,0.962224 1.03427,1.043404 1.77963,1.0516 0.925294,0.106076 1.629981,-0.615119 2.345878,-1.294277 0.767027,-0.814544 1.714406,-0.258428 2.750339,0.970708"
       id="path6-30"
       sodipodi:nodetypes="cccc" />
    <path
       style="fill:none;stroke:#0000ff;stroke-width:0.251077;stroke-dasharray:none"
       d="m 11.377536,22.382747 c 3.427371,0.751493 6.658207,0.618583 9.781116,0 3.339504,-0.845096 6.941368,-0.509573 10.58191,0 4.060781,0.861444 8.258682,0.48881 12.469492,0 3.165039,-0.346009 6.33008,-0.450041 9.495119,0.114399"
       id="path7"
       sodipodi:nodetypes="ccccc" />
    <path
       style="fill:none;stroke:#806600;stroke-width:0.251077;stroke-dasharray:none"
       d="m 14.311508,26.100715 -1.661113,6.199363"
       id="path10" />
    <path
       style="fill:none;stroke:#806600;stroke-width:0.251077;stroke-dasharray:none"
       d="m 19.345815,26.305529 -1.661113,6.199363"
       id="path10-5" />
    <path
       style="fill:none;stroke:#806600;stroke-width:0.251077;stroke-dasharray:none"
       d="m 24.66956,26.074061 -1.661113,6.199363"
       id="path10-4" />
    <path
       style="fill:none;stroke:#806600;stroke-width:0.251077;stroke-dasharray:none"
       d="m 29.761833,26.305529 -1.661114,6.199363"
       id="path10-47" />
    <path
       style="fill:none;stroke:#806600;stroke-width:0.251077;stroke-dasharray:none"
       d="m 34.854107,26.305529 -1.661113,6.199363"
       id="path10-1" />
    <path
       style="fill:none;stroke:#806600;stroke-width:0.251077;stroke-dasharray:none"
       d="M 40.177844,26.305529 38.51673,32.504892"
       id="path10-6" />
    <path
       style="fill:none;stroke:#806600;stroke-width:0.251077;stroke-dasharray:none"
       d="m 45.270118,26.305529 -1.661113,6.199363"
       id="path10-0" />
    <path
       style="fill:none;stroke:#806600;stroke-width:0.251077;stroke-dasharray:none"
       d="m 50.593855,26.074061 -1.661114,6.199363"
       id="path10-8" />
    <path
       style="fill:none;stroke:#806600;stroke-width:0.251077;stroke-dasharray:none"
       d="m 16.239494,39.256602 -1.782425,6.652099"
       id="path11" />
    <path
       style="fill:none;stroke:#806600;stroke-width:0.251077;stroke-dasharray:none"
       d="m 21.781806,39.036206 -1.782425,6.6521"
       id="path11-6" />
    <path
       style="fill:none;stroke:#806600;stroke-width:0.251077;stroke-dasharray:none"
       d="m 27.337015,39.036206 -1.782425,6.6521"
       id="path11-2" />
    <path
       style="fill:none;stroke:#806600;stroke-width:0.251077;stroke-dasharray:none"
       d="m 32.892224,39.036206 -1.782425,6.6521"
       id="path11-4" />
    <path
       style="fill:none;stroke:#806600;stroke-width:0.251077;stroke-dasharray:none"
       d="m 38.447433,39.036206 -1.782425,6.6521"
       id="path11-9" />
    <path
       style="fill:none;stroke:#806600;stroke-width:0.251077;stroke-dasharray:none"
       d="m 44.465576,39.036206 -1.782425,6.6521"
       id="path11-1" />
    <path
       style="fill:none;stroke:#806600;stroke-width:0.251077;stroke-dasharray:none"
       d="m 50.483719,39.036206 -1.782425,6.6521"
       id="path11-0" />
    <text
       xml:space="preserve"
       style="font-style:normal;font-variant:normal;font-weight:normal;font-stretch:normal;font-size:3.08622px;font-family:'Times New Roman';-inkscape-font-specification:'Times New Roman, ';text-align:start;writing-mode:lr-tb;direction:ltr;text-anchor:start;fill:none;stroke:#806600;stroke-width:0.251077;stroke-dasharray:none"
       x="10.879705"
       y="17.691809"
       id="text11"><tspan
         sodipodi:role="line"
         id="tspan11"
         style="fill:#1a1a1a;stroke:#1a1a1a;stroke-width:0.251078"
         x="10.879705"
         y="17.691809">felszín</tspan></text>
    <text
       xml:space="preserve"
       style="font-style:normal;font-variant:normal;font-weight:normal;font-stretch:normal;font-size:3.08622px;font-family:'Times New Roman';-inkscape-font-specification:'Times New Roman, ';text-align:start;writing-mode:lr-tb;direction:ltr;text-anchor:start;fill:#1a1a1a;stroke:#1a1a1a;stroke-width:0.251077;stroke-dasharray:none"
       x="37.493267"
       y="16.073963"
       id="text12"><tspan
         sodipodi:role="line"
         id="tspan12"
         style="stroke-width:0.251078"
         x="37.493267"
         y="16.073963">belvíz</tspan></text>
    <path
       style="fill:#0000ff;stroke:#0000ff;stroke-width:0.251077;stroke-dasharray:none"
       d="m 35.794534,19.309655 c 2.283344,-1.26846 4.120922,-1.199625 5.986032,-1.213384 2.008987,0.06042 3.760961,0.506373 5.338893,1.213384"
       id="path12"
       sodipodi:nodetypes="ccc" />
    <path
       style="fill:none;stroke:#806600;stroke-width:0.251077;stroke-dasharray:none"
       d="m 49.38661,19.322573 c 0.713906,-1.383621 0.516904,-2.627102 0.257397,-3.860967 v 0"
       id="path13"
       sodipodi:nodetypes="ccc" />
    <path
       style="fill:none;stroke:#806600;stroke-width:0.251077;stroke-dasharray:none"
       d="m 50.5592,15.375807 c -0.673846,2.170868 0.001,3.127886 0.829392,3.946766 v 0"
       id="path14"
       sodipodi:nodetypes="ccc" />
    <path
       style="fill:none;stroke:#00aa00;stroke-width:0.251077;stroke-dasharray:none"
       d="m 49.072014,16.348198 c -0.69926,0.08191 -1.00422,-0.343133 -1.172591,-0.943792 0.111929,-0.545233 -0.04683,-0.873918 -0.314598,-1.11539 -0.341541,-0.576348 -0.05583,-0.995882 0.514796,-1.344188 0.717678,-0.391311 1.018945,-0.71322 1.286989,-1.029592 0.608351,-0.459133 1.086639,-0.332985 1.544386,-0.114399 0.60275,0.496353 1.093341,0.712306 1.544386,0.829393 0.481309,0.657795 0.335958,1.315589 0.143,1.973383 -0.952934,0.595763 -0.587607,0.971817 -0.714994,1.429988 -0.274537,0.18115 -0.337159,0.538895 -1.029592,0.371797"
       id="path15"
       sodipodi:nodetypes="cccccccccc" />
    <path
       style="fill:#9dac93;stroke:#9dac93;stroke-width:0.251077;stroke-dasharray:none"
       d="M 25.219817,16.319599 V 35.481435"
       id="path16" />
    <path
       style="fill:#9dac93;stroke:#9dac93;stroke-width:0.251077;stroke-dasharray:none"
       d="M 27.179133,16.31996 V 35.481796"
       id="path16-6" />
    <text
       xml:space="preserve"
       style="font-style:normal;font-variant:normal;font-weight:normal;font-stretch:normal;font-size:3.08622px;font-family:'Times New Roman';-inkscape-font-specification:'Times New Roman, ';text-align:start;writing-mode:lr-tb;direction:ltr;text-anchor:start;fill:#000000;stroke:#000000;stroke-width:0.251077;stroke-dasharray:none"
       x="20.929852"
       y="14.775212"
       id="text16"><tspan
         sodipodi:role="line"
         id="tspan16"
         style="fill:#000000;stroke:#000000;stroke-width:0.251078"
         x="20.929852"
         y="14.775212">Artézi kút</tspan></text>
    <path
       style="fill:none;stroke:#554400;stroke-width:0.251077;stroke-dasharray:none"
       d="m 49.701207,19.537071 c -0.0888,0.187661 -0.110892,0.442036 -0.414695,0.414696 -0.09387,0.171599 -0.372948,0.343197 -0.157301,0.514796 -0.128699,0.348934 -0.257397,0.513683 -0.386096,0.443296 -0.449836,-0.006 -0.551299,0.14634 -0.586294,0.328898 -0.137876,0.184406 -0.361069,0.155519 -0.571996,0.157298"
       id="path17"
       sodipodi:nodetypes="cccccc" />
    <path
       style="fill:none;stroke:#554400;stroke-width:0.251077;stroke-dasharray:none"
       d="m 50.344701,19.565671 c -0.06958,0.23102 -0.238694,0.484158 0.0143,0.643494 0.06237,0.151622 0.332445,0.184552 0.157298,0.471897 -0.147818,0.126522 -0.417947,0.230806 -0.171598,0.428995 -0.147765,0.277336 -0.295531,0.265715 -0.443296,0.285998"
       id="path18"
       sodipodi:nodetypes="ccccc" />
    <path
       style="fill:none;stroke:#554400;stroke-width:0.251077;stroke-dasharray:none"
       d="m 51.116893,19.565671 c 0.02615,0.138232 -0.08547,0.276464 0.257399,0.414696 0.271519,-0.05225 0.512093,-0.07357 0.557696,0.100099 0.178774,0.222677 0.187788,0.396852 0.100098,0.543396 -0.358879,0.201562 -0.379784,0.360879 -0.128698,0.486195 0.09971,0.12081 0.329045,0.149022 0.185898,0.443297"
       id="path19"
       sodipodi:nodetypes="cccccc" />
    <rect
       style="fill:none;stroke:#554400;stroke-width:0.251077;stroke-dasharray:none"
       id="rect19"
       width="2.0223081"
       height="2.0223081"
       x="44.773575"
       y="19.79501" />
    <path
       style="fill:none;stroke:#1a1a1a;stroke-width:0.251077;stroke-dasharray:none"
       d="M 45.825181,20.765718 62.812568,12.352916"
       id="path20" />
    <rect
       style="fill:none;stroke:#1a1a1a;stroke-width:0.209689;stroke-dasharray:none"
       id="rect20"
       width="14.844682"
       height="12.175235"
       x="62.710983"
       y="2.9487128" />
    <path
       style="fill:#554400;stroke:#554400;stroke-width:0.251077;stroke-dasharray:none"
       d="m 64.774207,7.600492 c 0,0 0.46513,-0.3437924 0.546023,-0.3437924 0.0809,0 0.626916,0.1820078 0.626916,0.1820078 L 66.513393,7.7420536 66.04826,8.5307537 65.421346,8.2071844 64.814653,8.348746 64.673092,8.106069 Z"
       id="path21" />
    <path
       style="fill:none;stroke:#0000ff;stroke-width:0.251077;stroke-dasharray:none"
       d="m 64.046176,8.0656229 0.2629,-0.8291463 1.11227,-0.5864693 1.5774,0.9100385 -0.505576,1.1931618 -0.44491,0.222454 -0.950484,0.040446 z"
       id="path22" />
    <path
       style="fill:#554400;stroke:#554400;stroke-width:0.251077;stroke-dasharray:none"
       d="m 67.737994,5.3775256 c 0,0 0.46513,-0.3437924 0.546024,-0.3437924 0.0809,0 0.626916,0.1820077 0.626916,0.1820077 l 0.566247,0.3033463 -0.465133,0.7887 L 68.385134,5.984218 67.778441,6.1257796 67.63688,5.8831026 Z"
       id="path21-0" />
    <path
       style="fill:none;stroke:#0000ff;stroke-width:0.251077;stroke-dasharray:none"
       d="m 67.009963,5.8426565 0.262901,-0.8291464 1.11227,-0.5864693 1.5774,0.9100386 -0.505576,1.1931617 -0.44491,0.2224541 -0.950484,0.040446 z"
       id="path22-5" />
    <path
       style="fill:#554400;stroke:#554400;stroke-width:0.251077;stroke-dasharray:none"
       d="m 69.358263,8.3865952 c 0,0 0.46513,-0.3437924 0.546024,-0.3437924 0.0809,0 0.626915,0.1820078 0.626915,0.1820078 L 71.097449,8.5281568 70.632317,9.3168569 70.005403,8.9932876 69.39871,9.1348492 69.257149,8.8921722 Z"
       id="path21-04" />
    <path
       style="fill:none;stroke:#0000ff;stroke-width:0.251077;stroke-dasharray:none"
       d="m 68.630232,8.8517261 0.262901,-0.8291463 1.11227,-0.5864694 1.5774,0.9100387 -0.505576,1.1931617 -0.44491,0.222454 -0.950484,0.040446 z"
       id="path22-6" />
    <path
       style="fill:#554400;stroke:#554400;stroke-width:0.251077;stroke-dasharray:none"
       d="m 64.960392,10.932731 c 0,0 0.46513,-0.343792 0.546023,-0.343792 0.0809,0 0.626916,0.182007 0.626916,0.182007 l 0.566247,0.303347 -0.465133,0.7887 -0.626914,-0.32357 -0.606693,0.141562 -0.141561,-0.242677 z"
       id="path21-6" />
    <path
       style="fill:none;stroke:#0000ff;stroke-width:0.251077;stroke-dasharray:none"
       d="m 64.232361,11.397862 0.2629,-0.829146 1.11227,-0.5864698 1.5774,0.9100388 -0.505576,1.193162 -0.44491,0.222454 -0.950484,0.04045 z"
       id="path22-9" />
    <path
       style="fill:#554400;stroke:#554400;stroke-width:0.251077;stroke-dasharray:none"
       d="m 69.126796,11.858599 c 0,0 0.46513,-0.343793 0.546023,-0.343793 0.0809,0 0.626916,0.182008 0.626916,0.182008 l 0.566247,0.303346 -0.465133,0.7887 -0.626914,-0.323569 -0.606693,0.141562 -0.141561,-0.242677 z"
       id="path21-2" />
    <path
       style="fill:none;stroke:#0000ff;stroke-width:0.251077;stroke-dasharray:none"
       d="m 68.398765,12.323729 0.2629,-0.829146 1.11227,-0.586469 1.5774,0.910038 -0.505576,1.193162 -0.44491,0.222454 -0.950484,0.04045 z"
       id="path22-99" />
    <path
       style="fill:#554400;stroke:#554400;stroke-width:0.251077;stroke-dasharray:none"
       d="m 72.830267,12.784466 c 0,0 0.46513,-0.343792 0.546023,-0.343792 0.0809,0 0.626916,0.182008 0.626916,0.182008 l 0.566247,0.303346 -0.465133,0.7887 -0.626914,-0.323569 -0.606693,0.141561 -0.141561,-0.242677 z"
       id="path21-61" />
    <path
       style="fill:none;stroke:#0000ff;stroke-width:0.251077;stroke-dasharray:none"
       d="m 72.102236,13.249597 0.2629,-0.829146 1.11227,-0.58647 1.5774,0.910039 -0.505576,1.193162 -0.44491,0.222454 -0.950484,0.04045 z"
       id="path22-3" />
    <path
       style="fill:#554400;stroke:#554400;stroke-width:0.251077;stroke-dasharray:none"
       d="m 66.360403,13.348515 c 0,0 0.46513,-0.343792 0.546024,-0.343792 0.0809,0 0.626915,0.182008 0.626915,0.182008 l 0.566247,0.303346 -0.465132,0.7887 -0.626914,-0.323569 -0.606693,0.141561 -0.141561,-0.242677 z"
       id="path21-9" />
    <path
       style="fill:none;stroke:#0000ff;stroke-width:0.251077;stroke-dasharray:none"
       d="m 65.632372,13.813646 0.2629,-0.829146 1.112271,-0.58647 1.5774,0.910039 -0.505576,1.193162 -0.44491,0.222454 -0.950484,0.04045 z"
       id="path22-1" />
    <path
       style="fill:#554400;stroke:#554400;stroke-width:0.251077;stroke-dasharray:none"
       d="m 72.135866,10.23833 c 0,0 0.46513,-0.3437921 0.546023,-0.3437921 0.0809,0 0.626916,0.1820081 0.626916,0.1820081 l 0.566247,0.303346 -0.465132,0.7887 -0.626915,-0.323569 -0.606693,0.141561 -0.14156,-0.242677 z"
       id="path21-7" />
    <path
       style="fill:none;stroke:#0000ff;stroke-width:0.251077;stroke-dasharray:none"
       d="m 71.407835,10.703461 0.2629,-0.8291461 1.11227,-0.5864694 1.577401,0.9100385 -0.505577,1.193162 -0.444909,0.222454 -0.950485,0.04045 z"
       id="path22-58" />
    <path
       style="fill:#554400;stroke:#554400;stroke-width:0.251077;stroke-dasharray:none"
       d="m 74.450535,7.6921946 c 0,0 0.46513,-0.3437925 0.546023,-0.3437925 0.0809,0 0.626916,0.1820078 0.626916,0.1820078 l 0.566247,0.3033463 -0.465133,0.7887 -0.626914,-0.3235693 -0.606693,0.1415616 -0.141561,-0.242677 z"
       id="path21-042" />
    <path
       style="fill:none;stroke:#0000ff;stroke-width:0.251077;stroke-dasharray:none"
       d="m 73.722504,8.1573254 0.2629,-0.8291463 1.11227,-0.5864693 1.5774,0.9100386 -0.505576,1.1931617 -0.44491,0.222454 -0.950484,0.040446 z"
       id="path22-96" />
    <path
       style="fill:#554400;stroke:#554400;stroke-width:0.251077;stroke-dasharray:none"
       d="m 71.632486,6.8179832 c 0,0 0.46513,-0.3437924 0.546023,-0.3437924 0.0809,0 0.626916,0.1820078 0.626916,0.1820078 l 0.566247,0.3033462 -0.465133,0.7887 -0.626914,-0.3235692 -0.606693,0.1415615 -0.141561,-0.242677 z"
       id="path21-22" />
    <path
       style="fill:none;stroke:#0000ff;stroke-width:0.251077;stroke-dasharray:none"
       d="m 70.904455,7.283114 0.2629,-0.8291462 1.11227,-0.5864694 1.5774,0.9100386 -0.505576,1.1931617 -0.44491,0.2224541 -0.950484,0.040446 z"
       id="path22-0" />
    <path
       style="fill:#554400;stroke:#554400;stroke-width:0.251077;stroke-dasharray:none"
       d="m 74.219068,4.683125 c 0,0 0.46513,-0.3437924 0.546023,-0.3437924 0.0809,0 0.626916,0.1820078 0.626916,0.1820078 L 75.958254,4.8246866 75.493122,5.6133867 74.866207,5.2898174 74.259514,5.431379 74.117954,5.188702 Z"
       id="path21-02" />
    <path
       style="fill:none;stroke:#0000ff;stroke-width:0.251077;stroke-dasharray:none"
       d="m 73.491037,5.1482559 0.2629,-0.8291464 1.11227,-0.5864693 1.577401,0.9100386 -0.505577,1.1931617 -0.444909,0.2224541 -0.950485,0.040446 z"
       id="path22-8" />
    <path
       style="fill:#554400;stroke:#554400;stroke-width:0.251077;stroke-dasharray:none"
       d="m 64.265991,4.451658 c 0,0 0.46513,-0.3437924 0.546023,-0.3437924 0.0809,0 0.626916,0.1820078 0.626916,0.1820078 L 66.005177,4.5932196 65.540045,5.3819197 64.913131,5.0583504 64.306437,5.199912 64.164877,4.957235 Z"
       id="path21-09" />
    <path
       style="fill:none;stroke:#0000ff;stroke-width:0.251077;stroke-dasharray:none"
       d="m 63.53796,4.9167889 0.2629,-0.8291463 1.112271,-0.5864693 1.5774,0.9100386 -0.505577,1.1931617 -0.444909,0.222454 -0.950485,0.040446 z"
       id="path22-19" />
    <path
       style="fill:#554400;stroke:#554400;stroke-width:0.251077;stroke-dasharray:none"
       d="m 70.747065,4.2201912 c 0,0 0.46513,-0.3437924 0.546023,-0.3437924 0.0809,0 0.626916,0.1820077 0.626916,0.1820077 l 0.566247,0.3033463 -0.465133,0.7887 -0.626914,-0.3235692 -0.606693,0.1415616 -0.141561,-0.242677 z"
       id="path21-4" />
    <path
       style="fill:none;stroke:#0000ff;stroke-width:0.251077;stroke-dasharray:none"
       d="m 70.019034,4.6853221 0.2629,-0.8291464 1.11227,-0.5864693 1.5774,0.9100386 -0.505576,1.1931617 -0.44491,0.2224541 -0.950484,0.040446 z"
       id="path22-993" />
    <path
       style="fill:none;stroke:#1a1a1a;stroke-width:0.322245;stroke-dasharray:none"
       d="M 75.037694,4.9500769 83.106154,2.930152"
       id="path23" />
    <path
       style="fill:none;stroke:#1a1a1a;stroke-width:0.267413;stroke-dasharray:none"
       d="m 76.158602,5.5602086 7.201816,0.7235355"
       id="path24" />
    <path
       style="fill:none;stroke:#1a1a1a;stroke-width:0.251077;stroke-dasharray:none"
       d="M 75.75534,10.815962 82.550294,9.7643616"
       id="path25" />
    <text
       xml:space="preserve"
       style="font-style:normal;font-variant:normal;font-weight:normal;font-stretch:normal;font-size:3.08622px;font-family:'Times New Roman';-inkscape-font-specification:'Times New Roman, ';text-align:start;writing-mode:lr-tb;direction:ltr;text-anchor:start;fill:none;stroke:#1a1a1a;stroke-width:0.251077;stroke-dasharray:none"
       x="84.006355"
       y="3.3738682"
       id="text25"><tspan
         sodipodi:role="line"
         id="tspan25"
         style="stroke-width:0.251078"
         x="84.006355"
         y="3.3738682">talajszemcse</tspan></text>
    <text
       xml:space="preserve"
       style="font-style:normal;font-variant:normal;font-weight:normal;font-stretch:normal;font-size:3.08622px;font-family:'Times New Roman';-inkscape-font-specification:'Times New Roman, ';text-align:start;writing-mode:lr-tb;direction:ltr;text-anchor:start;fill:none;stroke:#1a1a1a;stroke-width:0.251077;stroke-dasharray:none"
       x="84.491714"
       y="6.6904535"
       id="text26"><tspan
         sodipodi:role="line"
         id="tspan26"
         style="stroke-width:0.251078"
         x="84.491714"
         y="6.6904535">vízhártya</tspan></text>
    <text
       xml:space="preserve"
       style="font-style:normal;font-variant:normal;font-weight:normal;font-stretch:normal;font-size:3.08622px;font-family:'Times New Roman';-inkscape-font-specification:'Times New Roman, ';text-align:start;writing-mode:lr-tb;direction:ltr;text-anchor:start;fill:none;stroke:#1a1a1a;stroke-width:0.251077;stroke-dasharray:none"
       x="84.168144"
       y="10.492393"
       id="text27"><tspan
         sodipodi:role="line"
         id="tspan27"
         style="stroke-width:0.251078"
         x="84.168144"
         y="10.492393">levegő</tspan></text>
  </g>
</svg>
