<?xml version="1.0" encoding="UTF-8" standalone="no"?>
<!-- Created with Inkscape (http://www.inkscape.org/) -->

<svg
   width="378"
   height="208"
   viewBox="0 0 100.01251 55.033332"
   version="1.1"
   id="svg1"
   inkscape:version="1.4.2 (ebf0e940d0, 2025-05-08)"
   sodipodi:docname="biologia-sejt-001.svg"
   xmlns:inkscape="http://www.inkscape.org/namespaces/inkscape"
   xmlns:sodipodi="http://sodipodi.sourceforge.net/DTD/sodipodi-0.dtd"
   xmlns="http://www.w3.org/2000/svg"
   xmlns:svg="http://www.w3.org/2000/svg">
  <sodipodi:namedview
     id="namedview1"
     pagecolor="#ffffff"
     bordercolor="#000000"
     borderopacity="0.25"
     inkscape:showpageshadow="2"
     inkscape:pageopacity="0.0"
     inkscape:pagecheckerboard="0"
     inkscape:deskcolor="#d1d1d1"
     inkscape:document-units="mm"
     inkscape:zoom="2.8471661"
     inkscape:cx="175.96444"
     inkscape:cy="98.870242"
     inkscape:window-width="1920"
     inkscape:window-height="1008"
     inkscape:window-x="0"
     inkscape:window-y="0"
     inkscape:window-maximized="1"
     inkscape:current-layer="layer1"
     showgrid="true">
    <inkscape:grid
       id="grid1"
       units="mm"
       originx="0"
       originy="0"
       spacingx="0.99999997"
       spacingy="0.99999999"
       empcolor="#0099e5"
       empopacity="0.30196078"
       color="#0099e5"
       opacity="0.14901961"
       empspacing="5"
       enabled="true"
       visible="true" />
  </sodipodi:namedview>
  <defs
     id="defs1" />
  <g
     inkscape:label="Layer 1"
     inkscape:groupmode="layer"
     id="layer1">
    <circle
       style="fill:none;stroke:#000000;stroke-width:0.264583"
       id="path1"
       cx="30.015959"
       cy="28.250313"
       r="21.094807" />
    <ellipse
       style="fill:none;stroke:#000000;stroke-width:0.264583"
       id="path3"
       cx="16.680695"
       cy="33.454315"
       rx="1.9050375"
       ry="3.4383602" />
    <text
       xml:space="preserve"
       style="font-size:3.175px;text-align:start;writing-mode:lr-tb;direction:ltr;text-anchor:start;fill:none;stroke:#000000;stroke-width:0.264583"
       x="25.927097"
       y="27.413956"
       id="text3"><tspan
         sodipodi:role="line"
         id="tspan3"
         style="stroke-width:0.264583"
         x="25.927097"
         y="27.413956">DNS</tspan></text>
    <ellipse
       style="fill:none;stroke:#000000;stroke-width:0.264583"
       id="path4"
       cx="29.086674"
       cy="26.71699"
       rx="4.2747183"
       ry="3.7636106" />
    <path
       style="fill:none;stroke:#000000;stroke-width:0.264583"
       d="m 28.714956,30.201814 c -2.717693,1.765436 -3.381153,1.213623 -3.345432,3.159575 0.795761,1.820673 5.317325,-0.980264 5.018147,1.393931 0.918176,2.43001 -4.902349,0.04848 -4.739361,2.230286 0.539926,3.228585 4.973636,0.829382 5.111076,2.323217 -0.253681,2.225256 -5.01226,0.376762 -5.111076,2.230289 0.09523,1.703692 5.431023,0.712453 5.389863,2.323216 0.284169,2.294034 -5.001665,0.0055 -5.296934,1.951501 0.161608,1.29361 4.709684,0.639835 5.204004,2.044432 -0.01033,0.831194 -2.002779,0.16048 -2.230288,1.208071 l 0.464644,0.185857"
       id="path5"
       sodipodi:nodetypes="ccccccccccc" />
    <path
       style="fill:none;stroke:#000000;stroke-width:0.264583"
       d="m 30.945243,48.044118 11.89487,3.438361"
       id="path6" />
    <text
       xml:space="preserve"
       style="font-size:3.175px;text-align:start;writing-mode:lr-tb;direction:ltr;text-anchor:start;fill:none;stroke:#000000;stroke-width:0.264583"
       x="43.862328"
       y="52.690548"
       id="text6"><tspan
         sodipodi:role="line"
         id="tspan6"
         style="stroke-width:0.264583"
         x="43.862328"
         y="52.690548">Golgi</tspan></text>
    <path
       style="fill:none;stroke:#000000;stroke-width:0.264583"
       d="M 30.015957,24.161452 51.947122,2.8807883"
       id="path7" />
    <text
       xml:space="preserve"
       style="font-size:3.175px;text-align:start;writing-mode:lr-tb;direction:ltr;text-anchor:start;fill:none;stroke:#000000;stroke-width:0.264583"
       x="53.155193"
       y="3.1595745"
       id="text7"><tspan
         sodipodi:role="line"
         id="tspan7"
         style="stroke-width:0.264583"
         x="53.155193"
         y="3.1595745">Sejtmag</tspan></text>
    <path
       style="fill:none;stroke:#000000;stroke-width:0.264583"
       d="M 43.211826,17.470588 61.704629,9.0140799"
       id="path8" />
    <text
       xml:space="preserve"
       style="font-size:3.175px;text-align:start;writing-mode:lr-tb;direction:ltr;text-anchor:start;fill:none;stroke:#000000;stroke-width:0.264583"
       x="64.213707"
       y="9.7575092"
       id="text8"><tspan
         sodipodi:role="line"
         id="tspan8"
         style="stroke-width:0.264583"
         x="64.213707"
         y="9.7575092">Sejtplazma</tspan></text>
    <path
       style="fill:none;stroke:#000000;stroke-width:0.264583"
       d="M 17.470588,11.058511 10.965582,6.2262202"
       id="path9" />
    <text
       xml:space="preserve"
       style="font-size:3.175px;text-align:start;writing-mode:lr-tb;direction:ltr;text-anchor:start;fill:none;stroke:#000000;stroke-width:0.264583"
       x="3.810075"
       y="4.4605761"
       id="text9"><tspan
         sodipodi:role="line"
         id="tspan9"
         style="stroke-width:0.264583"
         x="3.810075"
         y="4.4605761">Sejthártya</tspan></text>
    <path
       style="fill:none;stroke:#000000;stroke-width:0.264583"
       d="M 30.666457,34.75532 60.310701,23.60388"
       id="path10" />
    <text
       xml:space="preserve"
       style="font-size:3.175px;text-align:start;writing-mode:lr-tb;direction:ltr;text-anchor:start;fill:none;stroke:#000000;stroke-width:0.264583"
       x="61.704632"
       y="23.882668"
       id="text10"><tspan
         sodipodi:role="line"
         id="tspan10"
         style="stroke-width:0.264583"
         x="61.704632"
         y="23.882668">Endoplazmatikus hálózat</tspan><tspan
         sodipodi:role="line"
         style="stroke-width:0.264583"
         x="61.704632"
         y="27.851418"
         id="tspan11">( fehérje szintézis,</tspan><tspan
         sodipodi:role="line"
         style="stroke-width:0.264583"
         x="61.704632"
         y="31.820168"
         id="tspan12">                   ER-riboszóma)</tspan></text>
    <path
       style="fill:none;stroke:#000000;stroke-width:0.0544502"
       d="m 15.995943,31.398239 c -0.212388,0.0306 -0.441502,0.0139 -0.411554,0.639855 0.03926,0.574382 0.653413,-6.89e-4 0.603612,0.559873 0.05566,0.512907 -0.595578,-0.111565 -0.562456,0.506552 -0.01509,0.576941 0.648403,0.146472 0.658485,0.639855 0.04031,0.554936 -0.66643,-0.17962 -0.658485,0.47989 -0.03085,0.595388 0.678471,0.134838 0.61733,0.746498 -0.0124,0.448176 -0.64898,0.01656 -0.631049,0.506553 0.0686,0.624612 0.364367,0.453985 0.589894,0.586533"
       id="path12"
       sodipodi:nodetypes="ccccccccc" />
    <path
       style="fill:none;stroke:#000000;stroke-width:0.0544502"
       d="m 16.845615,30.454031 c -0.212388,0.0306 -0.441502,0.0139 -0.411554,0.639855 0.03926,0.574382 0.653413,-6.89e-4 0.603612,0.559873 0.05566,0.512907 -0.595578,-0.111565 -0.562456,0.506552 -0.01509,0.576941 0.648403,0.146472 0.658485,0.639855 0.04031,0.554936 -0.66643,-0.17962 -0.658485,0.47989 -0.03085,0.595388 0.678471,0.134838 0.61733,0.746498 -0.0124,0.448176 -0.64898,0.01656 -0.631049,0.506553 0.0686,0.624612 0.364367,0.453985 0.589894,0.586533"
       id="path12-3"
       sodipodi:nodetypes="ccccccccc" />
    <path
       style="fill:none;stroke:#000000;stroke-width:0.0544502"
       d="m 17.374781,31.512365 c -0.212388,0.0306 -0.441502,0.0139 -0.411554,0.639855 0.03926,0.574382 0.653413,-6.89e-4 0.603612,0.559873 0.05566,0.512907 -0.595578,-0.111565 -0.562456,0.506552 -0.01509,0.576941 0.648403,0.146472 0.658485,0.639855 0.04031,0.554936 -0.66643,-0.17962 -0.658485,0.47989 -0.03085,0.595388 0.678471,0.134838 0.61733,0.746498 -0.0124,0.448176 -0.64898,0.01656 -0.631049,0.506553 0.0686,0.624612 0.364367,0.453985 0.589894,0.586533"
       id="path12-1"
       sodipodi:nodetypes="ccccccccc" />
    <path
       style="fill:none;stroke:#000000;stroke-width:0.264583"
       d="m 17.470588,34.66239 42.561327,6.133293"
       id="path13" />
    <text
       xml:space="preserve"
       style="font-size:3.175px;text-align:start;writing-mode:lr-tb;direction:ltr;text-anchor:start;fill:none;stroke:#000000;stroke-width:0.264583"
       x="62.355133"
       y="42.468399"
       id="text13"><tspan
         sodipodi:role="line"
         id="tspan13"
         style="stroke-width:0.264583"
         x="62.355133"
         y="42.468399">Mitokondrium</tspan></text>
  </g>
</svg>
