<?xml version="1.0" encoding="UTF-8" standalone="no"?>
<!-- Created with Inkscape (http://www.inkscape.org/) -->

<svg
   width="400"
   height="200"
   viewBox="0 0 105.83333 52.916666"
   version="1.1"
   id="svg5"
   inkscape:version="1.2.2 (b0a8486541, 2022-12-01)"
   sodipodi:docname="biologia-globularis.svg"
   xmlns:inkscape="http://www.inkscape.org/namespaces/inkscape"
   xmlns:sodipodi="http://sodipodi.sourceforge.net/DTD/sodipodi-0.dtd"
   xmlns="http://www.w3.org/2000/svg"
   xmlns:svg="http://www.w3.org/2000/svg">
  <sodipodi:namedview
     id="namedview7"
     pagecolor="#ffffff"
     bordercolor="#000000"
     borderopacity="0.25"
     inkscape:showpageshadow="2"
     inkscape:pageopacity="0.0"
     inkscape:pagecheckerboard="0"
     inkscape:deskcolor="#d1d1d1"
     inkscape:document-units="mm"
     showgrid="false"
     inkscape:zoom="2.8284271"
     inkscape:cx="194.98469"
     inkscape:cy="111.19254"
     inkscape:window-width="1920"
     inkscape:window-height="1008"
     inkscape:window-x="0"
     inkscape:window-y="0"
     inkscape:window-maximized="1"
     inkscape:current-layer="layer1" />
  <defs
     id="defs2" />
  <g
     inkscape:label="Layer 1"
     inkscape:groupmode="layer"
     id="layer1">
    <text
       xml:space="preserve"
       style="font-size:3.175px;fill:#000000;stroke:#000000;stroke-width:0.264583"
       x="28.156845"
       y="7.5209637"
       id="text1991"><tspan
         sodipodi:role="line"
         id="tspan1989"
         style="stroke-width:0.264583"
         x="28.156845"
         y="7.5209637" /></text>
    <path
       style="fill:none;stroke:#000000;stroke-width:0.107789"
       d="m 75.512093,44.361584 c -3.14997,-0.09869 -6.728978,0.127947 -6.684341,-2.225903 0.229379,-2.221699 6.153514,-0.728045 6.756217,-3.011516 -0.637999,-1.681551 -6.443419,0.06364 -6.899966,-2.356839 -0.38333,-2.743005 7.067674,-0.733791 7.043715,-3.142451 0.163034,-1.878339 -7.3063,-1.143212 -7.115591,-3.076985 0.03324,-1.728063 7.411709,-0.253263 7.043717,-2.422306 0.11747,-1.701218 -7.329692,-0.846813 -7.259341,-3.076986 -0.06452,-1.949628 7.341261,-0.336637 7.259341,-2.356837 0.325866,-2.199813 -7.187455,-0.916582 -7.115591,-2.553243 -0.158685,-2.691157 7.263771,-0.99448 7.115591,-3.142453 0.269547,-2.255946 -7.031234,-0.319234 -7.115591,-2.160431 -0.159506,-2.23908 4.173503,-2.61008 6.97184,-2.42231"
       id="path6197"
       sodipodi:nodetypes="ccccccccccccc" />
    <path
       style="fill:none;stroke:#000000;stroke-width:0.107789"
       d="m 68.658429,12.569494 c 3.14997,0.0987 6.728978,-0.12795 6.684341,2.225899 -0.229379,2.221698 -6.153515,0.728045 -6.756217,3.011516 0.637999,1.681551 6.443418,-0.06364 6.899966,2.356839 0.38333,2.743004 -7.067674,0.73379 -7.043715,3.14245 -0.163034,1.87834 7.306299,1.143212 7.115591,3.076986 -0.03324,1.728063 -7.411709,0.253263 -7.043717,2.422306 -0.117471,1.701218 7.329692,0.846812 7.25934,3.076985 0.06452,1.949629 -7.34126,0.336637 -7.25934,2.356838 -0.325866,2.199813 7.187454,0.916582 7.11559,2.553242 0.158686,2.691158 -7.26377,0.994481 -7.11559,3.142454 -0.269547,2.255946 7.031233,0.319234 7.11559,2.160431 0.159507,2.239082 -4.173503,2.61008 -6.971839,2.42231"
       id="path6197-1"
       sodipodi:nodetypes="ccccccccccccc" />
    <path
       style="fill:none;stroke:#000000;stroke-width:0.107789"
       d="m 33.903576,43.285829 c -3.14997,-0.09869 -6.728978,0.127947 -6.684341,-2.225903 0.229379,-2.221699 6.153514,-0.728045 6.756217,-3.011516 -0.637999,-1.681551 -6.443419,0.06364 -6.899966,-2.356839 -0.38333,-2.743005 7.067674,-0.733791 7.043715,-3.142451 0.163034,-1.878339 -7.3063,-1.143212 -7.115591,-3.076985 0.03324,-1.728063 7.411709,-0.253263 7.043717,-2.422306 0.11747,-1.701218 -7.329692,-0.846813 -7.259341,-3.076986 -0.06452,-1.949628 7.341261,-0.336637 7.259341,-2.356837 0.325866,-2.199813 -7.187455,-0.916582 -7.115591,-2.553243 -0.158685,-2.691157 7.263771,-0.99448 7.115591,-3.142453 0.269547,-2.255946 -7.031234,-0.319234 -7.115591,-2.160431 -0.159506,-2.23908 4.173503,-2.61008 6.97184,-2.42231"
       id="path6197-9"
       sodipodi:nodetypes="ccccccccccccc" />
    <path
       style="fill:none;stroke:#000000;stroke-width:0.107789"
       d="m 27.049912,11.493739 c 3.14997,0.0987 6.728978,-0.12795 6.684341,2.225899 -0.229379,2.221698 -6.153515,0.728045 -6.756217,3.011516 0.637999,1.681551 6.443418,-0.06364 6.899966,2.356839 0.38333,2.743004 -7.067674,0.73379 -7.043715,3.14245 -0.163034,1.87834 7.306299,1.143212 7.115591,3.076986 -0.03324,1.728063 -7.411709,0.253263 -7.043717,2.422306 -0.117471,1.701218 7.329692,0.846812 7.25934,3.076985 0.06452,1.949629 -7.34126,0.336637 -7.25934,2.356838 -0.325866,2.199813 7.187454,0.916582 7.11559,2.553242 0.158686,2.691158 -7.26377,0.994481 -7.11559,3.142454 -0.269547,2.255946 7.031233,0.319234 7.11559,2.160431 0.159507,2.239082 -4.173503,2.61008 -6.971839,2.42231"
       id="path6197-1-2"
       sodipodi:nodetypes="ccccccccccccc" />
    <path
       style="fill:none;stroke:#000000;stroke-width:0.128305"
       d="m 28.149966,18.029591 5.946179,-6.384413 4.235634,6.138861 5.538906,-5.893306 4.317086,5.893306 5.94618,-5.893306 4.235633,6.057008 5.294545,-6.13886 4.39854,6.057009 4.642905,-6.057009"
       id="path7030" />
    <path
       style="fill:none;stroke:#000000;stroke-width:0.128305"
       d="m 27.429673,44.904773 5.946179,-6.384413 4.235634,6.138861 5.538906,-5.893306 4.317086,5.893306 5.94618,-5.893306 4.235633,6.057008 5.294545,-6.13886 4.39854,6.057009 4.642905,-6.057009"
       id="path7030-8" />
  </g>
</svg>
