<?xml version="1.0" encoding="UTF-8" standalone="no"?>
<!-- Created with Inkscape (http://www.inkscape.org/) -->

<svg
   width="400"
   height="200"
   viewBox="0 0 105.83333 52.916666"
   version="1.1"
   id="svg5"
   inkscape:version="1.2.2 (b0a8486541, 2022-12-01)"
   sodipodi:docname="biologia-hemoglobin.svg"
   xmlns:inkscape="http://www.inkscape.org/namespaces/inkscape"
   xmlns:sodipodi="http://sodipodi.sourceforge.net/DTD/sodipodi-0.dtd"
   xmlns="http://www.w3.org/2000/svg"
   xmlns:svg="http://www.w3.org/2000/svg">
  <sodipodi:namedview
     id="namedview7"
     pagecolor="#ffffff"
     bordercolor="#000000"
     borderopacity="0.25"
     inkscape:showpageshadow="2"
     inkscape:pageopacity="0.0"
     inkscape:pagecheckerboard="0"
     inkscape:deskcolor="#d1d1d1"
     inkscape:document-units="mm"
     showgrid="false"
     inkscape:zoom="2.8284271"
     inkscape:cx="194.98469"
     inkscape:cy="111.19254"
     inkscape:window-width="1920"
     inkscape:window-height="1008"
     inkscape:window-x="0"
     inkscape:window-y="0"
     inkscape:window-maximized="1"
     inkscape:current-layer="layer1" />
  <defs
     id="defs2" />
  <g
     inkscape:label="Layer 1"
     inkscape:groupmode="layer"
     id="layer1">
    <text
       xml:space="preserve"
       style="font-size:3.175px;fill:#000000;stroke:#000000;stroke-width:0.264583"
       x="28.156845"
       y="7.5209637"
       id="text1991"><tspan
         sodipodi:role="line"
         id="tspan1989"
         style="stroke-width:0.264583"
         x="28.156845"
         y="7.5209637" /></text>
    <text
       xml:space="preserve"
       style="font-size:3.175px;fill:none;stroke:#000000;stroke-width:0.264583"
       x="47.857281"
       y="27.427198"
       id="text13355"><tspan
         sodipodi:role="line"
         id="tspan13353"
         style="stroke-width:0.264583"
         x="47.857281"
         y="27.427198">HEM</tspan></text>
    <path
       style="fill:none;stroke:#000000;stroke-width:0.0680416"
       d="m 37.735979,4.4437724 c 1.797268,-0.6055242 3.760414,-1.5035375 4.28357,-0.034929 0.388313,1.4257872 -3.29649,1.7537403 -3.104069,3.2968363 0.751059,0.907364 3.614548,-1.403229 4.435524,6e-4 0.854864,1.619265 -3.810068,1.950788 -3.235507,3.4388553 0.345703,1.198896 4.3817,-0.837735 4.724727,0.401384 0.383798,1.078271 -4.115784,1.725724 -3.403257,2.992433 0.330113,1.079454 4.325834,-1.026423 4.805697,0.37096 0.490479,1.194927 -4.056682,1.762497 -3.53996,2.997488 0.328866,1.432642 4.261968,-0.953069 4.602728,0.07671 0.716247,1.634673 -3.859799,2.153895 -3.275992,3.454068 0.373666,1.455521 4.03483,-1.290301 4.511227,-0.166791 0.611411,1.354254 -1.742817,2.501341 -3.362769,2.977224"
       id="path6197"
       sodipodi:nodetypes="ccccccccccccc" />
    <path
       style="fill:none;stroke:#000000;stroke-width:0.0680416"
       d="m 53.600679,28.717557 c 1.797268,-0.605524 3.760414,-1.503537 4.28357,-0.03493 0.388313,1.425788 -3.29649,1.753741 -3.104069,3.296837 0.751059,0.907364 3.614548,-1.403229 4.435524,6e-4 0.854864,1.619265 -3.810068,1.950788 -3.235507,3.438855 0.345703,1.198896 4.3817,-0.837735 4.724727,0.401384 0.383798,1.078271 -4.115784,1.725724 -3.403257,2.992433 0.330113,1.079454 4.325834,-1.026423 4.805697,0.37096 0.490479,1.194927 -4.056682,1.762497 -3.53996,2.997488 0.328866,1.432642 4.261968,-0.953069 4.602728,0.07671 0.716247,1.634673 -3.859799,2.153895 -3.275992,3.454068 0.373666,1.455521 4.03483,-1.290301 4.511227,-0.166791 0.611411,1.354254 -1.742817,2.501341 -3.362769,2.977224"
       id="path6197-0"
       sodipodi:nodetypes="ccccccccccccc" />
    <path
       style="fill:none;stroke:#000000;stroke-width:0.0680416"
       d="m 65.593513,4.8076225 c -1.797268,-0.605524 -3.760414,-1.503537 -4.28357,-0.03493 -0.388313,1.425788 3.29649,1.753741 3.104069,3.296837 -0.751059,0.907364 -3.614548,-1.403229 -4.435524,6e-4 -0.854864,1.619265 3.810068,1.9507875 3.235507,3.4388545 -0.345703,1.198896 -4.3817,-0.837735 -4.724727,0.401384 -0.383798,1.078271 4.115784,1.725724 3.403257,2.992433 -0.330113,1.079454 -4.325834,-1.026423 -4.805697,0.37096 -0.490479,1.194927 4.056682,1.762497 3.53996,2.997488 -0.328866,1.432642 -4.261968,-0.953069 -4.602728,0.07671 -0.716247,1.634673 3.859799,2.153895 3.275992,3.454068 -0.373666,1.455521 -4.03483,-1.290301 -4.511227,-0.166791 -0.611411,1.354254 1.742817,2.501341 3.362769,2.977224"
       id="path6197-0-2"
       sodipodi:nodetypes="ccccccccccccc" />
    <path
       style="fill:none;stroke:#000000;stroke-width:0.0680416"
       d="m 37.492341,47.521075 c 1.797268,0.605524 3.760414,1.503537 4.28357,0.03493 0.388313,-1.425788 -3.29649,-1.753741 -3.104069,-3.296837 0.751059,-0.907364 3.614548,1.403229 4.435524,-6e-4 0.854864,-1.619265 -3.810068,-1.950788 -3.235507,-3.438855 0.345703,-1.198896 4.3817,0.837735 4.724727,-0.401384 0.383798,-1.078271 -4.115784,-1.725724 -3.403257,-2.992433 0.330113,-1.079454 4.325834,1.026423 4.805697,-0.37096 0.490479,-1.194927 -4.056682,-1.762497 -3.53996,-2.997488 0.328866,-1.432642 4.261968,0.953069 4.602728,-0.07671 0.716247,-1.634673 -3.859799,-2.153895 -3.275992,-3.454068 0.373666,-1.455521 4.03483,1.290301 4.511227,0.166791 0.611411,-1.354254 -1.742817,-2.501341 -3.362769,-2.977224"
       id="path6197-0-3"
       sodipodi:nodetypes="ccccccccccccc" />
  </g>
</svg>
