<?xml version="1.0" encoding="UTF-8" standalone="no"?>
<!-- Created with Inkscape (http://www.inkscape.org/) -->

<svg
   width="400"
   height="200"
   viewBox="0 0 105.83333 52.916666"
   version="1.1"
   id="svg1"
   inkscape:version="1.4.2 (ebf0e940d0, 2025-05-08)"
   sodipodi:docname="biologia-glicerin-olajsavaknal.svg"
   xmlns:inkscape="http://www.inkscape.org/namespaces/inkscape"
   xmlns:sodipodi="http://sodipodi.sourceforge.net/DTD/sodipodi-0.dtd"
   xmlns="http://www.w3.org/2000/svg"
   xmlns:svg="http://www.w3.org/2000/svg">
  <sodipodi:namedview
     id="namedview1"
     pagecolor="#ffffff"
     bordercolor="#000000"
     borderopacity="0.25"
     inkscape:showpageshadow="2"
     inkscape:pageopacity="0.0"
     inkscape:pagecheckerboard="0"
     inkscape:deskcolor="#d1d1d1"
     inkscape:document-units="mm"
     inkscape:zoom="2.87211"
     inkscape:cx="206.12024"
     inkscape:cy="95.400246"
     inkscape:window-width="1920"
     inkscape:window-height="1015"
     inkscape:window-x="0"
     inkscape:window-y="0"
     inkscape:window-maximized="1"
     inkscape:current-layer="layer1"
     showgrid="true">
    <inkscape:grid
       id="grid1"
       units="mm"
       originx="0"
       originy="0"
       spacingx="0.99999997"
       spacingy="0.99999999"
       empcolor="#0099e5"
       empopacity="0.30196078"
       color="#0099e5"
       opacity="0.14901961"
       empspacing="5"
       enabled="true"
       visible="true" />
  </sodipodi:namedview>
  <defs
     id="defs1" />
  <g
     inkscape:label="Layer 1"
     inkscape:groupmode="layer"
     id="layer1">
    <path
       style="fill:none;stroke:#000000;stroke-width:0.264583"
       d="M 20.132291,10 V 39.939515"
       id="path1" />
    <path
       style="fill:none;stroke:#000000;stroke-width:0.264583"
       d="m 20.066146,15.398472 4.720346,2.725292 5.060902,-2.757354 5.066688,2.822107 5.158809,-3.07488"
       id="path2" />
    <path
       style="fill:none;stroke:#000000;stroke-width:0.263693"
       d="m 40.065923,15.398173 4.687274,2.726086 5.025444,-2.758158 5.03119,2.82293 5.122665,-3.075776"
       id="path2-3" />
    <path
       style="fill:none;stroke:#000000;stroke-width:0.264583"
       d="m 60.066146,15.114756 4.720346,2.725292 5.060902,-2.757354 5.066688,2.822107 5.158809,-3.07488"
       id="path2-1" />
    <path
       style="fill:none;stroke:#000000;stroke-width:0.264583"
       d="m 20.101661,24.992031 4.720346,2.725292 5.060902,-2.757354 5.066688,2.822107 5.158809,-3.07488"
       id="path2-36" />
    <path
       style="fill:none;stroke:#000000;stroke-width:0.263693"
       d="m 40.101438,24.991732 4.687274,2.726086 5.025444,-2.758158 5.03119,2.82293 5.122665,-3.075776"
       id="path2-3-0" />
    <path
       style="fill:none;stroke:#000000;stroke-width:0.264583"
       d="m 60.101661,24.708315 4.720346,2.725292 5.060902,-2.757354 5.066688,2.822107 5.158809,-3.07488"
       id="path2-1-6" />
    <path
       style="fill:none;stroke:#000000;stroke-width:0.264583"
       d="m 20.229127,35.21866 4.720346,2.725292 5.060902,-2.757354 5.066688,2.822107 5.158809,-3.07488"
       id="path2-7" />
    <path
       style="fill:none;stroke:#000000;stroke-width:0.263693"
       d="m 40.228904,35.218361 4.687274,2.726086 5.025444,-2.758158 5.03119,2.82293 5.122665,-3.075776"
       id="path2-3-9" />
    <path
       style="fill:none;stroke:#000000;stroke-width:0.264583"
       d="m 60.229127,34.934944 4.720346,2.725292 5.060902,-2.757354 5.066688,2.822107 5.158809,-3.07488"
       id="path2-1-2" />
    <path
       style="fill:none;stroke:#000000;stroke-width:0.264583"
       d="m 36.664392,18.516439 3.224254,-2.118797"
       id="path3" />
    <path
       style="fill:none;stroke:#000000;stroke-width:0.264583"
       d="m 56.654776,18.240074 3.132135,-2.026675"
       id="path4" />
    <path
       style="fill:none;stroke:#000000;stroke-width:0.264583"
       d="m 76.829403,17.96371 3.224255,-1.934554"
       id="path5" />
    <path
       style="fill:none;stroke:#000000;stroke-width:0.264583"
       d="m 36.388026,27.91284 3.132135,-1.842431"
       id="path6" />
    <path
       style="fill:none;stroke:#000000;stroke-width:0.264583"
       d="m 56.562653,27.82072 3.224258,-1.934554"
       id="path7" />
    <path
       style="fill:none;stroke:#000000;stroke-width:0.264583"
       d="m 76.921526,27.544355 2.763647,-1.658189"
       id="path8" />
    <path
       style="fill:none;stroke:#000000;stroke-width:0.264583"
       d="m 36.572269,38.046215 3.132135,-1.842431"
       id="path9" />
    <path
       style="fill:none;stroke:#000000;stroke-width:0.264583"
       d="m 56.378411,38.046215 3.684862,-2.210919"
       id="path10" />
    <path
       style="fill:none;stroke:#000000;stroke-width:0.264583"
       d="m 76.921526,37.954092 3.224255,-1.934551"
       id="path11" />
  </g>
</svg>
